<?xml version="1.0" encoding="utf-8"?><svg xmlns="http://www.w3.org/2000/svg" version="1.1" baseProfile="tiny" width="inset" height="inset" viewBox="0 0 800 600"><g><g stroke="#000000" stroke-width=".98" fill="#FFFFFF"><path d="m40.23 385l-5.26-2.39-1.46-2.11-.61 6.59 5.89 1.46 1.44-3.55z" /><path d="m46.67 406.85l3.84-4.83 1.25-4.91 4.1-1.46 3.97 2.91 1.48-3.28-5.4-5.15-2.42-9.14 1.1-1.94-6.93.28-3.74 4.06-3.69 1.61-1.44 3.55 2.95 1.08-.73 5.34 1.96 7.64 3.7 4.24z" /><path d="m55.22 376.56l-4.37-5.63-7.58-3.61-3.76.71-.78 3.04-3.91-.55-1.79 2.8.48 7.18 1.46 2.11 5.26 2.39 3.69-1.61 3.74-4.06 6.93-.28.63-2.49z" /><path d="m43.78 366.41l-7.62-1.26-.92 2.79-4.12-3.77-3.62.46-8.05-4.03-2.11 5.51 1.75 2.96 1.39 7.48-.36 3.06 6.51 7.23 3.99.14 2.28.11.61-6.59-.48-7.18 1.79-2.8 3.91.55.78-3.04 3.76-.71.51-.91z" /><path d="m30.62 386.98l1.47 6.69 2.51 2.46-2.79 2.56 1.26 4.39-2.76 1.79 2.48 2.26-3.1 2.64 2.85 2.71 3.02-2.07 4.42 2.73 2.05 3.02 5.68-2.16 5.8.03-2.3-3.85-4.54-3.33-3.7-4.24-1.96-7.64.73-5.34-2.95-1.08-5.89-1.46-2.28-.11z" /><path d="m78.86 316.19l-3.77-2.05-1.86-3.83-3.9-2.71 5.64-3.24 8.06-7.72.31-6.04-5.24-5.05-5.22 9.13-1.85-.38-2.66 3.67-4.44 1.37-.09 2.76-15.49 2.73-2.23-3.53-2.22.65-5.13-1.64.71 1.79-10.41-.24-1.94 2.68-2.92.08-1.26 2.87-2.96-.05-1.11 5-2.29-.78-7.8 9.26 1.19 6.31-2 1.79-.55 5.44-2.43.24.97 6.61 3.77.58-.42 2.22 4.8 2.93-2.24 3.17 2.7 7.75 4.87 2.64 8.05 4.03 3.62-.46 4.12 3.77.92-2.79 7.62 1.26 4.39-6.12-1.46-4.06 3.37-2.31 3.87-5.97-.93-2.37 1.45-3.71 5.75-1.6 3.41-4.75.6-4.62 2.35.66 5.7-5.53-1.46-2.21 3.94-2.57 1.41-3.48 2.69-1.58z" /><path d="m89.15 358.8l-1.15-2.97 4.52-6.39-3.04-4.84-2.12.71-1.95-3.62-.1-3.82-4.61-5.42 1.91-1.81-4.23-.4-1.79-2.94-4.31-1.27-5.7 5.53-2.35-.66-.6 4.62-3.41 4.75-5.75 1.6-1.45 3.71.93 2.37-3.87 5.97-3.37 2.31 1.46 4.06-4.39 6.12-.51.91 7.58 3.61 4.37 5.63 2.26-.61-2.81-3.21 5.48-3.51 8.2 1.41 4.3-2.76.77-4.96 2.85 1.26 5.31-3.95 2.36 2.08 5.21-3.51z" /><path d="m96.03 365l-6.88-6.2-5.21 3.51-2.36-2.08-5.31 3.95-2.85-1.26-.77 4.96-4.3 2.76-8.2-1.41-5.48 3.51 2.81 3.21-2.26.61-.63 2.49-1.1 1.94 2.42 9.14 5.4 5.15-1.48 3.28-3.97-2.91-4.1 1.46-1.25 4.91-3.84 4.83 4.54 3.33 2.3 3.85.57 2.22 5.34-5.85 3.55-1.09 7.36-8.07-3.8.32-2.46-2.43.1-4.92 4.87 1.46 7.41-4.33-2.01-2.7 1.08-3.03 4.02 1.42-1.9 1.69 4.93 2.96 4.59-1.26 2.89-3.85 4-.18 1.6-5.65-2.87-.76 3.12-3.9-6.29-2.58 1.64-3.53 4.78-4.97z" /><path d="m87.16 390.42l-4.59 1.26-4.93-2.96 1.9-1.69-4.02-1.42-1.08 3.03 2.01 2.7-7.41 4.33-4.87-1.46-.1 4.92 2.46 2.43 3.8-.32-7.36 8.07-3.55 1.09-5.34 5.85.39 2.33 3.8 1.84 7.49.95 5.51 8.06 2.7 1.72 3.79 6.34 2.14 7.44 5.77 4.35 3.23.31 2.75 3.37.52 4.28 2.76 4.05 5.11-1.2 2.82 4.13 7.61 6.81 1.85 3.28 3.73-3.13.83-6.09 4.18 1.11 5.66-5.18-.2-4.51 1.86-3.55 3.76-.86 2.19-3.28 4.14-1.84 2.1-3.27-2.1-1.98 2.29-2.85-1.1-3.81-5.47-5.34-2.12-4.81-4.09-3.15-2.78-7.32-10.57-3.45.35-1.86-5.57-4.33-3.34-.38.11-3.71-2.9 3.87-2.96-4.99-3.59 1.39.34-3.35-2.71 1.48-4.73-3.3-2.47-5.4z" /><path d="m144.37 355.42l-1.98 1.22-2.57-3.28-2.85 1.32 1.13 4.01-3.58 1.01-3.84-4.22-1.58 4.78-6.19-.38-2.53 2.2 1.91 2.03-1.99 2.15-4.86.55-.56 2.01-6.27-.82-6.81 5.7-5.77-8.7-4.78 4.97-1.64 3.53 6.29 2.58-3.12 3.9 2.87.76-1.6 5.65-4 .18-2.89 3.85 2.47 5.4 4.73 3.3 2.71-1.48-.34 3.35 3.59-1.39 2.96 4.99 2.9-3.87-.11 3.71 3.34.38 5.57 4.33-.35 1.86 10.57 3.45 2.78 7.32 4.09 3.15 2.12 4.81 5.47 5.34 1.13-5.22-.93-7.58 2.41-2.23-1.45-4.03-4.34-2.53.95-2.69-4.2 1.98-1.45-2.36 2.97-5.86-5.2-7.48-2.98-2.09 3.42-1.71 2.83 2.26 4.3-3.49-3.55-4.16 3.03-2.9 2.01 3.98 5.73-3.24.97-2.82-3.76-4.07-.56-2.8 3.3-6.84-3.63-2.15 3.71-11.62z" /><path d="m146.07 319.46l-3.91.85.34 2.53-2.74 1.27-4-5.21-1.25 6.51-2.94 2.91-4.88-1.54-3.81-3.76 1.34 2.85-1.78 7.51 1.67 3.63 4.32 1.99-1.82 2.55.17 6.03-3.49 3.95 7.39 3.95 3.84 4.22 3.58-1.01-1.13-4.01 2.85-1.32 2.57 3.28 1.98-1.22 7.43-9.52 2.77-6.41 6.27-5.91.44-.98-9.5-9.18-5.72-2.4.01-1.56z" /><path d="m131.08 285.76l-1.55-1.17-8.01 3.48-3.56-1.97.47 5.33-6.61.77.48 4.04-2.17 2.06-2.11 6.63 2.74.27 9.29 14.35 2.83 3.47 3.81 3.76 4.88 1.54 2.94-2.91 1.25-6.51 4 5.21 2.74-1.27-.34-2.53 3.91-.85 2.88-2.05 1.41-5.83 3.99-6.1 2.92 2.46 4.58.23 3.09-1.39 1.04-4.35-2.62-2.02-13.73-3.55-4.1-4.73-.65 2.82-5.29-.74-4.81-2.66-3.7-5.79z" /><path d="m105.51 293.9l-3.32-4.75-.26-3.67-3.22-3.93-.86-3.58 2-5.07 2.29-1.63-2.17-5.72-5.96-2.28-.77-3.67-6.53 2.55-2.66-1.61-1.69 3.84-3.79 3.98-8.97.84.06 4.6-5.44-1.06-4.66 1.43-1.15 2.61-3.39.41-.38-4.17-4.23 1.98-2.05-1.1-9.97 3.19-7.24-1.39-1.75 2.16-.15 4.43-5.86 8.8-.35 6.03 1.17 7.5 2.92-.08 1.94-2.68 10.41.24-.71-1.79 5.13 1.64 2.22-.65 2.23 3.53 15.49-2.73.09-2.76 4.44-1.37 2.66-3.67 1.85.38 5.22-9.13 5.24 5.05-.31 6.04-8.06 7.72-5.64 3.24 3.9 2.71 1.86 3.83 3.77 2.05.79-6.1 5.1-5 8.97 1.57 2.33-4.31 3.67-1.32 4.39-6.86 1.4-.27z" /><path d="m90.64 253.79l-4.68-.54-10.41-10.7-11.31-4.12-5.92 5.69-5.95 2.08-1.56 5.42-2.55 3.8-6.14 3.27-1.01 2.47-6.7 8.63-.43 3.5-2.83 2.41 7.24 1.39 9.97-3.19 2.05 1.1 4.23-1.98.38 4.17 3.39-.41 1.15-2.61 4.66-1.43 5.44 1.06-.06-4.6 8.97-.84 3.79-3.98 1.69-3.84 5.4-2.83 1.19-3.92z" /><path d="m231.99 161.91l-6.89.21-2.78 1.67-7.59 1.66-.34 4.36 1.69 2.21.7 6.32 2.29 3.04 5.35 1.69-1.05 6.59 3.98 2.55 2.39 10.78 2.17 1.36-2.44 2.29 1.07 6.76-1.89 4.47 2.35 5.71-.53 3.18 4.34 5.1 3.02 1.54.25 4.09 4.48-1.12 1.99-3.73 8.4-2.56 4.46-5.01.76-10.02-2.96-3.27-2.46-.24 4.96-5.06-1.95-2.29.35-3.88-13.63-10.68-2.31-4.66-1.57-9.02-6.38-10.79-.23-3.25z" /><path d="m111.82 292.2l-2.14-1.67-4.17 3.37-1.4.27-4.39 6.86-3.67 1.32-2.33 4.31-8.97-1.57-5.1 5-.79 6.1-2.69 1.58-1.41 3.48-3.94 2.57 1.46 2.21 4.31 1.27 1.79 2.94 4.23.4-1.91 1.81 4.61 5.42.1 3.82 1.95 3.62 2.12-.71 3.04 4.84-4.52 6.39 1.15 2.97 6.88 6.2 5.77 8.7 6.81-5.7 6.27.82.56-2.01 4.86-.55 1.99-2.15-1.91-2.03 2.53-2.2 6.19.38 1.58-4.78-7.39-3.95 3.49-3.95-.17-6.03 1.82-2.55-4.32-1.99-1.67-3.63 1.78-7.51-1.34-2.85-2.83-3.47-9.29-14.35-2.74-.27 2.11-6.63 2.17-2.06-.48-4.04z" /><path d="m219.08 248.53l-2.69 2.9-4.55-1.57-7.29 2.25-2.9 6.56-.52 6.6 1.06 5.98-3.02 1.83-2.97-2.46-3.18 2.75-3.34.7-1.27 3.08-4.32 1.07-2.26-3.34-5.1-3.34-4.94 3.36-.36 7.11 2.59.19 4.33 3.78 5.05 1.71 1.29-1.07 4.52 6.23 2.59 5.58 2.77-.48 3.13 3.53.19-4.2 2.41-.95 4.27 1.94 3.59-3.39 4 .66 2.2 4.29 2.05-2.4.05-7.11 5.31-1.93-1.56-3.84.88-2.55 5.41-.47 3.58-2.36 1.41-6.43-3.64-7.3 2.1-4.62-1.2-3.13-5.79-2.5-1.4-5.71-2.48-.95z" /><path d="m234.81 231.86l-5.19 1.92-6.07-9.59-1.97-.18-6.3-8.35-2.49 3.73-6.39-8.99-7.3-13.54-4.55-1.84-1.73 1.77 1.79 3.5-1.69.78.37 4.46-3.02 4.88-.88 6.05 2.94 12.4 3.07 2-.83 4.09-2.65 2.69 3.7 1.66 3.61 4.12 3.34-1.65 5.58 2.24 4.13-2.19 6.55.9 3.95-.1 2.46-2.54 3.96 2.4.18 2.19 3.8 1.46 1.56 3.57 5.36-2.55 3.02-5.89-4.11-.57-.93-3.2-.25-4.09-3.02-1.54z" /><path d="m263.49 157.7l-.5-2.12-3.4 1.46-3.87-1.37-2.83 2.01-14.63 2.41-.9-1.47-5.37 3.29.23 3.25 6.38 10.79 1.57 9.02 2.31 4.66 13.63 10.68-.35 3.88 1.95 2.29 4.65-2.21-1.64-4.03 1.46-12.77-2.42-3.5 6.74-3.56-3.81-8.82-1.42-12.74 2.22-1.15z" /><path d="m121.65 250.8l-3.85 2.52-5.42.61-3.84 1.81-6.34-6.65-5.66-.39-5.9 5.09-1.19 3.92-5.4 2.83 2.66 1.61 6.53-2.55.77 3.67 5.96 2.28 2.17 5.72-2.29 1.63-2 5.07.86 3.58 3.22 3.93.26 3.67 3.32 4.75 4.17-3.37 2.14 1.67 6.61-.77-.47-5.33 3.56 1.97 8.01-3.48 1.55 1.17 1.11-2.55-2.09-5.34 2.25-4.6-4.36-5.82-3.68-.44-2.47-3.04-1.43-10 1.24-3.17z" /><path d="m153.51 236.29l-8.53-.55.02 1.78-4.01 2.58-2.9 4.2-4.97 3.83-9.58.18-1.89 2.49-1.24 3.17 1.43 10 2.47 3.04 3.68.44 4.36 5.82-2.25 4.6 2.09 5.34-1.11 2.55 3.7 5.79 4.81 2.66 5.29.74.65-2.82 4.1 4.73 13.73 3.55 2.62 2.02 6.31-4.62-1.74-4.7-1.25-9.68 2.13-1.42.36-7.11-2.65-.73-1.87-5.51.37-3.99-3.61.06-1-3.48-5.24-1.34-3.39.44 1.79-3.91-4.21-8.33-.97-4.26 2.24-2.74.26-4.82z" /><path d="m221.77 288.39l-5.31 1.93-.05 7.11-2.05 2.4-2.2-4.29-4-.66-3.59 3.39-4.27-1.94-2.41.95-.19 4.2 2.37.48 3.59 4.44-6.27 6.2 2.68 2.19-1.38 2.46 3.56.07 4.23 3.5 2.52 5.76.22 3.58 3.44 1.75 6.97-1.66 4.08-3.85 4.04-1.39 5.21-3.55 2.96-3.89-3.15-4.36.74-5.77-4.45-4.76 2.74-1.03.46-7.16-5.48-.33-1.62-3.9-3.39-1.87z" /><path d="m235.65 366.31l6.15-4.81 1.56-3.44-1.42-8.87-3.16-.59 1.43-3.24-1.53-3.43 1.65-9.61-2.11-2.13-5.58.53 3.43-3.91-3.11-5.35-5.21 3.55-4.04 1.39-4.08 3.85-6.97 1.66-3.44-1.75-6.93 1.6-5.95 6.23-4.46 2.85 8.86 14.17-1.08 4.24-2.5 2.9 7.98 8.81 6.99 1.92-1.21 2.74 7.18 3.04-.94-3.42 5.2-1.5 4 4.07 2.17.04-2.42-3.94 2.81-2.49-.91-5.47 7.64.36z" /><path d="m261.02 237.63l-5.56 1.14-1-3.05-8.8 6.39-2.54-.85-3.02 5.89-5.36 2.55-1.56-3.57-3.8-1.46-.18-2.19-3.96-2.4-2.46 2.54-3.95.1.25 5.81 2.48.95 1.4 5.71 5.79 2.5 1.2 3.13-2.1 4.62 3.64 7.3-1.41 6.43-3.58 2.36-5.41.47-.88 2.55 1.56 3.84 3.39 1.87 1.62 3.9 5.48.33-.46 7.16-2.74 1.03 4.45 4.76-.74 5.77 3.15 4.36 4.36 1.86 6.64-2.79 2.73.68.44-2.8 7.03-8.59 7.29.64 2.27 1.53.06-4.51 4.8-3.84 1.41-4.67 5.81-1.36 4.82-8.61-1.8-5.34-4.22-5.08.55-4.23-3.6-1.82-6.67-6.23.27-7.02 1.79-2.77-1.61-2.98.41-3.76 3.63-1.69-3.12-4.74-4.01.31-4.18-2.13z" /><path d="m214.73 165.45l-8.76.84-.27 3.54-5.28 3.85.79 4.1-1.37 4.95-2.79 3.12.29 5.78-2.79 3.39 4.55 1.84 7.3 13.54 6.39 8.99 2.49-3.73 6.3 8.35 1.97.18 6.07 9.59 5.19-1.92-4.34-5.1.53-3.18-2.35-5.71 1.89-4.47-1.07-6.76 2.44-2.29-2.17-1.36-2.39-10.78-3.98-2.55 1.05-6.59-5.35-1.69-2.29-3.04-.7-6.32-1.69-2.21.34-4.36z" /><path d="m218.83 242.72l-6.55-.9-4.13 2.19-5.58-2.24-3.34 1.65-3.61-4.12-3.7-1.66 2.65-2.69.83-4.09-3.07-2-2.94-12.4.88-6.05-4.06 5.76-6.56 2.84-4.4-1.9-9.16.94-1.57 1.73-2.34 9.47-3.08 7.28-5.59-.24-.26 4.82-2.24 2.74.97 4.26 4.21 8.33-1.79 3.91 3.39-.44 5.24 1.34 1 3.48 3.61-.06-.37 3.99 1.87 5.51 2.65.73 4.94-3.36 5.1 3.34 2.26 3.34 4.32-1.07 1.27-3.08 3.34-.7 3.18-2.75 2.97 2.46 3.02-1.83-1.06-5.98.52-6.6 2.9-6.56 7.29-2.25 4.55 1.57 2.69-2.9-.25-5.81z" /><path d="m140.79 429.85l-1.13 5.22 1.1 3.81-2.29 2.85 2.1 1.98-2.1 3.27-4.14 1.84-2.19 3.28-3.76.86-1.86 3.55.2 4.51-5.66 5.18-4.18-1.11-.83 6.09-3.73 3.13 7.96 2.81 2.16 2.21 11.28-.25 4.46 1.68 6.97-.45 3.02-2.03 4.79 2.18 5.02-1.47 7.51.71 11.24 4.12 11.47 1.43 4.63 2.02 19.81-3.41 3.16-1.64 5.18 2.96 3.07-.24-.28-7.76 3.86 2.14-.32-6.56-3.59-.68-3.12-4.56-3.46-1.95-4.59-4.78-6.54-1.72-2.6-5.73 2.24-4-3.79-4.12-2.97 2.87-9.45-8.2-2.35-.64-7.5 2.83-2.01-4.49-5.09-2.24-4.18 4.8-10.23.33 2.19-3.57-1.92-3.52-5.56 2.38-6.51-4.22-5.49-1.7z" /><path d="m267.83 352.74l-2.54-1.36-7.85 8.25-.19 2.99-3.91 2.59-2.3-1.97-3.23 1.83-5.06-1.26-5.82 7.4-1.28-4.9-7.64-.36.91 5.47-2.81 2.49 2.42 3.94-2.17-.04-4-4.07-5.2 1.5.94 3.42 3.16 3.15-3.06 6.16-3.93.97-4.92-1.46 1.04 4.35-2 4.48.25 3.07 4.11 2.35.21 2.08 7.26 2.69 2.74 6.94-1.6 3.83-4.26-1.62 2.78 6.21-1 3.71 3.55 4.93-2.18 2.36 1.46 1.92-2.52 3.82.5 3.79 3.7 3.8 7.19 2.69 2.72-2.82 5.77 2.55 3.91-2.72 5.6 3.05 3.01-2.34 3.44 1.4 8.23.9.69-2.31-2.7-4.12 2.07-1.93 4.16.35 2.53-1.6 1.3-9.41 3.74-2.37 3.93 1.49 9.72-1.74 5.05 1.49 4.96-4.63.1-3.22 7.99-8.05-1.95-5.4 3.62-6.67-2.85-2.38-2.62 2.3-10.26 1.31-3.65 1.44-.49 3.14-4.33-.27-9.59-4.73-2.88 2.44-1.07-4.76 4.89-3.53-2.78-5.1 1.22-5.82 3.77-1.68 2.25-7.64-3.46-5.81-.55-6.34-5.15-5.19-3.09-5.42z" /><path d="m171.43 282.01l-2.13 1.42 1.25 9.68 1.74 4.7-6.31 4.62-1.04 4.35-3.09 1.39-4.58-.23-2.92-2.46-3.99 6.1-1.41 5.83-2.88 2.05-.01 1.56 5.72 2.4 9.5 9.18-.44.98 5.6 1.38.01-1.57 4.97 1.1 2.5 2.3-1.42 2.75 8.12 3.95 3.13-5.34 8.13 2.69 4.46-2.85 5.95-6.23 6.93-1.6-.22-3.58-2.52-5.76-4.23-3.5-3.56-.07 1.38-2.46-2.68-2.19 6.27-6.2-3.59-4.44-2.37-.48-3.13-3.53-2.77.48-2.59-5.58-4.52-6.23-1.29 1.07-5.05-1.71-4.33-3.78-2.59-.19z" /><path d="m191.88 340.84l-8.13-2.69-3.13 5.34-8.12-3.95 1.42-2.75-2.5-2.3-4.97-1.1-.01 1.57-5.6-1.38-6.27 5.91-2.77 6.41-7.43 9.52-3.71 11.62 3.63 2.15 4.29-.12 6.02 6.36 4.24 1.45 1.46 8.51-3.34 4.09 3.81 4.97 4.7 5.52 6.45-4.59 9.94-5.75 5.51-1.26.76 2.19-2.38 2.88 2.55 2.81 5.67-1.81.93-5.46 6.64 3.37-.5 2.27 7.35 1.69 2-4.48-1.04-4.35 4.92 1.46 3.93-.97 3.06-6.16-3.16-3.15-7.18-3.04 1.21-2.74-6.99-1.92-7.98-8.81 2.5-2.9 1.08-4.24-8.86-14.17z" /><path d="m208.39 396.31l-7.35-1.69.5-2.27-6.64-3.37-.93 5.46-5.67 1.81-2.55-2.81 2.38-2.88-.76-2.19-5.51 1.26-9.94 5.75-6.45 4.59-4.7-5.52-6.16 6.58 5.62 4.15-4.42 8.27 4.72 11.35-4.36 3.18-3.43 5.34.05 2.45 5.56-2.38 1.92 3.52-2.19 3.57 10.23-.33 4.18-4.8 5.09 2.24 2.01 4.49 7.5-2.83 2.35.64 9.45 8.2 2.97-2.87 3.79 4.12-2.24 4 2.6 5.73 6.54 1.72 4.59 4.78 3.46 1.95 3.12 4.56 3.59.68.32 6.56-3.86-2.14.28 7.76 7.63-1.63 7.3 2.41 5.75-.25 9.35-5 2.43-4.89 8.48-1.26 6.58 1.87 1.28-2.07-3.57-1.73-.79-3.59-3.73-3.34-3.94-1.59 0-10.13 2.44-4.84-8.23-.9-3.44-1.4-3.01 2.34-5.6-3.05-3.91 2.72-5.77-2.55-2.72 2.82-7.19-2.69-3.7-3.8-.5-3.79 2.52-3.82-1.46-1.92 2.18-2.36-3.55-4.93 1-3.71-2.78-6.21 4.26 1.62 1.6-3.83-2.74-6.94-7.26-2.69-.21-2.08-4.11-2.35-.25-3.07z" /><path d="m160.77 394.45l-3.81-4.97 3.34-4.09-1.46-8.51-4.24-1.45-6.02-6.36-4.29.12-3.3 6.84.56 2.8 3.76 4.07-.97 2.82-5.73 3.24-2.01-3.98-3.03 2.9 3.55 4.16-4.3 3.49-2.83-2.26-3.42 1.71 2.98 2.09 5.2 7.48-2.97 5.86 1.45 2.36 4.2-1.98-.95 2.69 4.34 2.53 1.45 4.03-2.41 2.23.93 7.58 5.49 1.7 6.51 4.22-.05-2.45 3.43-5.34 4.36-3.18-4.72-11.35 4.42-8.27-5.62-4.15 6.16-6.58z" /><path d="m333.85 152.7l-3.83-3.04-5.05-.21-4.09 4.07-6.17-.72-1.2-3.84 3-3.44-3.42-5.16 1.61-4.45-1.21-1.32 1.97-3.96-5.34-4-4.6.79-3.92-1.32-7.41.03-4.63 1.99-3.56 3.15-9.97-4.78-7.74 1.83-3-3.24-7.06 1.44-1.81 2.99 1.55 3.74-8.36 6.49-2.28 4.84-3.77 2.87-5-1.57-.06 6.52-2.52 2.01-3.05 5.18-7.83 2.53 6.89-.21 5.37-3.29.9 1.47 14.63-2.41 2.83-2.01 3.87 1.37 3.4-1.46.5 2.12 2.32.71 1.86-2.84 4.68 2.76.99 2.6-.52-2.97 5.09-2.84 3.05 1 2.64-4.4 3.34 1.91 3.97 5.81 5.01-.68 6.41 5.07.95 4.59 3.33 3.84 4.59-3.28 2.81 1.76 3.92-.6 4.55 2.6 10.1-.5 4.96-4.11-1.42-.92 1.22-4.79-5.36-3.41 2.45-3.92-.58-2.39z" /><path d="m372.74 172.81l-4.07 4.3-6.99-2.74-9.53.95-3.43 3.94-.45-8.41-9.76-.58-.97-2.14-4.96 4.11-3.12 3.79.42 6.43-1.11 6.66-2.91 1.17-.27 7.62-1.15 2.16 2.82 6.67 5.25.91.97-2.97-1.44-3.53 7.38 1.34 2.19 5.49 5.92-4.88 3.16 2.46 9.31 1.75 2.16-4.54 2.17-1.17 7.07 1.75 3.31.69 3.77-1.35.36-3.17 4.34-2.68 3-5.92 3.99-1.03-1.7-.65-.32-5.16-4.93-1.68-1.7-3.82-3.5.09-5.28-5.86z" /><path d="m303.28 168.42l-.95-4.59-6.41-5.07-5.01.68-3.97-5.81-3.34-1.91-2.64 4.4-3.05-1-5.09 2.84.52 2.97 1.5 1.76 4.08 14.1 2.87.21 1.58-2.31 4.23 6.43 2.67-3.9 4.9 1.47 2.39 3.34 3.64-.18 4.3-2.48.86-4.92-3.81-2.96.73-3.07z" /><path d="m417.35 198.94l-3.4 2.1-3.9-.57-.28-2.04-5.18-4.22-3.5 2.92-5.04-1.49-2.41-4.12-3.47-1.63-3.99 1.03-3 5.92-4.34 2.68-.36 3.17-3.77 1.35-3.31-.69-.34 4.91 4.37 4-.23 4.24-3.3 4.54-3.83 1.71.93 5.31-8.78 11.01-1.44 7.52 3.58 2.39-.17 4.35 8.68.13 2.39-1.46 7.1-.01 3.19-1.52 5.04 1.9 7.04.53 5.07 4.55 2.88-.74 5.65 3.69 1.38 2.33 8.36-3.31 4.45 2.63 5.91-.73 10.68.98 2.37-1.45 1.97 1.87 4.71-.51 4.87-4.02-2.8-.2-2.5-3.8.69-3.38-4.29-6.45-3.14-2.21 7-1.57-.07-4.15 2.22-5.06 2.08-9.61-4.54.68-6.97-1.77-.28-3.61 4.53-2.41-.05-3.32-3 2.43-4.2.11-2.14 4.17-2.35-2.23 4.2-5.67-.78-4.57-2.34-.89.57-3.02-2.16-.96-5.95 2.01-4.34-2.98-1.78 1.39-4.19-2.18z" /><path d="m332.51 207.65l-5.25-.91-2.82-6.67 1.15-2.16.27-7.62-2.8 1.25-.69 4.06-7.02-1.08-4.91 1.99-2.52 2.77-3.18-.51-6.21 3.21-4.45.05-4.24 4.94-2.21 8.05-4.52 3.66-6.59 2.01.52 4.51-3.02 2.21-2.89 5.41-4.89-1.65-3.9 3.06-1.32 3.4 4.18 2.13 4.01-.31 3.12 4.74 6.33-4.21.23-1.3 7.3 4.62 2.01-.77 3.73 3.13 3.71.67 5.02 3.6 5.2 9.48 6.46-1.45.95 1.73 2.5-.98 4.19 1.74.46-5.39 2.16-3.61 4.16-1.62 2.44-4.12-4.76-5.21 1.84-5.84 1.28-10.18 1.53-5.75.34-6.25 2.92-2.21.18-2.62z" /><path d="m396.36 146.28l-3.24-7.37-.02-3.66-2.5-7.42.45-6.24-6.33-3.31-1.31-5.55-3.39.61-.29 2.18-4.38 1.01-1.6 3.61-3.93 1.11-1.3 6.04-6.28.93-4.93-1.23-6.83 4.64-2.85 12.59-3.04.14-1.68 2.59 1.26 4.23-6.03 1.61-4.29-.09.58 2.39-2.45 3.92 5.36 3.41-1.22 4.79 1.42.92.97 2.14 9.76.58.45 8.41 3.43-3.94 9.53-.95 6.99 2.74 4.07-4.3 3.76-5.43 5.62-2.42 6-7.32 6.14-3.72 3.91-3.71-1.81-3.93z" /><path d="m371.4 203.35l-7.07-1.75-2.17 1.17-2.16 4.54-9.31-1.75-3.16-2.46-5.92 4.88-2.19-5.49-7.38-1.34 1.44 3.53-.97 2.97-.18 2.62-2.92 2.21-.34 6.25-1.53 5.75-1.28 10.18-1.84 5.84 4.76 5.21-2.44 4.12-4.16 1.62-2.16 3.61-.46 5.39 12.07-.61 10.7-1.49 2.65 2.51-1.06 4.98 4.81.3 2.51-1.27 2.8-5.49 2.69-.5 5.06-5.55.17-4.35-3.58-2.39 1.44-7.52 8.78-11.01-.93-5.31 3.83-1.71 3.3-4.54.23-4.24-4.37-4 .34-4.91z" /><path d="m313.27 259.69l-.95-1.73-6.46 1.45-5.2-9.48-5.02-3.6-3.71-.67-3.73-3.13-2.01.77-7.3-4.62-.23 1.3-6.33 4.21-3.63 1.69-.41 3.76 1.61 2.98-1.79 2.77-.27 7.02 6.67 6.23 3.6 1.82-.55 4.23 4.22 5.08 1.8 5.34 4.14-3.69 4.15-.71.86 3.79 4.93 2.1 1.84-1.35 7.54.66 2.18-3.72.88-4.67-2.98-2.6 2.94-9.67 3.21-5.56z" /><path d="m417.35 198.94l.89-5.94 2.6-1.91 1.29-4.32 4.21-1.55-1.5-3.95-2.05-.26 1.74-5.22-1.05-4.76 1.49-4.36-1.32-2.68.17-6.62-5.99.17-3.79 4.02-1.75-1.95-7.29-3.36-2.58-.06 2.67-5.17-.69-4.64-4.14 1.93-3.9-2.03 1.81 3.93-3.91 3.71-6.14 3.72-6 7.32-5.62 2.42-3.76 5.43 5.28 5.86 3.5-.09 1.7 3.82 4.93 1.68.32 5.16 1.7.65 3.47 1.63 2.41 4.12 5.04 1.49 3.5-2.92 5.18 4.22.28 2.04 3.9.57 3.4-2.1z" /><path d="m690.78 215.33l-.44-1.88 4.24-.19 1.59-9.08 6.28-7.51-5.88-7.04-1.28-3.21-2.2.34-1.05-3.83-2.32-1.67-3.43 4.25 2.06 10.09-3.31-1.47-4.67-8.41-3.03 2.24 1.18 2.25-3.85 3.73-4.45.11.63 3.32-2.18 1.4-.23 5.16-3.75 3.45.14 7.9-4.11 6.9 3.17 4.64-2.52 4.88 4.03 4.66-.08 4.57 5.63 5.63 3.6-1.99-1.52-2.51 5.08-2.39 3.14-3.17-.84-6.12 3.52-1.69 3.16-3.09-.09-5.98 3.78-4.29z" /><path d="m273.34 160.93l-.99-2.6-4.68-2.76-1.86 2.84-2.32-.71-2.22 1.15 1.42 12.74 3.81 8.82-6.74 3.56 2.42 3.5-1.46 12.77 1.64 4.03-4.65 2.21-4.96 5.06 2.46.24 2.96 3.27-.76 10.02-4.46 5.01-8.4 2.56-1.99 3.73-4.48 1.12.93 3.2 4.11.57 2.54.85 8.8-6.39 1 3.05 5.56-1.14 1.32-3.4 3.9-3.06 4.89 1.65 2.89-5.41 3.02-2.21-.52-4.51 6.59-2.01 4.52-3.66 2.21-8.05 4.24-4.94 4.45-.05 6.21-3.21 3.18.51 2.52-2.77 4.91-1.99 7.02 1.08.69-4.06 2.8-1.25 2.91-1.17 1.11-6.66-.42-6.43 3.12-3.79-10.1.5-4.55-2.6-3.92.6-2.81-1.76-4.59 3.28-3.33-3.84-.73 3.07 3.81 2.96-.86 4.92-4.3 2.48-3.64.18-2.39-3.34-4.9-1.47-2.67 3.9-4.23-6.43-1.58 2.31-2.87-.21-4.08-14.1-1.5-1.76z" /><path d="m357.13 258.88l-2.69.5-2.8 5.49-2.51 1.27-4.81-.3 1.06-4.98-2.65-2.51-10.7 1.49-12.07.61-4.19-1.74-2.5.98-3.21 5.56-2.94 9.67 2.98 2.6-.88 4.67-2.18 3.72.86 9.33 2.92 4.24 4.44 3.49 3.77 4.9 4.14 2.75 6.37-.69 4.3-3.58 3.26 2.91-1.34 3.61 4.5.54 3.94-3.09 2.43 1.94 3.48-2.45 7.03-1.57 3.98 1.81 7.91-1.1 2.3-1.9-1.94-3.58 5.23-4.32.88-3.8-3.94-5.96-2.17.1.37-3.59-3.18-.34-4.92-6.95-1.21-5.92 3.07-3.48-1.94-6.79-4.45-3.54z" /><path d="m300.6 324.63l-4.21-1.65-5.76 5.56-2.11 5.23-3.72-.55-.93 2.78-6.11 1.34.1 1.61 7.63 3.15-1.73 4.87-2.79 1.62-3.61-.84 1.59 2.4-2.82 1.11-5.64-3.83-2.66 5.31 3.09 5.42 5.15 5.19.55 6.34 3.46 5.81 4.63-1.62 2.74 1.27 5.19-5.16 1.89.15-2.05-3.99 3.41-5.22.55-4.19 5.1-3.78 2.39-2.38-.98-5.52 1.84-3.02-1.61-1.39 2.8-12.26-3.8 1.93-1.58-5.69z" /><path d="m444.35 262.72l-1.97-1.87-2.37 1.45-10.68-.98-5.91.73-4.45-2.63-8.36 3.31-1.38-2.33-5.65-3.69-2.88.74-5.07-4.55-7.04-.53-5.04-1.9-3.19 1.52-7.1.01-2.39 1.46-8.68-.13-5.06 5.55 4.45 3.54 1.94 6.79-3.07 3.48 1.21 5.92 4.92 6.95 3.18.34-.37 3.59 2.17-.1 3.94 5.96-.88 3.8-5.23 4.32 1.94 3.58 1.82 3.27 6.17-1.05 7.3 2.13 2.04 1.87 4.78.78-1.13 3.67 4.62 1.5 4.27-3.19 6.52-2.21-2.61-2.6.93-2.04 4.28-1.11 1.46-2.87 4.21-.42 1.54-3.5 6.93-7.29 2.07.68 1.86-4.47.62-2.85 3.12 1.06 3.4-1.31 4.32 1.47 8.83-4.75 7.8 1.31-.04 2.62 7.38 2.13 3.02-2.74 3.48 1.35.74-5.74 6.31-5.04 1.27-5.24 2.65-.57-2.67-2.38-7.98-3.65-1.39-1.7-2.62 3.72-11.67-2.66-7.04-.9-3.57-1.61z" /><path d="m396.93 319.22l-4.62-1.5 1.13-3.67-4.78-.78-2.04-1.87-7.3-2.13-6.17 1.05-6.47 3.41-3.4 5.4-5.94-2.94-3.97 2.88-3.46-.49-1.68 3.05 5.83 3.65-.33 3.3-4.19-.43-1.02-3.64-3.62-.5-2.01 7.68.32 4.38-1.62 3.42-5.18-.31-.78 3.32 2.22 3.22 3.13.86-.78 4.89 7.63 3.09 2.24 8.76 2.42 1.66 3.29-2.95-.21-4.59-3.01-6.03 4.29-1.61.12-3.54-4.08-3.01 9.34 1.71 2.07-4.21 1.67 3.04 5.41-2.76.79-3.2 3.83-.96 2.17-2.64 3.47-.67 1.61 1.69 3.4-.29 2.52 4.44 4.61-8.67 3.27-2.39 4.75-.46 1.52-3.6-6.39-5.06z" /><path d="m333.04 368.38l-7.75-7.04-1.88 1.45-4.53-1.18-1.01-5.95-3.91.63-5.29-2.9-1.18-3.68-5.95 3.25-5.1 3.78-.55 4.19-3.41 5.22 2.05 3.99-1.89-.15-5.19 5.16-2.74-1.27-4.63 1.62-2.25 7.64-3.77 1.68-1.22 5.82 2.78 5.1-4.89 3.53 1.07 4.76 2.88-2.44 9.59 4.73 4.33.27.49-3.14 3.65-1.44 10.26-1.31 2.62-2.3 3.48-4.37 5.54 3.22 2.41-3.71 3.91 3.3 2.33-4.5 2.24.32 6.2-4.06-2.27-2.69-1.7-5.13 1.92-4.94-.12-3.3 3.18-1.6.3-2.56z" /><path d="m383.25 335.25l-1.61-1.69-3.47.67-2.17 2.64-3.83.96-.79 3.2-5.41 2.76-1.67-3.04-2.07 4.21-9.34-1.71 4.08 3.01-.12 3.54-4.29 1.61 3.01 6.03.21 4.59 1.74 5.04 3.91 2.2-1.37 4.57 3.43-.99 1.34 4.84 3.96 4.55.63 5.6 5.14-.85 2.63 3.44-3.05.56.42 7.8-1.31 3.54 5.05-1.03 7.81-6.51 5.34 2.82.26 3.83 2.06 3.41 4.08.78 2.13-2.73 3.49.56 5.72 6.59-3.4 3.64 1.55 2.48 3.86-2.96 3.21 1.52 2.14-1.24 3.91 1.35.65-6.99 4.32-1.25 2.49-8.98-3.49-1.86-.09-5.8-3.29-2.46.21-2.96-3.21-6.25 1.39-6.09-3.62-4.49-4.53-.68-2.91 2.4-4.33-.5-1.21 3.21-9.26-.02-3.55-7.28 1.39-2.21 2.38 1.73 0-3.85-6.92-5.81-2.31-3.48 2.07-1.54-1.41-3.73 1.35-4.24-3.33-6.46z" /><path d="m415.82 367.71l1.02-1.99 6.29 1.84 4.15-1.64-.21-7.33-2.57-3.72 1.86-2.62-2.38-5.02-5.34-7.06-2.3-.29 1.83-4.47 3.03.64 3.13-2.77.62-4.05-5.15-3.64-2.35-4.35-4.22-2.38-.5-2.05-5.01-2.99-6.52 2.21-4.27 3.19 6.39 5.06-1.52 3.6-4.75.46-3.27 2.39-4.61 8.67-2.52-4.44-3.4.29 3.33 6.46-1.35 4.24 1.41 3.73-2.07 1.54 2.31 3.48 6.92 5.81 0 3.85-2.38-1.73-1.39 2.21 3.55 7.28 9.26.02 1.21-3.21 4.33.5 2.91-2.4 4.53.68z" /><path d="m470.32 288.49l-3.48-1.35-3.02 2.74-7.38-2.13.04-2.62-7.8-1.31-8.83 4.75-4.32-1.47-3.4 1.31-3.12-1.06-.62 2.85 3.34 2.99 6.4 1.62 1.49 9.06 3.56 3.6-1.17 5.58 1.96 1.37-.32 3.35 3.1 3.84-2.29.99 4.66 2.87 1.02 3.99 4.63 2.84 1.14 3.63-3.82.31-.1 4.28 2.95 2.8 4.33-4.59 2.86 2.38-1.93 2.69-.19 4.59 8.54 4.67.2 3.99 4.36 3.64-.14 2.78 5.02 1.85 2.16 4.6 7.89.13 1.85-3.1 3.9-1.5 2.55 1.13 6.82-8.67-1.03-2.04-4.87.35-3.46 2.7-8.38-1.9 1.1-1.89-4.74-1.71-.03-8.1 4.26-3.76.04-2.55 3.95-9.73-2.92-2.2-5.06-.79 1.15-2.5-1.38-8.08-3.26-6.51-6.97-6.47-3.66-1.5.32-5.94 3.7-3.19-1.6-3.61z" /><path d="m496.34 366.58l-2.55-1.13-3.9 1.5-1.85 3.1-7.89-.13-2.16-4.6-5.02-1.85.14-2.78-4.36-3.64-.2-3.99-8.54-4.67.19-4.59 1.93-2.69-2.86-2.38-4.33 4.59-2.95-2.8.1-4.28 3.82-.31-1.14-3.63-4.63-2.84-1.02-3.99-4.66-2.87 2.29-.99-3.1-3.84.32-3.35-1.96-1.37 1.17-5.58-3.56-3.6-1.49-9.06-6.4-1.62-3.34-2.99-1.86 4.47-2.07-.68-6.93 7.29-1.54 3.5-4.21.42-1.46 2.87-4.28 1.11-.93 2.04 2.61 2.6 5.01 2.99.5 2.05 4.22 2.38 2.35 4.35 5.15 3.64-.62 4.05-3.13 2.77-3.03-.64-1.83 4.47 2.3.29 5.34 7.06 2.38 5.02-1.86 2.62 2.57 3.72.21 7.33-4.15 1.64-6.29-1.84-1.02 1.99 3.62 4.49-1.39 6.09 3.21 6.25-.21 2.96 3.29 2.46.09 5.8 3.49 1.86-2.49 8.98-4.32 1.25-.65 6.99 3.28 3.77-2.51 3.44 4.96-.21 6.05-6.64 7.67-1.93 3.02 2.25 3.85-2.97-1.43-1.17 9.63-6.99.24-5.94 7.04 1.68 2.77-2.71 3.39.02 1.99-3.54 5.72 4.16 5.78-1.89 1.97-5.85 2.91-1.5 1.6-4.54 6.48-7.67-1.09-2.42 2.72-4.24-.16-3.37z" /><path d="m355.78 362.03l-3.29 2.95-2.42-1.66 3.06 5.3-6.29 7.81.01 5.27 2.05 2.97-2.09.76-7.63-2.39-2.34-2.76.23-6.48-4.03-5.42-.3 2.56-3.18 1.6.12 3.3-1.92 4.94 1.7 5.13 2.27 2.69-6.2 4.06-2.24-.32-2.33 4.5-3.91-3.3-2.41 3.71-5.54-3.22-3.48 4.37 2.85 2.38-3.62 6.67 1.95 5.4-7.99 8.05-.1 3.22 5.77 4.66 4.44-2.83 2.33 1.63 3.01-1.45 8.43 3.39 2.99-.62 4.08 2.49 1.87-3.29 6.74-3.21 11.86.1 1.51 2.1 7.96-3.38 1.79 2.05 3.78-3.24.7-5.86 2.59-3.46.34-5.52 4.35-5.35 1.31-3.54-.42-7.8 3.05-.56-2.63-3.44-5.14.85-.63-5.6-3.96-4.55-1.34-4.84-3.43.99 1.37-4.57-3.91-2.2-1.74-5.04z" /><path d="m310.82 299.48l-5.32 3.96-.25 4.76-2.05 5.85 3.15 6.15-5.75 4.43 1.58 5.69 3.8-1.93-2.8 12.26 1.61 1.39-1.84 3.02.98 5.52-2.39 2.38 5.95-3.25 1.18 3.68 5.29 2.9 3.91-.63 1.01 5.95 4.53 1.18 1.88-1.45 7.75 7.04 4.03 5.42-.23 6.48 2.34 2.76 7.63 2.39 2.09-.76-2.05-2.97-.01-5.27 6.29-7.81-3.06-5.3-2.24-8.76-7.63-3.09.78-4.89-3.13-.86-2.22-3.22.78-3.32 5.18.31 1.62-3.42-.32-4.38 2.01-7.68 3.62.5 1.02 3.64 4.19.43.33-3.3-5.83-3.65 1.68-3.05 3.46.49 3.97-2.88 5.94 2.94 3.4-5.4 6.47-3.41-1.82-3.27-2.3 1.9-7.91 1.1-3.98-1.81-7.03 1.57-3.48 2.45-2.43-1.94-3.94 3.09-4.5-.54 1.34-3.61-3.26-2.91-4.3 3.58-6.37.69-4.14-2.75-3.77-4.9-4.44-3.49z" /><path d="m277.86 338.95l-5.1-.23-2.83-2.27-3.32-.13.79-6.02-5-3.06 1.42-8.12-2.89-8.11-3.81-5.08-7.03 8.59-.44 2.8-2.73-.68-6.64 2.79-4.36-1.86-2.96 3.89 3.11 5.35-3.43 3.91 5.58-.53 2.11 2.13-1.65 9.61 1.53 3.43-1.43 3.24 3.16.59 1.42 8.87-1.56 3.44-6.15 4.81 1.28 4.9 5.82-7.4 5.06 1.26 3.23-1.83 2.3 1.97 3.91-2.59.19-2.99 7.85-8.25 2.54 1.36 2.66-5.31 5.64 3.83 2.82-1.11-1.59-2.4 3.61.84 2.79-1.62 1.73-4.87-7.63-3.15z" /><path d="m307.04 285.91l-7.54-.66-1.84 1.35-4.93-2.1-.86-3.79-4.15.71-4.14 3.69-4.82 8.61-5.81 1.36-1.41 4.67-4.8 3.84-.06 4.51-2.27-1.53-7.29-.64 3.81 5.08 2.89 8.11-1.42 8.12 5 3.06-.79 6.02 3.32.13 2.83 2.27 5.1.23-.1-1.61 6.11-1.34.93-2.78 3.72.55 2.11-5.23 5.76-5.56 4.21 1.65 5.75-4.43-3.15-6.15 2.05-5.85.25-4.76 5.32-3.96-2.92-4.24-.86-9.33z" /><path d="m646.19 169.29l-5.73-4.7-3.62.09-4.05-4-4.78.41-3.86-2.86-7.57 6.83.39 1.92-4.88 3.07-5.1-5.61-3.7-2.16-1.51 2.53-2.28-1.25-6.51 1.76.6 3.17 6.42 6.06-1.46 2.27-6.19-.46-5.13 3.52-3.2 3.79-.56 4.48 3.1 5.93-2.94.19 1.7 4.56-1.59 5.06 3.36 3.44 4.93-1.35 2.76 2.19 5.58-1.65 3.55 4.94 3.7 2.96 4.35 4.48 5.66 2.92 5.65 1.43.03 3.88 2.08 1.74.98-2.69 5.04 4.3 2.52-.63 1.77-2.55 5.14-.04 3.62-4.49 1.97-.4 3.61 4.2 3.31.17 1.36-3.23-3.47-1.57.82-3.34-3.72-.84.07-3.21 6.26-4.01-1.25-4.38-2.63-3.02 1.43-3.23-6.08-4.91-.74-4.69-1.48.83-5.32-3.93 4.15-4.09-7.23-4.18 5.67-1.56 5-8.09z" /><path d="m690.78 215.33l-3.78 4.29.09 5.98-3.16 3.09.31 6.62 3.61 7.95-3.82 6 3.22 2.58-1.4 2.87 1.17 4.01 3.46 4.19-.82 4.72-2.98 3.45 1.32 6.59 4.63-.49 1.55 2.66 1.92-1.41 5.15 1.08 7.96 4.39.95 4.32 5.2.49-.08 1.6 6.34.15 4.68-1.25 8.14.76-.25-9.17 4-.77.58-2.32 4.46-4.89-5.56-2.07-.76-3.36-3.83 4.57-3.19-2.36-3.34.57-3.39-2.57-2.45.5-1.07-2.95 4.62-3.22.89-5.68 3.4.19 4.13-3.77-1.57-2.31.03-4.39 5.29-3.19-.78-4.1-2.94-1.38-.13-6.35 3.48-1.95.16-3.56 3.73-6.26-1.27-2.51-4.98-.91-1.32 4-5.33 8.41-6.23 2.71-6.09-.54-1.24 5.82-2.16.51-1.96-3.08-5.09 2.52-8.63-7.68-3.33-4.12.4-4.22-1.94-4.76z" /><path d="m622.7 312.78l-3.51-.42-2.25-2.38-4.01 1.81-5.34 8.82 4.04 2.34.79 3.23 4.96-1.05 5.93.24 4.02 2.19-.82-6.74-2.74-3.31-1.07-4.73z" /><path d="m510.15 165.4l-2.24-1.82-1.21 2.47-3.72-.01-.93-3.25-1.57 1.91-4.94-1.27-1.19 2.88.37 7.66-1.76 1.65-2.36-1.84-3.48.94-6.23-1.57-3.85 2-1.38 2.64-.38 3.59 2.02 3.99 3.06 2.26 2.47-1.87 9.94 1.67-.09 4.76 2.43 7.8 4.06 1.72-1.69 9.25-3.76 1.17-2.91 3.37-3.32-1.81-1.76 4.27 7.56 8.78 5.01 1.94-2.45 2.48 4.41 6.84 8.58 2.93 4.03-4.17 3.11 2.99 5.51-2.99-1.27-.84 2.44-4.48-1.02-1.47 7.25-4.96 6.45-7.46-2.99-2.23.26-4.14-2.9-6.05-9.18-6.69-3.17-4.89.86-4.84-1.28-7.3-8.82 5.36-3.5-2.45.16-2.93 2.9-4.57 2.02-8.05 2.54-1.19-2.09-2.18z" /><path d="m536.72 217.01l-1.38.54-6.45 7.46-7.25 4.96 1.02 1.47-2.44 4.48 1.27.84-5.51 2.99-3.11-2.99-4.03 4.17-.67 3.46-1.7-2.13.11 5.28 3.22 1.18 1.07 4.26 4.69-4.09 1.33-4.74 1.94.01-.94 3.99 5.02 3.43 1.45 2.82 5.73-1.35 1.65 5.59 5.84-.86.63-3.1 5.3-1.55 2.22 3.17 2.7-1.95 1.61 2.42 1.46-6.47 6.23 2.55 2.61 3.69 4.88-.9 1.53-4.68-2.11-1.86 1.97-3.4 3.13-10.52-5-2.83-4.86 1.94-3.87-6.17-4.46-.81-1.88-3.12-6.14-.37-6.81-6.81z" /><path d="m733.7 215.76l-9.57-4.14 1.2-7.12-.9-4.44-3.06-2.38-4.13-5.81-2.11-6.72-7.7-.48-3.63-5.02-2.34.87-2.19-4.69-5.15 1.68-2.08 5.42 1.05 3.83 2.2-.34 1.28 3.21 5.88 7.04-6.28 7.51-1.59 9.08-4.24.19.44 1.88 1.94 4.76-.4 4.22 3.33 4.12 8.63 7.68 5.09-2.52 1.96 3.08 2.16-.51 1.24-5.82 6.09.54 6.23-2.71 5.33-8.41 1.32-4z" /><path d="m508.84 240.93l-8.58-2.93-4.41-6.84 2.45-2.48-5.01-1.94-7.56-8.78 1.76-4.27 3.32 1.81 2.91-3.37 3.76-1.17 1.69-9.25-4.06-1.72-2.43-7.8.09-4.76-9.94-1.67-2.47 1.87-3.06-2.26-2.02-3.99.38-3.59-3.88 4.93-.9-3.45-2.92 4.62-.45 4.01-4.07 5.2-.23 5.66-2.14 2.99-.24 5.76-1.54.12-7.29-5.2-1.37-3.92-3.49-2.65-8.35-1.36-2.22.87-.36 3.61-2.6 1.72 2.16.96-.57 3.02 2.34.89.78 4.57-4.2 5.67 2.35 2.23 2.14-4.17 4.2-.11 3-2.43.05 3.32-4.53 2.41.28 3.61 6.97 1.77 4.54-.68-2.08 9.61-2.22 5.06.07 4.15-7 1.57 3.14 2.21 4.29 6.45-.69 3.38 2.5 3.8 2.8.2-4.87 4.02-4.71.51 3.57 1.61 7.04.9 11.67 2.66 2.62-3.72 1.39 1.7 7.98 3.65 2.67 2.38 2.93-.16 1.16-4.81 4-.62 2.67-4.02-2.42-2.69-3.66-.46 5.13-5.76 13.37-6.7 2.11.86-.11-5.28 1.7 2.13.67-3.46z" /><path d="m633.93 229.85l-2.52.63-5.04-4.3-.98 2.69-2.08-1.74-.03-3.88-5.65-1.43-5.66-2.92-4.35-4.48-1.65 3.89 3.03 4.33 4.81 11.19-2.91 2.86-4.35.35.32 2.45-3.67-.5-3.94 3.92-6.34-.09.86 4.88-8.52-8.42-3.3-5.76-7.16 1.53-2.55-2.44-2.51 2.57-3.13 10.52-1.97 3.4 2.11 1.86-1.53 4.68 2.83 2.67 2.8.03 3.94 3.57 4.95-2.16.38 4.78 3.05 2.67.39 3.59 5.49.45 2.64 2.02 5.39.6 1.98-1.3 3.1 1.45 3.3 5.26 2.23-2.76 3.51 2.96 4.89-.32.84 2.92-3.46 2.23.36 4 5.17 3.84 2.98-1.29 1.55-3.82 6.87.12 2.42-4.02-1.13-4.68 2.83-.82 2.8 2.71.82-4.42 1.13 4.43 2.71.43 4.69-2.03-1.38-9.15-2.71-7.38-5.3-7.24 2.47-1.38-1.52-2.72.77-4.33 5.46-3.9 1.46-4.26-2.52-3.3-9.47-5.24z" /><path d="m583.74 203.89l-6.27 4.18-4.63.38-5.57-1.33-3.44-3.6-10.17-1.08.12 2.37-4.43 5.25-6.16 5.26-2.5-1.55-3.97 3.24 6.81 6.81 6.14.37 1.88 3.12 4.46.81 3.87 6.17 4.86-1.94 5 2.83 2.51-2.57 2.55 2.44 7.16-1.53 3.3 5.76 8.52 8.42-.86-4.88 6.34.09 3.94-3.92 3.67.5-.32-2.45 4.35-.35 2.91-2.86-4.81-11.19-3.03-4.33 1.65-3.89-3.7-2.96-3.55-4.94-5.58 1.65-2.76-2.19-4.93 1.35-3.36-3.44z" /><path d="m768.75 287.53l1.7-3.03 3.65-1.44 1.28-9.69 5.87-8.6 1.16-3.45 5.94-.96 3.3-1.86-.82-3.14 1.83-1.77.6-10.16 1.74-1.71-3.52-1.49-5.42 1.66-5.81-3.87-5.72.17-6.16-9.45-4.28-.05-1.97 2.18-9.63-3.92-3.08 0 .85-5.79-2.61-1.09-2.82 2.32-4.88-3.21-3.73 6.26-.16 3.56-3.48 1.95.13 6.35 2.94 1.38.78 4.1-5.29 3.19-.03 4.39 1.57 2.31-4.13 3.77-3.4-.19-.89 5.68-4.62 3.22 1.07 2.95 2.45-.5 3.39 2.57 3.34-.57 3.19 2.36 3.83-4.57.76 3.36 5.56 2.07 5.07.52.58 4.31 2.85 8.57 6.08-.31 2.91-1.32 7.12 1.29.91 1.65z" /><path d="m583.47 188.15l-2.21-.79-5.29 2.38-2.64-2.04-1.71-4.03-4.02-4.78-3.82 2.55-3.65-3.02-2.66-5.04-3.34-.03-1.91-4.57 1.51-1.46-4.53-4.31-4.19-.25-6.77 3.51-4.13-2.59-1.65 4.74-3.57 2.48-8.48-4.04-4.42-4.53-5.53-1.12-.31 4.19 2.09 2.18-2.54 1.19-2.02 8.05-2.9 4.57-.16 2.93 3.5 2.45 8.82-5.36 1.28 7.3-.86 4.84 3.17 4.89 9.18 6.69 2.9 6.05-.26 4.14 2.99 2.23 1.38-.54 3.97-3.24 2.5 1.55 6.16-5.26 4.43-5.25-.12-2.37 10.17 1.08 3.44 3.6 5.57 1.33 4.63-.38 6.27-4.18 1.59-5.06-1.7-4.56 2.94-.19-3.1-5.93z" /><path d="m689.72 181.26l-.93-4.23-4.92-3.44-.21-2.41-3.19-1.73-2.04 1.39-3.52-1.44-3.39-6.26-4.05 2.31-5-1.45-4.25.99-2.44 3.51-2.6-2.49-2.36 2.75-4.63.53-5 8.09-5.67 1.56 7.23 4.18-4.15 4.09 5.32 3.93 1.48-.83.74 4.69 6.08 4.91-1.43 3.23 2.63 3.02 1.25 4.38-6.26 4.01-.07 3.21 3.72.84-.82 3.34 3.47 1.57-1.36 3.23-3.31-.17-3.61-4.2-1.97.4-3.62 4.49-5.14.04-1.77 2.55 9.47 5.24 2.52 3.3 2.87-.32 4.7 3.41 6.33-3.97 1.55-5.81 2.52-4.88-3.17-4.64 4.11-6.9-.14-7.9 3.75-3.45.23-5.16 2.18-1.4-.63-3.32 4.45-.11 3.85-3.73-1.18-2.25 3.03-2.24 4.67 8.41 3.31 1.47-2.06-10.09 3.43-4.25z" /><path d="m688 277.67l-1.32-6.59 2.98-3.45.82-4.72-3.46-4.19-1.17-4.01 1.4-2.87-3.22-2.58 3.82-6-3.61-7.95-.31-6.62-3.52 1.69.84 6.12-3.14 3.17-5.08 2.39 1.52 2.51-3.6 1.99-5.63-5.63.08-4.57-4.03-4.66-1.55 5.81-6.33 3.97-4.7-3.41-2.87.32-1.46 4.26-5.46 3.9-.77 4.33 1.52 2.72-2.47 1.38 5.3 7.24 2.71 7.38 1.38 9.15 1.5 3.02-.3 4.41 4.39 4.73 1.46 6.36 4.89.99 5.03 3.66 6.03-1.06 1.93 3.05 6.23.03 1.41-2.84 3.59 1.37-.01-1.25 6.38-1.76.76-3.17-1.84-3.33.85-2.98-1.37-4.98.4-7.33z" /><path d="m589.05 271.24l-5.49-.45-.39-3.59-3.05-2.67-.38-4.78-4.95 2.16-3.94-3.57-2.8-.03-2.01 1.71 1.51 6.02 2.89 3.97-3.51 3.65-3.15 5.82-4.71 1.96-12.57 2.57-5.23-5.01-5.49-1.59-1.52 2.14.35-8.97-2.3-.93-7.74 3.44-.98 5-7.34 8.35.27 4.01 2.59 4.06-.22 2.87 2.79 3.66 5.82-1.91 4.56 3.59-1.15 2.51.97 7.89 3.07.3 4.59 3.43 3.27.41 2.18-5.86-.18-3.06 2.31-1.93 8.22-2.37 5.39-8.16 1.73 1.84 6.17 1.82 6.91-2.75 4.59 1.95 3.89-1.47-.35-5.43 5.34-3.3-1.44-2.08 2.78-.9-1.38-4.56-2.6-1 1.8-3.96 1.3 1.54-.42-6.34z" /><path d="m620.68 297.5l-3.24-3.29-2.1 3.06-5.07 2.12-.43-3.08-6.29-4.08-2.81-3.61-2.84 3.09 1.68 4.01-2.52.89-.2 3.77 6.52 7.59 5.45 2.19 3.03-.79 1.07 2.42 4.01-1.81-.48-3.22 4.22-9.26z" /><path d="m612.93 311.79l-1.07-2.42-3.03.79-5.45-2.19-.83.44 3.64 7.14-2.85-.57 0 7.49-4.36.37.3-2.11-4.11 2.55.92 3.59-1.3 3.66 6.01.31 1.96 8.11 5.08 2.51 2.78-1.38-.9-8.74-2.59-3.54 3.35-2.56 1.94.94-.79-3.23-4.04-2.34 5.34-8.82z" /><path d="m622.7 312.78l.96-4.87-3.04-6.2.06-4.21-4.22 9.26.48 3.22 2.25 2.38 3.51.42z" /><path d="m646.67 278.75l-4.69 2.03-2.71-.43-1.13-4.43-.82 4.42-2.8-2.71-2.83.82 1.13 4.68-2.42 4.02-6.87-.12-1.55 3.82-2.98 1.29-5.17-3.84-.36-4 3.46-2.23-.84-2.92-4.89.32-3.51-2.96-2.23 2.76-3.3-5.26-3.1-1.45-1.98 1.3-5.39-.6-2.64-2.02.42 6.34-1.3-1.54-1.8 3.96 2.6 1 1.38 4.56-2.78.9 1.44 2.08-5.34 3.3.35 5.43-3.89 1.47-4.59-1.95-6.91 2.75-6.17-1.82-1.73-1.84-5.39 8.16-8.22 2.37-2.31 1.93.18 3.06-2.18 5.86 8.37 2.43 2.89 7.95-3.68-.26 1.72 5.05-2.36-.7.12 5.76 7.49-.93.45 3.07 2.87 3.48 5.39-1.65 2.35 4.61 2.86 1.05-.09 2.54 8.17-1.79 6.94 1.67 4.19 3.39-.61 2.01 3.07 2.12 2.3-.79 3.98-5.21 2.51.81 8.31-4.03 3.6 2.95 4.14 1.12 2.76-2.28.52-5.39 13.47.66 1.02-3.98 2.44-1.22 10.17 8.94 1.02-1.26-1.54-2.65 4.04-5.21-3.42-1.61 5.28-3.59 3.68-.07-6.25-8.25 1.75-5.46-.67-4.59 2.54-6.39-1.64-6.77.76-5.52-1.46-6.36-4.39-4.73.3-4.41-1.5-3.02zm-43.29 29.22l-6.52-7.59.2-3.77 2.52-.89-1.68-4.01 2.84-3.09 2.81 3.61 6.29 4.08.43 3.08 5.07-2.12 2.1-3.06 3.24 3.29-.06 4.21 3.04 6.2-.96 4.87 1.07 4.73 2.74 3.31.82 6.74-4.02-2.19-5.93-.24-4.96 1.05-1.94-.94-3.35 2.56 2.59 3.54.9 8.74-2.78 1.38-5.08-2.51-1.96-8.11-6.01-.31 1.3-3.66-.92-3.59 4.11-2.55-.3 2.11 4.36-.37 0-7.49 2.85.57-3.64-7.14.83-.44z" /><path d="m738.19 280.03l-4 .77.25 9.17-8.14-.76-4.68 1.25-6.34-.15.08-1.6-5.2-.49-.95-4.32-7.96-4.39-5.15-1.08-1.92 1.41-1.55-2.66-4.63.49-.4 7.33 1.37 4.98-.85 2.98 1.84 3.33-.76 3.17-6.38 1.76.01 1.25 1.26 2.12-1.08 4.73-6.21 1.45 2.65 4.86-.5 1.7 3.52 1.9.14 2.59 3.88 8.12 1.68 21.52 3.5 1.86-3.71 4.34 2.15 3.79-2.55 4.71 4.34-.33 1.72-3.88 7.43-2.97 10.16-.23 7.69-1.32 7.66 8.56 2.8-.29 3.43 6.12 2.91-15.78 1.51-10.74-1.74.6-.77-4.3-2.18.11-.21-8.22-7.19-6.21 2.35-5.79-3.83-12.28 4.83-1.21-1.76-1.1.82-6.42 3.96-3.74 4.56.32 3.2-11.06-1.06-5.97z" /><path d="m516.52 290.45l-6.39-2.81-5.39-7.03-8.78-2.6 3.19-4.49-2.01-5.42 4.61-2.07-5.31-.81-4.39-2.93-2.67 4.02-4 .62-1.16 4.81-2.93.16-2.65.57-1.27 5.24-6.31 5.04-.74 5.74 1.6 3.61-3.7 3.19-.32 5.94 3.66 1.5 6.97 6.47 3.26 6.51 1.38 8.08-1.15 2.5 5.06.79 2.92 2.2-3.95 9.73-.04 2.55-4.26 3.76.03 8.1 4.74 1.71-1.1 1.89 8.38 1.9 3.46-2.7 4.87-.35 1.03 2.04 5.89-5.07.76-9.11 4.16 1.59 1.42-3.31 5.39 2.06 8.04-2.91 1.45-1.87 3.48.58 4.08-1.83 12.04-.55-.12-5.76 2.36.7-1.72-5.05 3.68.26-2.89-7.95-8.37-2.43-3.27-.41-4.59-3.43-3.07-.3-.97-7.89 1.15-2.51-4.56-3.59-5.82 1.91-2.79-3.66.22-2.87-2.59-4.06z" /><path d="m768.75 287.53l-.91-1.65-7.12-1.29-2.91 1.32-6.08.31-2.85-8.57-.58-4.31-5.07-.52-4.46 4.89-.58 2.32 1.06 5.97-3.2 11.06-4.56-.32-3.96 3.74-.82 6.42 1.76 1.1-4.83 1.21 3.83 12.28-2.35 5.79 7.19 6.21.21 8.22 2.18-.11.77 4.3 1.74-.6 3.38-6.64 5.67-2.01 2.96-5.44 7.34-5.74 5.11-1.38 3.46-11.47-2.51-2.55.44-2.88 5.84-6.62-.7-8.26.55-4.78z" /><path d="m565.22 255.64l-4.88.9-2.61-3.69-6.23-2.55-1.46 6.47-1.61-2.42-2.7 1.95-2.22-3.17-5.3 1.55-.63 3.1-5.84.86-1.65-5.59-5.73 1.35-1.45-2.82-5.02-3.43.94-3.99-1.94-.01-1.33 4.74-4.69 4.09-1.07-4.26-3.22-1.18-2.11-.86-13.37 6.7-5.13 5.76 3.66.46 2.42 2.69 4.39 2.93 5.31.81-4.61 2.07 2.01 5.42-3.19 4.49 8.78 2.6 5.39 7.03 6.39 2.81-.27-4.01 7.34-8.35.98-5 7.74-3.44 2.3.93-.35 8.97 1.52-2.14 5.49 1.59 5.23 5.01 12.57-2.57 4.71-1.96 3.15-5.82 3.51-3.65-2.89-3.97-1.51-6.02 2.01-1.71-2.83-2.67z" /><path d="m682.83 302.47l-3.59-1.37-1.41 2.84-6.23-.03-1.93-3.05-6.03 1.06-5.03-3.66-4.89-.99-.76 5.52 1.64 6.77-2.54 6.39.67 4.59-1.75 5.46 6.25 8.25-3.68.07-5.28 3.59 3.42 1.61-4.04 5.21 1.54 2.65-1.02 1.26.91 4.47 2.18 3.03 4.89 1.04 4.96-.83 1.86 12.51 2.74 2.83 1.69 5.1-.36 4.01 5.13 2.73 2.59 6.27 5.73 2.52 4.52-.53 4.99 1.81.38-5.82 3.44 1.66 7.02-2.6 2.15 1.7 3.48-3.56 5.74.66 4.77-2.9 3.49 3.16 3.08-1.9 2.24 1.88 5.87-.2 2.09-2.93-1.65-4.95.69-5.98-3.43-6.12-2.8.29-7.66-8.56-7.69 1.32-10.16.23-7.43 2.97-1.72 3.88-4.34.33 2.55-4.71-2.15-3.79 3.71-4.34-3.5-1.86-1.68-21.52-3.88-8.12-.14-2.59-3.52-1.9.5-1.7-2.65-4.86 6.21-1.45 1.08-4.73-1.26-2.12z" /></g></g></svg>