<?xml version="1.0" encoding="utf-8"?><svg xmlns="http://www.w3.org/2000/svg" version="1.1" baseProfile="tiny" width="800" height="600" viewBox="0 0 800 600"><g><g stroke="#000000" stroke-width=".98" fill="#FFFFFF"><path d="m40.23 385l-5.26-2.39-1.46-2.11.46 1.55-1.07 5.04 5.89 1.46 1.67-.24-.23-3.31z" /><path d="m46.67 406.85l3.84-4.83-.53-1.46 1.78-3.45 4.1-1.46 3.97 2.91 1.48-3.28-2.53-1.74-.63-2.52-2.24-.89-.57-4.86-1.85-4.28 1.1-1.94-6.93.28-3.74 4.06-3.69 1.61.23 3.31-1.67.24 2.95 1.08.58 3.06-1.31 2.28 1.96 7.64 3.7 4.24z" /><path d="m55.22 376.56l-4.37-5.63-3.03-2.35-4.55-1.26-3.76.71-.78 3.04-3.91-.55-1.79 2.8-.44 3.58.92 3.6 1.46 2.11 5.26 2.39 3.69-1.61 3.74-4.06 6.93-.28.63-2.49z" /><path d="m43.78 366.41l-2.36.4-5.26-1.66-.92 2.79-3.85-2.38-.27-1.39-3.62.46-4.18-1.3-1.93-2.41-1.94-.32-2.11 5.51 1.75 2.96 1.39 7.48-.36 3.06 6.51 7.23 3.99.14 2.28.11 1.07-5.04-.46-1.55-.92-3.6.44-3.58 1.79-2.8 3.91.55.78-3.04 3.76-.71.51-.91z" /><path d="m30.62 386.98l1.47 6.69 2.51 2.46-2.79 2.56-.64 3.14 1.9 1.25-2.76 1.79 2.48 2.26-3.1 2.64 2.85 2.71 3.02-2.07 2.08 2.35 2.34.38 2.05 3.02 5.68-2.16 3.59 1.1 2.21-1.07-2.3-3.85-4.54-3.33-3.7-4.24-1.96-7.64 1.31-2.28-.58-3.06-2.95-1.08-5.89-1.46-2.28-.11z" /><path d="m78.86 316.19l-3.77-2.05-1.86-3.83-3.9-2.71 5.64-3.24 1.19-3.23 1.27.55 5.6-5.04.91-1.81-.6-4.23-2.16-3.35-3.08-1.7-5.22 9.13-1.85-.38-2.66 3.67-4.44 1.37-.09 2.76-15.49 2.73-2.23-3.53-2.22.65-5.13-1.64.71 1.79-10.41-.24-2.33.66.39 2.02-2.92.08-1.26 2.87-2.96-.05-1.17 1.57.06 3.43-2.29-.78-1.8 4.31-1.25-.35-4.75 5.3-.12 2.97 1.31 3.34-2 1.79.44 2.9-.99 2.54-2.43.24.97 6.61 3.77.58-.42 2.22 4.8 2.93-2.24 3.17 2.7 7.75 4.87 2.64 1.94.32 1.93 2.41 4.18 1.3 3.62-.46.27 1.39 3.85 2.38.92-2.79 5.26 1.66 2.36-.4 1.11-.62 3.28-5.5-1.46-4.06 1.68-3.15 1.69.84 2.28-2.53-.69-2.14 2.28-1.3-.93-2.37 1.45-3.71 1.97-1.45 3.78-.15 3.41-4.75.6-4.62 2.35.66 4.2-5.27 1.5-.26-1.46-2.21 1.94-2.94 2 .37 1.41-3.48 2.69-1.58z" /><path d="m89.15 358.8l-1.15-2.97 3.68-4.14.84-2.25-3.04-4.84-2.12.71-1.95-3.62-.1-3.82-2.2-.47.7-2.24-3.11-2.71 1.91-1.81-4.23-.4-1.79-2.94-4.31-1.27-1.5.26-4.2 5.27-2.35-.66-.6 4.62-3.41 4.75-3.78.15-1.97 1.45-1.45 3.71.93 2.37-2.28 1.3.69 2.14-2.28 2.53-1.69-.84-1.68 3.15 1.46 4.06-3.28 5.5-1.11.62-.51.91 4.55 1.26 3.03 2.35 4.37 5.63 2.26-.61-2.81-3.21 2.42-.77 3.06-2.74 8.2 1.41 4.3-2.76.77-4.96 2.85 1.26 5.31-3.95 2.36 2.08 5.21-3.51z" /><path d="m96.03 365l-6.88-6.2-5.21 3.51-2.36-2.08-5.31 3.95-2.85-1.26-.77 4.96-4.3 2.76-8.2-1.41-3.06 2.74-2.42.77 2.81 3.21-2.26.61-.63 2.49-1.1 1.94 1.85 4.28.57 4.86 2.24.89.63 2.52 2.53 1.74-1.48 3.28-3.97-2.91-4.1 1.46-1.78 3.45.53 1.46-3.84 4.83 4.54 3.33 2.3 3.85.57 2.22 5.34-5.85 3.55-1.09-1.04-3.5 2.28 1.51 6.12-6.08-1.34-.93-2.46 1.25-2.46-2.43 1.19-3.18-1.09-1.74 4.87 1.46 3.92-2.77 1.62.81 1.87-2.37-2.01-2.7 1.08-3.03 4.02 1.42-1.9 1.69 3.12.98 1.81 1.98 4.59-1.26 2.89-3.85 1.93.99 2.07-1.17 1.6-5.65-2.87-.76 3.12-3.9-6.29-2.58 1.64-3.53 4.78-4.97z" /><path d="m87.16 390.42l-4.59 1.26-1.81-1.98-3.12-.98 1.9-1.69-4.02-1.42-1.08 3.03 2.01 2.7-1.87 2.37-1.62-.81-3.92 2.77-4.87-1.46 1.09 1.74-1.19 3.18 2.46 2.43 2.46-1.25 1.34.93-6.12 6.08-2.28-1.51 1.04 3.5-3.55 1.09-5.34 5.85.39 2.33 3.8 1.84 3.59-.09 3.9 1.04 5.51 8.06 2.7 1.72 1.34 3.36 2.45 2.98 2.14 7.44 5.77 4.35 3.23.31 2.75 3.37.52 4.28 2.76 4.05 5.11-1.2 2.82 4.13 7.61 6.81 1.85 3.28 3.73-3.13-.6-1.82 1.43-4.27 4.18 1.11 1.35-2.39 3.18-1.03 1.13-1.76-.2-4.51 1.86-3.55 3.76-.86 2.19-3.28 4.14-1.84 2.1-3.27-2.1-1.98 2.29-2.85-1.1-3.81-1.11-.06-1.54-3.56-2.82-1.72-2.12-4.81-4.09-3.15-2.78-7.32-10.57-3.45.35-1.86-5.57-4.33-3.34-.38.11-3.71-2.9 3.87-.77-3.04-1.88.51-.31-2.46-3.59 1.39.34-3.35-2.71 1.48-1.45-1.91-3.28-1.39-.29-3.41-2.02.24-.16-2.23z" /><path d="m144.37 355.42l-1.98 1.22-2.57-3.28-2.85 1.32 1.13 4.01-3.58 1.01-3.84-4.22-1.58 4.78-6.19-.38-2.53 2.2 1.91 2.03-1.99 2.15-4.86.55-.56 2.01-6.27-.82-3.62 3.7-3.19 2-5.77-8.7-4.78 4.97-1.64 3.53 6.29 2.58-3.12 3.9 2.87.76-1.6 5.65-2.07 1.17-1.93-.99-2.89 3.85.16 2.23 2.02-.24.29 3.41 3.28 1.39 1.45 1.91 2.71-1.48-.34 3.35 3.59-1.39.31 2.46 1.88-.51.77 3.04 2.9-3.87-.11 3.71 3.34.38 5.57 4.33-.35 1.86 10.57 3.45 2.78 7.32 4.09 3.15 2.12 4.81 2.82 1.72 1.54 3.56 1.11.06 1.13-5.22-1.11-4.08.18-3.5 2.41-2.23-1.45-4.03-2.38-.48-1.96-2.05 1.91-1.04-.96-1.65-4.2 1.98-1.45-2.36 2.97-5.86-5.2-7.48-2.98-2.09 3.42-1.71 2.28.41.55 1.85 4.3-3.49-3.55-4.16 3.03-2.9 2.01 3.98.97-1.27 4.76-1.97.97-2.82-3.76-4.07-.56-2.8 1.91-1.46-1.02-1.59 2.41-3.79-3.63-2.15-.49-1.55 2.07-1.86.79-5.2 1.34-3.01z" /><path d="m146.07 319.46l-3.91.85.34 2.53-2.74 1.27-1.27-3.14-2.73-2.07.32 2.4-1.57 4.11-1.91.14-1.03 2.77-4.88-1.54-3.81-3.76 1.34 2.85-1.3 2.19.65 3.35-1.13 1.97 1.67 3.63 3.33.22.99 1.77-1.82 2.55.17 6.03-3.22 1.71-.27 2.24 4.3 1.74 3.09 2.21 3.84 4.22 3.58-1.01-1.13-4.01 2.85-1.32 2.57 3.28 1.98-1.22 7.43-9.52 2.77-6.41 1.67-1.08 3.89-5.24.71.41.44-.98-9.5-9.18-5.72-2.4.01-1.56z" /><path d="m131.08 285.76l-1.55-1.17-5.62 3.03-2.39.45-3.56-1.97-.57 2.03 1.04 3.3-6.61.77.48 4.04-2.17 2.06.69 2.67-1.54.02-1.26 3.94 2.74.27 2.17 3.86 4.66 6.32-.53.84 2.99 3.33.83-.69 2 4.16 3.81 3.76 4.88 1.54 1.03-2.77 1.91-.14 1.57-4.11-.32-2.4 2.73 2.07 1.27 3.14 2.74-1.27-.34-2.53 3.91-.85 2.88-2.05 1.41-5.83 2.22-1.91 1.77-4.19 2.92 2.46 4.58.23-.27-1.59 3.36.2 1.53-1.68-.49-2.67-2.12.04-.5-2.06-7.12-1.61-1.07-1.43-2.35.74-1.87-2.48-1.32 1.23-4.1-4.73-.65 2.82-5.29-.74-4.81-2.66-3.7-5.79z" /><path d="m105.51 293.9l-3.32-4.75-.26-3.67-3.22-3.93.78-2.17-1.64-1.41 2-5.07 2.29-1.63-1.73-2.55-.44-3.17-5.96-2.28-.77-3.67-6.53 2.55-2.66-1.61-1.69 3.84-3.79 3.98-8.97.84.06 4.6-5.44-1.06-4.66 1.43-1.15 2.61-3.39.41-.38-4.17-4.23 1.98-2.05-1.1-5.36 1.76-2.56-.48-2.05 1.91-3.69-.66-1.67 1.08-1.88-1.81-1.75 2.16-.15 4.43-2.31 4.46-2.32 1.17-1.23 3.17-.35 6.03 1.17 7.5 2.92-.08-.39-2.02 2.33-.66 10.41.24-.71-1.79 5.13 1.64 2.22-.65 2.23 3.53 15.49-2.73.09-2.76 4.44-1.37 2.66-3.67 1.85.38 5.22-9.13 3.08 1.7 2.16 3.35.6 4.23-.91 1.81-5.6 5.04-1.27-.55-1.19 3.23-5.64 3.24 3.9 2.71 1.86 3.83 3.77 2.05-2.03-1.73 1.91-.55.91-3.82 5.1-5 4.66 1.47 3.43-1.3.88 1.4 2.42-2.75-.09-1.56 3.67-1.32.29-1.56 4.1-5.3 1.4-.27z" /><path d="m90.64 253.79l-2.31-1.46-2.37.92-3.85-4.13-.95-2.91-2.15.14-3.46-3.8-4.22-1.95-7.09-2.17-5.92 5.69-5.95 2.08-1.56 5.42-2.55 3.8-6.14 3.27-1.01 2.47-6.7 8.63-.43 3.5-2.83 2.41 1.88 1.81 1.67-1.08 3.69.66 2.05-1.91 2.56.48 5.36-1.76 2.05 1.1 4.23-1.98.38 4.17 3.39-.41 1.15-2.61 4.66-1.43 5.44 1.06-.06-4.6 8.97-.84 3.79-3.98 1.69-3.84 5.4-2.83 1.19-3.92z" /><path d="m231.99 161.91l-6.89.21-2.78 1.67-7.59 1.66-.34 4.36 1.69 2.21.7 6.32 2.29 3.04 5.35 1.69-.77 1.1-.28 5.49 3.98 2.55.73 5.94 1.18.73.48 4.11 2.17 1.36-2.44 2.29 1.07 6.76-1.89 4.47 2.35 5.71-.53 3.18 2.34 1.61 2 3.49 3.02 1.54.25 4.09 4.48-1.12 1.99-3.73 3.25-1.7 5.15-.86 4.46-5.01.72-3.46.04-6.56-2.96-3.27-2.46-.24 4.96-5.06-1.95-2.29.35-3.88-2.85-.98.38-1.64-4.9-2.78-6.26-5.28-.24-3.18-2.07-1.48-1.57-9.02-3.89-6.27-.65-2.91-1.84-1.61-.23-3.25z" /><path d="m111.82 292.2l-2.14-1.67-4.17 3.37-1.4.27-4.1 5.3-.29 1.56-3.67 1.32.09 1.56-2.42 2.75-.88-1.4-3.43 1.3-4.66-1.47-5.1 5-.91 3.82-1.91.55 2.03 1.73-2.69 1.58-1.41 3.48-2-.37-1.94 2.94 1.46 2.21 4.31 1.27 1.79 2.94 4.23.4-1.91 1.81 3.11 2.71-.7 2.24 2.2.47.1 3.82 1.95 3.62 2.12-.71 3.04 4.84-.84 2.25-3.68 4.14 1.15 2.97 6.88 6.2 5.77 8.7 3.19-2 3.62-3.7 6.27.82.56-2.01 4.86-.55 1.99-2.15-1.91-2.03 2.53-2.2 6.19.38 1.58-4.78-3.09-2.21-4.3-1.74.27-2.24 3.22-1.71-.17-6.03 1.82-2.55-.99-1.77-3.33-.22-1.67-3.63 1.13-1.97-.65-3.35 1.3-2.19-1.34-2.85-2-4.16-.83.69-2.99-3.33.53-.84-4.66-6.32-2.17-3.86-2.74-.27 1.26-3.94 1.54-.02-.69-2.67 2.17-2.06-.48-4.04z" /><path d="m219.08 248.53l-2.69 2.9-4.55-1.57-7.29 2.25.05 2.05-2.95 4.51-.52 6.6 1.37 3.02-.31 2.96-3.02 1.83-2.97-2.46-.6 1.59-2.45-1.09-.13 2.25-3.34.7-1.27 3.08-4.32 1.07-2.26-3.34-3.93-1.77-1.17-1.57-1.28 2.16-3.66 1.2-1.18 5.11.82 2 2.59.19.01 2.11 2.2-.23 2.12 1.9 5.05 1.71 1.29-1.07 4.52 6.23 2.59 5.58 2.77-.48 3.13 3.53.19-4.2 2.41-.95 4.27 1.94 2.15-.93 1.44-2.46 4 .66 2.2 4.29 2.05-2.4.05-7.11 1.98-.09 1.51-2.03 1.82.19-1.56-3.84.88-2.55 3.8-1.13 1.61.66 3.58-2.36 1.41-6.43-1.3-.84-2.34-6.46 2.1-4.62-1.2-3.13-2.29-1.76-3.5-.74-1.4-5.71-2.48-.95z" /><path d="m234.81 231.86l-2.25 2.01-2.94-.09-3.54-2.29.77-1.25-3.3-6.05-1.97-.18-6.3-8.35-2.32.96-.17 2.77-2.5-2.55-1.09-3.11-2.57-.73-.23-2.6-5.57-9.8-1.75-.29.02-3.45-1.78-1.58-2.77-.26-1.73 1.77 1.79 3.5-1.69.78.37 4.46-3.02 4.88.45 3.23-1.33 2.82.41 3.72 1.91 4.47.62 4.21 3.07 2-2.09 2.09 1.26 2-2.65 2.69 1.72 1.99 1.98-.33 3.61 4.12 3.34-1.65 5.58 2.24 4.13-2.19 6.55.9 1.29-1.65 2.66 1.55 2.46-2.54 3.96 2.4.18 2.19 3.8 1.46 1.56 3.57 2.1-2.25 3.26-.3 3.02-5.89-4.11-.57-.93-3.2-.25-4.09-3.02-1.54z" /><path d="m263.49 157.7l-.5-2.12-3.4 1.46-3.87-1.37-2.83 2.01-1.48-1.52-1.49 1.79-11.66 2.14-.9-1.47-5.37 3.29.23 3.25 1.84 1.61.65 2.91 3.89 6.27 1.57 9.02 2.07 1.48.24 3.18 6.26 5.28 4.9 2.78-.38 1.64 2.85.98-.35 3.88 1.95 2.29 2.8-2.58 1.85.37-1.64-4.03.81-8.18-1.14-1.75 1.79-2.84-2.42-3.5 6.74-3.56.55-2.39-1.99-1.27-2.37-5.16-1.49-9.69.07-3.05 2.22-1.15z" /><path d="m121.65 250.8l-2.61-.01-1.24 2.53-2.91.57-2.44-1.8-.07 1.84-3.84 1.81-2.39-1.77-3.95-4.88-3.1-1.41-2.56 1.02-1.48 2.81-1.1-.73-3.32 3.01-1.19 3.92-5.4 2.83 2.66 1.61 6.53-2.55.77 3.67 5.96 2.28.44 3.17 1.73 2.55-2.29 1.63-2 5.07 1.64 1.41-.78 2.17 3.22 3.93.26 3.67 3.32 4.75 4.17-3.37 2.14 1.67 6.61-.77-1.04-3.3.57-2.03 3.56 1.97 2.39-.45 5.62-3.03 1.55 1.17 1.11-2.55-2.09-5.34 2.25-4.6-1.57-3.3-2.79-2.52-4.91.71 1.23-1.15-2.47-3.04-1.43-10 1.24-3.17z" /><path d="m153.51 236.29l-8.53-.55.02 1.78-4.01 2.58-2.9 4.2-4.97 3.83-1.63-.59-3.15 1.36-4.8-.59-1.89 2.49-1.24 3.17 1.43 10 2.47 3.04-1.23 1.15 4.91-.71 2.79 2.52 1.57 3.3-2.25 4.6 2.09 5.34-1.11 2.55 3.7 5.79 4.81 2.66 5.29.74.65-2.82 4.1 4.73 1.32-1.23 1.87 2.48 2.35-.74 1.07 1.43 7.12 1.61.5 2.06 2.12-.04 4.06-2.32 1.14.59 1.11-2.89-.24-3.52-1.5-1.18-1.25-9.68 2.13-1.42-.82-2 1.18-5.11-2.65-.73-1.87-5.51.37-3.99-3.61.06-1-3.48-5.24-1.34-2.6 2.12-.79-1.68 1.79-3.91-4.21-8.33-.97-4.26 2.24-2.74.26-4.82z" /><path d="m221.77 288.39l-1.82-.19-1.51 2.03-1.98.09-.05 7.11-2.05 2.4-2.2-4.29-4-.66-1.44 2.46-2.15.93-4.27-1.94-2.41.95-.19 4.2 2.37.48 3.59 4.44-6.27 6.2 2.68 2.19-1.38 2.46 3.56.07 4.23 3.5 2.52 5.76.22 3.58 3.44 1.75 6.97-1.66 4.08-3.85 4.04-1.39 5.21-3.55 1.19-.05 1.77-3.84-3.15-4.36-.64-4 1.38-1.77-4.45-4.76 2.74-1.03.46-7.16-.74-1.11-4.74.78-1.62-3.9-2.11.66-1.28-2.53z" /><path d="m235.65 366.31l1.51.37 1.48-3.68 3.16-1.5 1.56-3.44-1.42-8.87-3.16-.59 1.43-3.24-1.53-3.43-1.61.06 1.66-3.06 1.6-6.61-2.11-2.13-5.58.53 3.43-3.91-3.11-5.35-5.21 3.55-4.04 1.39-4.08 3.85-6.97 1.66-3.44-1.75-6.93 1.6-5.95 6.23-4.46 2.85.17 1.38 3.81 5.57 2.53 1.28-.27 2.26 2.62 3.68-1.08 4.24-2.5 2.9 2.27 2.13.49 2.65 1.53-1.34 1.88 2.56 1.84-.48-.03 3.29 5.79.98 1.2.94-1.21 2.74 7.18 3.04-.94-3.42 5.2-1.5 4 4.07 2.17.04-2.42-3.94 2.81-2.49-1.21-2.07 1.49-1.65-1.19-1.75 7.64.36z" /><path d="m261.02 237.63l-4.11-.12-1.45 1.26-1-3.05-3.53 3.06-5.27 3.33-2.54-.85-3.02 5.89-3.26.3-2.1 2.25-1.56-3.57-3.8-1.46-.18-2.19-3.96-2.4-2.46 2.54-2.66-1.55-1.29 1.65-.63 3.14.88 2.67 2.48.95 1.4 5.71 3.5.74 2.29 1.76 1.2 3.13-2.1 4.62 2.34 6.46 1.3.84-1.41 6.43-3.58 2.36-1.61-.66-3.8 1.13-.88 2.55 1.56 3.84 1.28 2.53 2.11-.66 1.62 3.9 4.74-.78.74 1.11-.46 7.16-2.74 1.03 4.45 4.76-1.38 1.77.64 4 3.15 4.36.22.99 4.14.87 4.85-1.41 1.79-1.38 2.73.68.44-2.8 7.03-8.59 7.29.64 2.27 1.53.06-4.51 2.87-1.35 1.93-2.49 1.41-4.67 3.58-.13 2.23-1.23 4.7-7.03.12-1.58-1.8-5.34-4.22-5.08.55-4.23-3.6-1.82.37-1.36-3.08-1.3-3.96-3.57.27-7.02 1.79-2.77-1.61-2.98.41-3.76 3.63-1.69-3.12-4.74-4.01.31-4.18-2.13z" /><path d="m214.73 165.45l-3.5-.44-5.26 1.28-.27 3.54-5.28 3.85-.81 4.02 1.6.08-1.37 4.95-2.79 3.12-.49 4.17.78 1.61-2.57 1.48-.22 1.91 2.77.26 1.78 1.58-.02 3.45 1.75.29 5.57 9.8.23 2.6 2.57.73 1.09 3.11 2.5 2.55.17-2.77 2.32-.96 6.3 8.35 1.97.18 3.3 6.05-.77 1.25 3.54 2.29 2.94.09 2.25-2.01-2-3.49-2.34-1.61.53-3.18-2.35-5.71 1.89-4.47-1.07-6.76 2.44-2.29-2.17-1.36-.48-4.11-1.18-.73-.73-5.94-3.98-2.55.28-5.49.77-1.1-5.35-1.69-2.29-3.04-.7-6.32-1.69-2.21.34-4.36z" /><path d="m218.83 242.72l-6.55-.9-4.13 2.19-5.58-2.24-3.34 1.65-3.61-4.12-1.98.33-1.72-1.99 2.65-2.69-1.26-2 2.09-2.09-3.07-2-.62-4.21-1.91-4.47-.41-3.72 1.33-2.82-.45-3.23-.41 1.75-3.65 4.01-6.56 2.84-4.4-1.9-2.16 1.02-3.26-.78-3.74.7-1.57 1.73-.45 3.75-1.37 1.55-.52 4.17-2.29 3.96-.79 3.32-2.32.85-3.27-1.09-.26 4.82-2.24 2.74.97 4.26 4.21 8.33-1.79 3.91.79 1.68 2.6-2.12 5.24 1.34 1 3.48 3.61-.06-.37 3.99 1.87 5.51 2.65.73 3.66-1.2 1.28-2.16 1.17 1.57 3.93 1.77 2.26 3.34 4.32-1.07 1.27-3.08 3.34-.7.13-2.25 2.45 1.09.6-1.59 2.97 2.46 3.02-1.83.31-2.96-1.37-3.02.52-6.6 2.95-4.51-.05-2.05 7.29-2.25 4.55 1.57 2.69-2.9-.88-2.67.63-3.14z" /><path d="m140.79 429.85l-1.13 5.22 1.1 3.81-2.29 2.85 2.1 1.98-2.1 3.27-4.14 1.84-2.19 3.28-3.76.86-1.86 3.55.2 4.51-1.13 1.76-3.18 1.03-1.35 2.39-4.18-1.11-1.43 4.27.6 1.82-3.73 3.13.95.88 7.01 1.93 2.16 2.21 3.64-.72 2.79 1.17 4.85-.7 4.46 1.68 6.97-.45 3.02-2.03 4.79 2.18 5.02-1.47 7.51.71 7.86 2.53 3.38 1.59 6 .3 5.47 1.13 4.63 2.02 11.79-1.82 2.62-1.06 5.4-.53 3.16-1.64 5.18 2.96 3.07-.24-.28-7.76 3.86 2.14-.86-3.4.54-3.16-3.59-.68-3.12-4.56-3.46-1.95-4.59-4.78-6.54-1.72-2.6-5.73 2.24-4-3.79-4.12-2.97 2.87-9.45-8.2-2.35-.64-7.5 2.83-1.9-2.1-.11-2.39-2.03-1.9-3.06-.34-2.67 1.81-1.51 2.99-3.86-1.21-.59 1.15-5.78.39.18-2.15 2.01-1.42-1.92-3.52-5.56 2.38-6.51-4.22-2.73.19-2.76-1.89z" /><path d="m267.83 352.74l-2.54-1.36-4.38 5.24-3.47 3.01-.19 2.99-3.91 2.59-2.3-1.97-3.23 1.83-5.06-1.26-2.42 1.53-.35 2.34-3.05 3.53.05-3.39-1.33-1.51-7.64-.36 1.19 1.75-1.49 1.65 1.21 2.07-2.81 2.49 2.42 3.94-2.17-.04-4-4.07-5.2 1.5.94 3.42 3.16 3.15.9 2.88-1.46.1-2.5 3.18-3.93.97-4.92-1.46-.51 2.48 1.55 1.87-2.21 2.37.21 2.11.25 3.07 4.11 2.35.21 2.08 7.26 2.69 1.25 1.44 1.49 5.5-1.6 3.83-4.26-1.62.89 3.86 1.89 2.35-1 3.71 1.11 3.16 2.44 1.77-2.18 2.36 1.46 1.92-2.52 3.82.5 3.79 3.7 3.8 2.38.31 4.81 2.38 2.72-2.82 5.77 2.55 3.91-2.72 5.6 3.05 3.01-2.34 3.44 1.4 7.14.09 1.09.81.69-2.31-2.7-4.12 2.07-1.93 4.16.35 2.53-1.6.94-2.53-.56-3.09 1.64-1.83-.72-1.96 3.74-2.37 3.93 1.49 2.44-1.32 2.34.8 4.94-1.22 5.05 1.49 4.96-4.63.1-3.22 2.55-3.02 2.82-1.79 2.62-3.24-1.95-5.4 3.62-6.67-2.85-2.38-2.62 2.3-10.26 1.31-1.63 1.79-2.02-.35-.49 3.14-4.33-.27-6.03-2.29-3.56-2.44-2.88 2.44-1.07-4.76 4.89-3.53-2.78-5.1 1.77-1.03-1.94-2.16 1.39-2.63 3.77-1.68.18-3.59 2.07-4.05-.75-3.11-1.68-.25-1.03-2.45-.55-6.34-5.15-5.19-3.09-5.42z" /><path d="m171.43 282.01l-2.13 1.42 1.25 9.68 1.5 1.18.24 3.52-1.11 2.89-1.14-.59-4.06 2.32.49 2.67-1.53 1.68-3.36-.2.27 1.59-4.58-.23-2.92-2.46-1.77 4.19-2.22 1.91-1.41 5.83-2.88 2.05-.01 1.56 5.72 2.4 9.5 9.18-.44.98 5.6 1.38.01-1.57 4.97 1.1 2.5 2.3-1.42 2.75 8.12 3.95 3.13-5.34 8.13 2.69 4.46-2.85 5.95-6.23 6.93-1.6-.22-3.58-2.52-5.76-4.23-3.5-3.56-.07 1.38-2.46-2.68-2.19 6.27-6.2-3.59-4.44-2.37-.48-3.13-3.53-2.77.48-2.59-5.58-4.52-6.23-1.29 1.07-5.05-1.71-2.12-1.9-2.2.23-.01-2.11-2.59-.19z" /><path d="m191.88 340.84l-8.13-2.69-3.13 5.34-8.12-3.95 1.42-2.75-2.5-2.3-4.97-1.1-.01 1.57-5.6-1.38-.71-.41-3.89 5.24-1.67 1.08-2.77 6.41-7.43 9.52-1.34 3.01-.79 5.2-2.07 1.86.49 1.55 3.63 2.15 4.29-.12 1.25 2.28 4.77 4.08 4.24 1.45 1.46 8.51-3.34 4.09 3.81 4.97 4.7 5.52 6.45-4.59 9.94-5.75-.04.89 5.55-2.15.76 2.19-2.38 2.88 2.55 2.81 5.67-1.81.93-5.46 2.24 2.1 4.4 1.27-.5 2.27 7.35 1.69-.21-2.11 2.21-2.37-1.55-1.87.51-2.48 4.92 1.46 3.93-.97 2.5-3.18 1.46-.1-.9-2.88-3.16-3.15-7.18-3.04 1.21-2.74-1.2-.94-5.79-.98.03-3.29-1.84.48-1.88-2.56-1.53 1.34-.49-2.65-2.27-2.13 2.5-2.9 1.08-4.24-2.62-3.68.27-2.26-2.53-1.28-3.81-5.57-.17-1.38z" /><path d="m208.39 396.31l-7.35-1.69.5-2.27-4.4-1.27-2.24-2.1-.93 5.46-5.67 1.81-2.55-2.81 2.38-2.88-.76-2.19-5.55 2.15.04-.89-9.94 5.75-6.45 4.59-4.7-5.52-6.16 6.58 5.62 4.15-4.42 8.27.62 2.75 2.42 3.59-.18 1.81 1.86 3.2-4.36 3.18-1.14 3.2-2.29 2.14.05 2.45 5.56-2.38 1.92 3.52-2.01 1.42-.18 2.15 5.78-.39.59-1.15 3.86 1.21 1.51-2.99 2.67-1.81 3.06.34 2.03 1.9.11 2.39 1.9 2.1 7.5-2.83 2.35.64 9.45 8.2 2.97-2.87 3.79 4.12-2.24 4 2.6 5.73 6.54 1.72 4.59 4.78 3.46 1.95 3.12 4.56 3.59.68-.54 3.16.86 3.4-3.86-2.14.28 7.76 3.69-1.59 3.94-.04 7.3 2.41 5.75-.25 6.4-2.84 2.95-2.16 2.43-4.89 8.48-1.26 6.58 1.87 1.28-2.07-3.57-1.73-.79-3.59-3.5-2.01-.23-1.33-3.94-1.59.4-6.69-.4-3.44 2.4-2.29.04-2.55-1.09-.81-7.14-.09-3.44-1.4-3.01 2.34-5.6-3.05-3.91 2.72-5.77-2.55-2.72 2.82-4.81-2.38-2.38-.31-3.7-3.8-.5-3.79 2.52-3.82-1.46-1.92 2.18-2.36-2.44-1.77-1.11-3.16 1-3.71-1.89-2.35-.89-3.86 4.26 1.62 1.6-3.83-1.49-5.5-1.25-1.44-7.26-2.69-.21-2.08-4.11-2.35-.25-3.07z" /><path d="m160.77 394.45l-3.81-4.97 3.34-4.09-1.46-8.51-4.24-1.45-4.77-4.08-1.25-2.28-4.29.12-2.41 3.79 1.02 1.59-1.91 1.46.56 2.8 3.76 4.07-.97 2.82-4.76 1.97-.97 1.27-2.01-3.98-3.03 2.9 3.55 4.16-4.3 3.49-.55-1.85-2.28-.41-3.42 1.71 2.98 2.09 5.2 7.48-2.97 5.86 1.45 2.36 4.2-1.98.96 1.65-1.91 1.04 1.96 2.05 2.38.48 1.45 4.03-2.41 2.23-.18 3.5 1.11 4.08 2.76 1.89 2.73-.19 6.51 4.22-.05-2.45 2.29-2.14 1.14-3.2 4.36-3.18-1.86-3.2.18-1.81-2.42-3.59-.62-2.75 4.42-8.27-5.62-4.15 6.16-6.58z" /><path d="m333.85 152.7l-1.9-.35-1.93-2.69-5.05-.21-1.47 2.93-2.62 1.14-4.8-1.27-1.37.55-1.2-3.84 3-3.44-1.71-4.39-1.71-.77 1.61-4.45-1.21-1.32 1.97-3.96-3.28-3.3-2.06-.7-4.6.79-3.92-1.32-3.7.62-3.71-.59-4.63 1.99-3.56 3.15-2.61-.62-1.78-2.15-4.34-.48-1.24-1.53-7.74 1.83-2.48-.47-.52-2.77-3.85.22-3.21 1.22-1.81 2.99 1.55 3.74-3.3 2.09-.37 1.47-4.69 2.93-2.28 4.84-2.75 1-1.02 1.87-5-1.57-.06 6.52-2.52 2.01-3.05 5.18-1.88 1.11-5.95 1.42 6.89-.21 5.37-3.29.9 1.47 11.66-2.14 1.49-1.79 1.48 1.52 2.83-2.01 3.87 1.37 3.4-1.46.5 2.12 2.32.71 1.86-2.84 4.68 2.76.99 2.6-.52-2.97 5.09-2.84 3.05 1 .19-2.08 2.45-2.32 3.34 1.91 3.97 5.81 5.01-.68 6.41 5.07-.47 3.47 1.42 1.12.97 2.7 2.36 1.14 1.48-2.18 3.11-1.1 2.81 1.76 3.92-.6 1.08 1.71 2.24-.88 1.23 1.77 6.26-.46.51-1.12 3.33 1.08.94.05 4.02-4.16-1.42-.92 1.22-4.79-2.97-2.71-2.39-.7 2.45-3.92-.58-2.39z" /><path d="m372.74 172.81l-4.07 4.3-6.99-2.74-4.78.58 0-1.09-4.75 1.46-3.43 3.94-.45-8.41-3.15-1.06-2.33 1.26-4.28-.78-.97-2.14-4.02 4.16-.94-.05-3.12 3.79.42 6.43-1.11 6.66-1.57 2.57-1.34-1.4-.96 2.39.69 5.23-1.15 2.16 2.82 6.67 2.49-.32 2.76 1.23.97-2.97-1.44-3.53 2.11-.71 2.02 1.85 3.25.2 1.27 1.84-.39 3.35 1.31.3 5.92-4.88 3.16 2.46 9.31 1.75 2.16-4.54 2.17-1.17 7.07 1.75 3.31.69 3.77-1.35.36-3.17 4.34-2.68 1.83-2.28 1.17-3.64 3.99-1.03-1.7-.65-.32-5.16-3.31-2.03-1.62.35-1.7-3.82-3.5.09-5.28-5.86z" /><path d="m303.28 168.42l-1.42-1.12.47-3.47-6.41-5.07-5.01.68-3.97-5.81-3.34-1.91-2.45 2.32-.19 2.08-3.05-1-5.09 2.84.52 2.97 1.5 1.76 4.08 14.1 2.87.21 1.58-2.31 4.23 6.43 2.67-3.9 3.22 1.75 1.68-.28 2.39 3.34 3.64-.18 4.3-2.48.86-4.92-1.61-2.29-2.2-.67.73-3.07z" /><path d="m417.35 198.94l-3.4 2.1-3.9-.57-.28-2.04-2.55-1.15-.88-2.67-1.75-.4-3.5 2.92-5.04-1.49-2.42-2.05.01-2.07-3.47-1.63-3.99 1.03-1.17 3.64-1.83 2.28-4.34 2.68-.36 3.17-3.77 1.35-3.31-.69-.34 4.91 2.66 3.39 1.71.61-.23 4.24-1.43.76-1.87 3.78-3.83 1.71.93 5.31-1.65 1.14-3.73 6.01-3.4 3.86-.25 4.92-1.19 2.6 3.58 2.39-.17 4.35 8.68.13 2.39-1.46 4.35-.65 2.75.64 3.19-1.52.81 1.15 4.23.75 1.79-.7 5.25 1.23 5.07 4.55 2.88-.74 2.94 2.62 2.71 1.07 1.38 2.33 8.36-3.31 1.75-.06 2.7 2.69 5.91-.73 7.01 1.05 3.67-.07 2.37-1.45 1.97 1.87 4.71-.51 4.87-4.02-2.8-.2-2.5-3.8.69-3.38-1.66-1.25-2.63-5.2-3.14-2.21.76-2.07 1.67.99 4.57-.49-.07-4.15 2.22-5.06.6-5.39 1.48-4.22-4.54.68-3.93-1.25-.44-1.96-2.6 1.44-.28-3.61 2.22-2.24 2.31-.17-.05-3.32-3 2.43-4.2.11-2.14 4.17-2.35-2.23 4.2-5.67-.78-4.57-2.34-.89.57-3.02-2.16-.96-2.07 1.6-3.88.41-1.44-1.97-2.9-1.01-1.78 1.39-4.19-2.18z" /><path d="m332.51 207.65l-2.76-1.23-2.49.32-2.82-6.67 1.15-2.16-.69-5.23.96-2.39-2.8 1.25-.69 4.06-7.02-1.08-2.15 2.25-2.76-.26-2.52 2.77-3.18-.51-3.29 1.88-1.61-.69-1.31 2.02-4.45.05-1.55 2.97-2.69 1.97-1.88 4.93-.33 3.12-4.52 3.66-4.65 2.06-1.94-.05.52 4.51-3.02 2.21-2.89 5.41-2.33.07-2.56-1.72-3.9 3.06-1.32 3.4 4.18 2.13 4.01-.31 3.12 4.74 6.33-4.21.23-1.3 7.3 4.62 2.01-.77 3.73 3.13 3.71.67 2.25 2.6 2.77 1 5.2 9.48 3.52.09 2.94-1.54.95 1.73 2.5-.98 4.19 1.74.46-5.39 2.16-3.61 4.16-1.62 2.18-2.05.26-2.07-2.36-1.15-2.4-4.06 1.84-5.84 1.28-10.18 1.53-5.75-.72-2.17 1.06-4.08 2.92-2.21.18-2.62z" /><path d="m396.36 146.28l-3.24-7.37-.02-3.66-1.95-4-.55-3.42.45-6.24-2.44-1.91-3.89-1.4-1.49-2.09.18-3.46-3.39.61-.29 2.18-4.38 1.01-1.6 3.61-3.93 1.11-1.3 6.04-6.28.93-.35-1.16-4.58-.07-6.83 4.64-2.4 8.34.92.56-1.37 3.69-3.04.14-1.68 2.59 1.26 4.23-2.89-.22-3.14 1.83-2.03-1.43-2.26 1.34.58 2.39-2.45 3.92 2.39.7 2.97 2.71-1.22 4.79 1.42.92.97 2.14 4.28.78 2.33-1.26 3.15 1.06.45 8.41 3.43-3.94 4.75-1.46 0 1.09 4.78-.58 6.99 2.74 4.07-4.3 2.8-2.99.96-2.44 5.62-2.42 2.75-4.29 3.54-1.94-.29-1.09 6.14-3.72 3.91-3.71-1.81-3.93z" /><path d="m371.4 203.35l-7.07-1.75-2.17 1.17-2.16 4.54-9.31-1.75-3.16-2.46-5.92 4.88-1.31-.3.39-3.35-1.27-1.84-3.25-.2-2.02-1.85-2.11.71 1.44 3.53-.97 2.97-.18 2.62-2.92 2.21-1.06 4.08.72 2.17-1.53 5.75-1.28 10.18-1.84 5.84 2.4 4.06 2.36 1.15-.26 2.07-2.18 2.05-4.16 1.62-2.16 3.61-.46 5.39 12.07-.61 6.34-1.06 2.42.76 1.94-1.19 2.65 2.51-1.06 4.98 4.81.3 2.51-1.27 2.8-5.49 2.69-.5 5.06-5.55.17-4.35-3.58-2.39 1.19-2.6.25-4.92 3.4-3.86 3.73-6.01 1.65-1.14-.93-5.31 3.83-1.71 1.87-3.78 1.43-.76.23-4.24-1.71-.61-2.66-3.39.34-4.91z" /><path d="m313.27 259.69l-.95-1.73-2.94 1.54-3.52-.09-5.2-9.48-2.77-1-2.25-2.6-3.71-.67-3.73-3.13-2.01.77-7.3-4.62-.23 1.3-6.33 4.21-3.63 1.69-.41 3.76 1.61 2.98-1.79 2.77-.27 7.02 3.96 3.57 3.08 1.3-.37 1.36 3.6 1.82-.55 4.23 4.22 5.08 1.8 5.34 2.28-1.09 1.86-2.6 4.15-.71.86 3.79 4.93 2.1 1.84-1.35 5.66 1.24 1.88-.58 2.18-3.72.88-4.67-2.98-2.6 1.89-6.32-.93-2.95 1.98-.4 3.21-5.56z" /><path d="m417.35 198.94l.89-5.94 2.6-1.91 1.29-4.32 4.21-1.55-1.5-3.95-2.05-.26 1.74-5.22-1.05-4.76 1.49-4.36-1.32-2.68.17-6.62-3.06-.68-2.93.85-3.79 4.02-1.75-1.95-7.29-3.36-2.58-.06 2.67-5.17-1.38-1.17.69-3.47-4.14 1.93-1.72-2.55-2.18.52 1.81 3.93-3.91 3.71-6.14 3.72.29 1.09-3.54 1.94-2.75 4.29-5.62 2.42-.96 2.44-2.8 2.99 5.28 5.86 3.5-.09 1.7 3.82 1.62-.35 3.31 2.03.32 5.16 1.7.65 3.47 1.63-.01 2.07 2.42 2.05 5.04 1.49 3.5-2.92 1.75.4.88 2.67 2.55 1.15.28 2.04 3.9.57 3.4-2.1z" /><path d="m690.78 215.33l-.44-1.88 4.24-.19 1.16-2.45.43-6.63 2.21-1.93 4.07-5.58-5.88-7.04-1.28-3.21-2.2.34-1.05-3.83-2.32-1.67-3.43 4.25.26 3.58 1.65 3.66.15 2.85-3.5-.06.19-1.41-3.12-6.92-1.55-1.49-3.03 2.24 1.18 2.25-2.87 1.76-.98 1.97-4.45.11.63 3.32-2.18 1.4-.23 5.16-3.75 3.45.14 7.9-4.11 6.9 3.17 4.64-.46 3.16-2.06 1.72 4.03 4.66-.08 4.57 1.42.33 4.21 5.3 3.6-1.99-1.52-2.51 5.08-2.39 3.14-3.17-.84-6.12 3.52-1.69 1.59-3.18 1.57.09-.09-5.98 1.61-3.21 2.17-1.08z" /><path d="m273.34 160.93l-.99-2.6-4.68-2.76-1.86 2.84-2.32-.71-2.22 1.15-.07 3.05 1.49 9.69 2.37 5.16 1.99 1.27-.55 2.39-6.74 3.56 2.42 3.5-1.79 2.84 1.14 1.75-.81 8.18 1.64 4.03-1.85-.37-2.8 2.58-4.96 5.06 2.46.24 2.96 3.27-.04 6.56-.72 3.46-4.46 5.01-5.15.86-3.25 1.7-1.99 3.73-4.48 1.12.93 3.2 4.11.57 2.54.85 5.27-3.33 3.53-3.06 1 3.05 1.45-1.26 4.11.12 1.32-3.4 3.9-3.06 2.56 1.72 2.33-.07 2.89-5.41 3.02-2.21-.52-4.51 1.94.05 4.65-2.06 4.52-3.66.33-3.12 1.88-4.93 2.69-1.97 1.55-2.97 4.45-.05 1.31-2.02 1.61.69 3.29-1.88 3.18.51 2.52-2.77 2.76.26 2.15-2.25 7.02 1.08.69-4.06 2.8-1.25 1.34 1.4 1.57-2.57 1.11-6.66-.42-6.43 3.12-3.79-3.33-1.08-.51 1.12-6.26.46-1.23-1.77-2.24.88-1.08-1.71-3.92.6-2.81-1.76-3.11 1.1-1.48 2.18-2.36-1.14-.97-2.7-.73 3.07 2.2.67 1.61 2.29-.86 4.92-4.3 2.48-3.64.18-2.39-3.34-1.68.28-3.22-1.75-2.67 3.9-4.23-6.43-1.58 2.31-2.87-.21-4.08-14.1-1.5-1.76z" /><path d="m357.13 258.88l-2.69.5-2.8 5.49-2.51 1.27-4.81-.3 1.06-4.98-2.65-2.51-1.94 1.19-2.42-.76-6.34 1.06-12.07.61-4.19-1.74-2.5.98-3.21 5.56-1.98.4.93 2.95-1.89 6.32 2.98 2.6-.88 4.67-2.18 3.72.86 9.33 2.92 4.24 4.44 3.49 3.77 4.9 2.23.3 1.91 2.45 1.35-2.65 1.34 1.88 3.68.08 4.3-3.58 3.26 2.91-1.34 3.61 4.5.54 3.94-3.09 2.43 1.94 3.48-2.45 7.03-1.57 3.98 1.81 3.2.13 1.13-1.57 3.58.34 2.3-1.9-1.94-3.58 3.15-1.67 2.08-2.65.88-3.8-3.94-5.96-2.17.1.37-3.59-3.18-.34-1.32-3.09-3.6-3.86-1.21-5.92 3.07-3.48-1.94-6.79-3.5-1.43-.95-2.11z" /><path d="m300.6 324.63l-2.88.12-1.33-1.77-5.76 5.56-2.11 5.23-3.72-.55-.93 2.78-6.11 1.34.1 1.61 2.34.15 5.29 3 .08 2.25-1.81 2.62-2.79 1.62-3.61-.84 1.59 2.4-2.82 1.11-2.25-.82-3.39-3.01-2.66 5.31 3.09 5.42 5.15 5.19.55 6.34 1.03 2.45 1.68.25.75 3.11 4.63-1.62 2.74 1.27 1.26-2.15 3.93-3.01 1.89.15-2.05-3.99 3.41-5.22.55-4.19 3.51-1.52 1.59-2.26 2.39-2.38-.98-5.52 1.84-3.02-1.61-1.39 1.93-6.03.87-6.23-3.8 1.93-1.58-5.69z" /><path d="m444.35 262.72l-1.97-1.87-2.37 1.45-3.67.07-7.01-1.05-5.91.73-2.7-2.69-1.75.06-8.36 3.31-1.38-2.33-2.71-1.07-2.94-2.62-2.88.74-5.07-4.55-5.25-1.23-1.79.7-4.23-.75-.81-1.15-3.19 1.52-2.75-.64-4.35.65-2.39 1.46-8.68-.13-5.06 5.55.95 2.11 3.5 1.43 1.94 6.79-3.07 3.48 1.21 5.92 3.6 3.86 1.32 3.09 3.18.34-.37 3.59 2.17-.1 3.94 5.96-.88 3.8-2.08 2.65-3.15 1.67 1.94 3.58 1.82 3.27 6.17-1.05 2.3 1.45 5 .68 2.04 1.87 4.78.78-1.13 3.67 4.62 1.5 4.27-3.19 6.52-2.21-2.61-2.6.93-2.04 4.28-1.11 1.46-2.87 4.21-.42 1.54-3.5 1.88.28.52-3.25 4.53-4.32 2.07.68 1.86-4.47.62-2.85 3.12 1.06 3.4-1.31.44 1.14 3.88.33 5.96-2.68 2.87-2.07 7.8 1.31-.04 2.62 3.26 1.38 2.26-1.12 1.86 1.87 3.02-2.74 3.48 1.35.9-1.16-.16-4.58 6.31-5.04 1.27-5.24 2.65-.57-2.67-2.38-7.98-3.65-1.39-1.7-2.62 3.72-11.67-2.66-7.04-.9-3.57-1.61z" /><path d="m396.93 319.22l-4.62-1.5 1.13-3.67-4.78-.78-2.04-1.87-5-.68-2.3-1.45-6.17 1.05-3.18.84-3.29 2.57-3.4 5.4-2.63-2.09-3.31-.85-3.97 2.88-3.46-.49-1.68 3.05 5.83 3.65-.57 2.4 3.35 3.49-2.1-.27-1.01-2.32-4.19-.43-1.02-3.64-3.62-.5-1.49 4.23-1.24.45.72 3-1.37 1.32 1.69 3.06-1.62 3.42-5.18-.31-.78 3.32 2.22 3.22 3.13.86-.78 4.89 7.63 3.09 2.24 8.76 2.42 1.66 3.29-2.95-.21-4.59-3.01-6.03.34-1.6 3.95-.01-1.65-2.12 1.77-1.42-4.08-3.01 6.04 1.69 3.3.02 2.07-4.21 1.67 3.04 2.82-2.29 2.59-.47.79-3.2 3.83-.96 2.17-2.64 3.47-.67 1.61 1.69 3.4-.29 1.67 1.18.85 3.26 1.48-4.13 3.18-2.64-.05-1.9 3.27-2.39 4.75-.46-.28-1.96 1.8-1.64-4.06-3.89-2.33-1.17z" /><path d="m333.04 368.38l-1.39-2.2-2.65-.81-.53-2.11-3.18-1.92-1.88 1.45-4.53-1.18-1.01-5.95-2.25-.95-1.66 1.58-5.29-2.9-1.18-3.68-2.86.77-3.09 2.48-1.59 2.26-3.51 1.52-.55 4.19-3.41 5.22 2.05 3.99-1.89-.15-3.93 3.01-1.26 2.15-2.74-1.27-4.63 1.62-2.07 4.05-.18 3.59-3.77 1.68-1.39 2.63 1.94 2.16-1.77 1.03 2.78 5.1-4.89 3.53 1.07 4.76 2.88-2.44 3.56 2.44 6.03 2.29 4.33.27.49-3.14 2.02.35 1.63-1.79 10.26-1.31 2.62-2.3 3.48-4.37 5.54 3.22 2.41-3.71 3.91 3.3 2.33-4.5 2.24.32 4.43-1.99 1.77-2.07-2.27-2.69-.66-4.41-1.04-.72 1.92-4.94-.12-3.3 3.18-1.6.3-2.56z" /><path d="m383.25 335.25l-1.61-1.69-3.47.67-2.17 2.64-3.83.96-.79 3.2-2.59.47-2.82 2.29-1.67-3.04-2.07 4.21-3.3-.02-6.04-1.69 4.08 3.01-1.77 1.42 1.65 2.12-3.95.01-.34 1.6 3.01 6.03.21 4.59 1.74 5.04 3.91 2.2-1.37 4.57 3.43-.99 1.34 4.84 3.96 4.55.63 5.6 2.54.62 2.6-1.47 2.63 3.44-3.05.56.5 3.22-.94 2.31.86 2.27-1.31 3.54.59.84 4.46-1.87 7.81-6.51 2.78 2.71 2.56.11.26 3.83 2.06 3.41 4.08.78 2.13-2.73 3.49.56 3.35 4.61 2.37 1.98-3.4 3.64 1.55 2.48 3.86-2.96 3.21 1.52 1.13-2.98 1.01 1.74 3.91 1.35 1.11-4.11-.46-2.88 2.23.84 2.09-2.09 1.86-6.06 1.5-.07-.87-2.85-3.49-1.86.68-2.37-.77-3.43-3.29-2.46.21-2.96-3.21-6.25 1.68-3.18-.29-2.91-2.34-1.15-1.28-3.34-3.64.57-.89-1.25-2.91 2.4-4.33-.5-1.21 3.21-9.26-.02-2.24-3.65-1.32.09.01-3.72 1.39-2.21 2.38 1.73 1.03-2.13-1.03-1.72-6.92-5.81.39-1.82-2.7-1.66 2.07-1.54-1.41-3.73 1.35-4.24-1.71-1.73-1.62-4.73z" /><path d="m415.82 367.71l1.02-1.99 6.29 1.84 4.15-1.64.21-5.34 1.9-2.03-2.32.04-2.57-3.72 1.86-2.62-2.38-5.02-3.01-2.71-2.33-4.35-2.3-.29 1.83-4.47 3.03.64 3.13-2.77.62-4.05-2.27-2.88-2.88-.76-2.35-4.35-4.22-2.38-.5-2.05-3.42-1.27-1.59-1.72-6.52 2.21-4.27 3.19 2.33 1.17 4.06 3.89-1.8 1.64.28 1.96-4.75.46-3.27 2.39.05 1.9-3.18 2.64-1.48 4.13-.85-3.26-1.67-1.18-3.4.29 1.62 4.73 1.71 1.73-1.35 4.24 1.41 3.73-2.07 1.54 2.7 1.66-.39 1.82 6.92 5.81 1.03 1.72-1.03 2.13-2.38-1.73-1.39 2.21-.01 3.72 1.32-.09 2.24 3.65 9.26.02 1.21-3.21 4.33.5 2.91-2.4.89 1.25 3.64-.57z" /><path d="m470.32 288.49l-3.48-1.35-3.02 2.74-1.86-1.87-2.26 1.12-3.26-1.38.04-2.62-7.8-1.31-2.87 2.07-5.96 2.68-3.88-.33-.44-1.14-3.4 1.31-3.12-1.06-.62 2.85 3.34 2.99 6.4 1.62 1.14 6.49-1.7 1.93 2.05.64 3.56 3.6-1.17 5.58 1.96 1.37-.32 3.35 3.1 3.84-2.29.99 4.66 2.87 1.02 3.99 2.27.46 2.36 2.38 1.14 3.63-1.96 1.48-1.86-1.17-.1 4.28 1.08 2.67 1.87.13 2.14-3.85 2.19-.74 2.86 2.38-1.93 2.69-.19 4.59 8.54 4.67.2 3.99 1.88 2.79 2.48.85-.14 2.78 2.38 1.97 2.64-.12.36 3.1 1.8 1.5 7.89.13 1.85-3.1 3.9-1.5 2.55 1.13 4.97-5.59 2.53-.66-.68-2.42-1.03-2.04-2.56 1.09-2.31-.74-3.46 2.7-2.08-2.54-1.51 1.34-4.79-.7 1.1-1.89-4.74-1.71.63-3.12-1.32-1.37.66-3.61 2.23-.91 2.03-2.85.04-2.55 3.95-9.73-2.92-2.2-1.75.66-3.31-1.45 1.15-2.5-1.15-4.36 1.38-2.76-1.61-.96-3.26-6.51-2.51-1.76-4.46-4.71-2.59.24-1.07-1.74.32-5.94 3.7-3.19-1.6-3.61z" /><path d="m496.34 366.58l-2.55-1.13-3.9 1.5-1.85 3.1-7.89-.13-1.8-1.5-.36-3.1-2.64.12-2.38-1.97.14-2.78-2.48-.85-1.88-2.79-.2-3.99-8.54-4.67.19-4.59 1.93-2.69-2.86-2.38-2.19.74-2.14 3.85-1.87-.13-1.08-2.67.1-4.28 1.86 1.17 1.96-1.48-1.14-3.63-2.36-2.38-2.27-.46-1.02-3.99-4.66-2.87 2.29-.99-3.1-3.84.32-3.35-1.96-1.37 1.17-5.58-3.56-3.6-2.05-.64 1.7-1.93-1.14-6.49-6.4-1.62-3.34-2.99-1.86 4.47-2.07-.68-4.53 4.32-.52 3.25-1.88-.28-1.54 3.5-4.21.42-1.46 2.87-4.28 1.11-.93 2.04 2.61 2.6 1.59 1.72 3.42 1.27.5 2.05 4.22 2.38 2.35 4.35 2.88.76 2.27 2.88-.62 4.05-3.13 2.77-3.03-.64-1.83 4.47 2.3.29 2.33 4.35 3.01 2.71 2.38 5.02-1.86 2.62 2.57 3.72 2.32-.04-1.9 2.03-.21 5.34-4.15 1.64-6.29-1.84-1.02 1.99 1.28 3.34 2.34 1.15.29 2.91-1.68 3.18 3.21 6.25-.21 2.96 3.29 2.46.77 3.43-.68 2.37 3.49 1.86.87 2.85-1.5.07-1.86 6.06-2.09 2.09-2.23-.84.46 2.88-1.11 4.11 1.36-.37 1.92 4.14-2.51 3.44 4.96-.21 2.83-3.83 1.54-.03 1.68-2.78 7.67-1.93 3.02 2.25 1.44-2.11 2.41-.86-1.43-1.17 3.31-1.56 1.7-2.46 4.62-2.97.98-3.59-.74-2.35 7.04 1.68 2.95-.45-.18-2.26 3.39.02 1.99-3.54 5.72 4.16 3.46-.41-.15-1.68 2.47.2 1.97-5.85 2.91-1.5 2.45-3.41-.85-1.13 4.6-4.75 1.88-2.92-1.09-2.42 2.72-4.24-.16-3.37z" /><path d="m355.78 362.03l-3.29 2.95-2.42-1.66.28 2.6 2.78 2.7-.85 2.55-2.67.73-.91 2.96-1.86 1.57.01 5.27 2.05 2.97-2.09.76-7.63-2.39-2.34-2.76.23-6.48-1.73-3.45-2.3-1.97-.3 2.56-3.18 1.6.12 3.3-1.92 4.94 1.04.72.66 4.41 2.27 2.69-1.77 2.07-4.43 1.99-2.24-.32-2.33 4.5-3.91-3.3-2.41 3.71-5.54-3.22-3.48 4.37 2.85 2.38-3.62 6.67 1.95 5.4-2.62 3.24-2.82 1.79-2.55 3.02-.1 3.22 2.4 2.94 1.82-.28 1.55 2 4.44-2.83 2.33 1.63 3.01-1.45 8.43 3.39 2.99-.62 4.08 2.49 1.87-3.29 3.19-.5 3.55-2.71 7.02.42 4.84-.32 1.51 2.1 3.77-1.08 1.55-2.12 2.64-.18-.49 1.96 2.28.09 3.78-3.24.7-5.86 2.59-3.46.34-5.52 2.42-1.69-.28-2.53 2.21-1.13 1.31-3.54-.86-2.27.94-2.31-.5-3.22 3.05-.56-2.63-3.44-2.6 1.47-2.54-.62-.63-5.6-3.96-4.55-1.34-4.84-3.43.99 1.37-4.57-3.91-2.2-1.74-5.04z" /><path d="m310.82 299.48l-5.32 3.96-1.36 3.06 1.11 1.7-2.05 5.85 3.15 6.15-3.29 1.7-2.46 2.73 1.58 5.69 3.8-1.93-.87 6.23-1.93 6.03 1.61 1.39-1.84 3.02.98 5.52-2.39 2.38 3.09-2.48 2.86-.77 1.18 3.68 5.29 2.9 1.66-1.58 2.25.95 1.01 5.95 4.53 1.18 1.88-1.45 3.18 1.92.53 2.11 2.65.81 1.39 2.2 2.3 1.97 1.73 3.45-.23 6.48 2.34 2.76 7.63 2.39 2.09-.76-2.05-2.97-.01-5.27 1.86-1.57.91-2.96 2.67-.73.85-2.55-2.78-2.7-.28-2.6-2.24-8.76-7.63-3.09.78-4.89-3.13-.86-2.22-3.22.78-3.32 5.18.31 1.62-3.42-1.69-3.06 1.37-1.32-.72-3 1.24-.45 1.49-4.23 3.62.5 1.02 3.64 4.19.43 1.01 2.32 2.1.27-3.35-3.49.57-2.4-5.83-3.65 1.68-3.05 3.46.49 3.97-2.88 3.31.85 2.63 2.09 3.4-5.4 3.29-2.57 3.18-.84-1.82-3.27-2.3 1.9-3.58-.34-1.13 1.57-3.2-.13-3.98-1.81-7.03 1.57-3.48 2.45-2.43-1.94-3.94 3.09-4.5-.54 1.34-3.61-3.26-2.91-4.3 3.58-3.68-.08-1.34-1.88-1.35 2.65-1.91-2.45-2.23-.3-3.77-4.9-4.44-3.49z" /><path d="m277.86 338.95l-2.18.68-2.92-.91-2.83-2.27-3.32-.13.79-6.02-5-3.06 1.42-8.12-1.12-.92-1.77-7.19-2.62-4.82-1.19-.26-7.03 8.59-.44 2.8-2.73-.68-1.79 1.38-4.85 1.41-4.14-.87-.22-.99-1.77 3.84-1.19.05 3.11 5.35-3.43 3.91 5.58-.53 2.11 2.13-1.6 6.61-1.66 3.06 1.61-.06 1.53 3.43-1.43 3.24 3.16.59 1.42 8.87-1.56 3.44-3.16 1.5-1.48 3.68-1.51-.37 1.33 1.51-.05 3.39 3.05-3.53.35-2.34 2.42-1.53 5.06 1.26 3.23-1.83 2.3 1.97 3.91-2.59.19-2.99 3.47-3.01 4.38-5.24 2.54 1.36 2.66-5.31 3.39 3.01 2.25.82 2.82-1.11-1.59-2.4 3.61.84 2.79-1.62 1.81-2.62-.08-2.25-5.29-3-2.34-.15z" /><path d="m307.04 285.91l-1.88.58-5.66-1.24-1.84 1.35-4.93-2.1-.86-3.79-4.15.71-1.86 2.6-2.28 1.09-.12 1.58-4.7 7.03-2.23 1.23-3.58.13-1.41 4.67-1.93 2.49-2.87 1.35-.06 4.51-2.27-1.53-7.29-.64 1.19.26 2.62 4.82 1.77 7.19 1.12.92-1.42 8.12 5 3.06-.79 6.02 3.32.13 2.83 2.27 2.92.91 2.18-.68-.1-1.61 6.11-1.34.93-2.78 3.72.55 2.11-5.23 5.76-5.56 1.33 1.77 2.88-.12 2.46-2.73 3.29-1.7-3.15-6.15 2.05-5.85-1.11-1.7 1.36-3.06 5.32-3.96-2.92-4.24-.86-9.33z" /><path d="m646.19 169.29l-1.45-.07-4.28-4.63-3.62.09-4.05-4-4.78.41-3.86-2.86-5.21 5.29-2.36 1.54.39 1.92-4.88 3.07-5.1-5.61-3.7-2.16-1.51 2.53-2.28-1.25-6.51 1.76.6 3.17 6.42 6.06-1.46 2.27-6.19-.46-5.13 3.52-.57 2.59-2.63 1.2.52 3.28-1.08 1.2 3.1 5.93-2.94.19 1.7 4.56-1.59 5.06 3.36 3.44 4.93-1.35 2.76 2.19 5.58-1.65 3.55 4.94 2.87.66.83 2.3 3.3 2.17 1.05 2.31 5.66 2.92 2.1-.65 3.55 2.08.03 3.88 2.08 1.74.98-2.69 3.28 1.8 1.76 2.5 2.52-.63 1.77-2.55 5.14-.04 2.09-1.36 1.53-3.13 1.97-.4 3.61 4.2-.08 1.49 3.39-1.32 1.36-3.23-3.47-1.57.82-3.34-1.48.78-2.24-1.62.07-3.21 1.68-2.23 1.71.38 2.87-2.16-1.35-1.48.1-2.9-2.63-3.02 1.43-3.23-2.8-3.28-3.28-1.63-.74-4.69-1.48.83-1.54-1.89-3.78-2.04 2.26-1.21 1.89-2.88-7.23-4.18.51-1.07 5.16-.49.78-2.64 3.18-2.59 1.04-2.86z" /><path d="m690.78 215.33l-2.17 1.08-1.61 3.21.09 5.98-1.57-.09-1.59 3.18.94 2.41-.63 4.21 2.79 4.75.82 3.2-2.15 1.71-1.67 4.29 3.22 2.58-1.4 2.87 1.77 1.51-.6 2.5 3.46 4.19-.82 4.72-1.94.75-1.04 2.7 1.32 6.59 1.74-1.07 2.89.58 1.55 2.66 1.92-1.41 5.15 1.08 7.96 4.39.95 4.32 5.2.49-.08 1.6 6.34.15 4.68-1.25 8.14.76-.25-9.17 4-.77.58-2.32 4.46-4.89-2.43-1.89-3.13-.18.95-1.58-1.71-1.78-3.83 4.57-2.3-.38-.89-1.98-3.34.57-3.39-2.57-2.45.5-1.07-2.95 4.62-3.22.89-5.68 3.4.19 4.13-3.77-1.57-2.31.03-4.39 5.29-3.19-.78-4.1-2.94-1.38-.13-6.35 3.48-1.95.16-3.56 1.48-3.53 2.25-2.73-1.27-2.51-4.98-.91-1.32 4-3.05 4.28.45 1.21-2.73 2.92-4.64 1.39-1.59 1.32-6.09-.54-1.24 5.82-2.16.51-1.96-3.08-2.45.17-2.64 2.35-4.98-4.49-.74.5-2.91-3.69-1.81-.77-1.52-3.35.4-4.22-1.94-4.76z" /><path d="m622.7 312.78l-3.51-.42.43-1.71-2.68-.67-4.01 1.81-5.34 8.82 4.04 2.34.79 3.23 2.75.23 2.21-1.28 5.93.24 4.02 2.19-1.03-3.65.21-3.09-2.74-3.31.36-3.54-1.43-1.19z" /><path d="m510.15 165.4l-2.24-1.82-1.21 2.47-3.72-.01-.93-3.25-1.57 1.91-4.94-1.27-1.19 2.88 1.88-.44-1.54 2.81.03 5.29-1.76 1.65-2.36-1.84-3.48.94-6.23-1.57-3.85 2-1.38 2.64-.38 3.59 2.02 3.99 3.06 2.26 2.47-1.87 3.56.16 2.32 1.3 4.06.21-.09 4.76 2.43 7.8 4.06 1.72-.4 3.67-3.73-.18 2.59 1.2-.22 2.05 2.58 3.95-2.51-1.44-2.44 2.44-1.32-1.27-2.91 3.37-3.32-1.81-.02 3.41-1.74.86 4.66 4.89 2.9 3.89 5.01 1.94-2.45 2.48 4.41 6.84 2.06 1.33 4.71.3 1.81 1.3 2.59-1.04 1.44-3.13 3.11 2.99.54-1.16 4.97-1.83-1.27-.84 2.44-4.48-1.02-1.47 7.25-4.96 5.64-5.63.81-1.83-2.99-2.23.26-4.14-2.9-6.05-3.42-.88-.01-1.4-5.75-4.41-3.17-4.89 1.95-4-1.09-.84-1.28-7.3-8.82 5.36-3.5-2.45.16-2.93 2.9-4.57 2.02-8.05 2.54-1.19-2.09-2.18z" /><path d="m536.72 217.01l-1.38.54-.81 1.83-5.64 5.63-7.25 4.96 1.02 1.47-2.44 4.48 1.27.84-4.97 1.83-.54 1.16-3.11-2.99-1.44 3.13-2.59 1.04-.67 3.46-1.7-2.13.11 5.28 1.65 2.24 1.57-1.06 1.42 1.89-.35 2.37 4.69-4.09-3.67-1.83 3.29.35 1.71-3.26 1.94.01-.94 3.99 5.02 3.43 1.45 2.82 5.73-1.35.06 2.86 1.59 2.73 5.84-.86.63-3.1 5.3-1.55 2.22 3.17 2.7-1.95 1.61 2.42 1.46-6.47 6.23 2.55-.53 1.29 3.14 2.4 4.88-.9 1.53-4.68-2.11-1.86 1.97-3.4.26-3.72 1.6-1.57 1.27-5.23-5-2.83-4.86 1.94-3.87-6.17-2.21-1.73-2.25.92-1.88-3.12-6.14-.37-4.08-3.39-2.73-3.42z" /><path d="m733.7 215.76l-9.57-4.14-.06-3.98 1.26-3.14-1.52-1.19.62-3.25-3.06-2.38-4.13-5.81-2.11-6.72-3.66.47-2.09-1.74-1.95.79-1.9-3.8-1.73-1.22-2.34.87-2.19-4.69-5.15 1.68-2.16 2.9.08 2.52 1.05 3.83 2.2-.34 1.28 3.21 5.88 7.04-4.07 5.58-2.21 1.93-.43 6.63-1.16 2.45-4.24.19.44 1.88 1.94 4.76-.4 4.22 1.52 3.35 1.81.77 2.91 3.69.74-.5 4.98 4.49 2.64-2.35 2.45-.17 1.96 3.08 2.16-.51 1.24-5.82 6.09.54 1.59-1.32 4.64-1.39 2.73-2.92-.45-1.21 3.05-4.28 1.32-4z" /><path d="m508.84 240.93l-1.81-1.3-4.71-.3-2.06-1.33-4.41-6.84 2.45-2.48-5.01-1.94-2.9-3.89-4.66-4.89 1.74-.86.02-3.41 3.32 1.81 2.91-3.37 1.32 1.27 2.44-2.44 2.51 1.44-2.58-3.95.22-2.05-2.59-1.2 3.73.18.4-3.67-4.06-1.72-2.43-7.8.09-4.76-4.06-.21-2.32-1.3-3.56-.16-2.47 1.87-3.06-2.26-2.02-3.99.38-3.59-2.31.81 1.01 1.94-2.58 2.18-.9-3.45-2.92 4.62-.45 4.01-4.07 5.2-.23 5.66-2.14 2.99-.24 5.76-1.54.12-7.29-5.2-1.37-3.92-3.49-2.65-1.43.29-6.92-1.65-2.22.87-.36 3.61-2.6 1.72 2.16.96-.57 3.02 2.34.89.78 4.57-4.2 5.67 2.35 2.23 2.14-4.17 4.2-.11 3-2.43.05 3.32-2.31.17-2.22 2.24.28 3.61 2.6-1.44.44 1.96 3.93 1.25 4.54-.68-1.48 4.22-.6 5.39-2.22 5.06.07 4.15-4.57.49-1.67-.99-.76 2.07 3.14 2.21 2.63 5.2 1.66 1.25-.69 3.38 2.5 3.8 2.8.2-4.87 4.02-4.71.51 3.57 1.61 7.04.9 11.67 2.66 2.62-3.72 1.39 1.7 7.98 3.65 2.67 2.38 2.93-.16 1.16-4.81 1.62-1.58 2.38.96 2.67-4.02-2.42-2.69-3.66-.46.71-1.59 4.42-4.17 6.33-2.59 3.66-2.12 1.72.83 1.66-2.82 2.11.86-.11-5.28 1.7 2.13.67-3.46z" /><path d="m633.93 229.85l-2.52.63-1.76-2.5-3.28-1.8-.98 2.69-2.08-1.74-.03-3.88-3.55-2.08-2.1.65-5.66-2.92-1.05-2.31-3.3-2.17-1.65 3.89 3.03 4.33 4.81 11.19-1.06 1.53-2.13-.66.28 1.99-4.35.35.32 2.45-3.67-.5-3.94 3.92-1.71-1.36-1.16 2.06-3.47-.79.86 4.88-3.05-2.13-.83-2.23-4.64-4.06-1.26-3.65-2.04-2.11-2.62-.37-.67 2.03-3.87-.13-2.55-2.44-2.51 2.57-1.27 5.23-1.6 1.57-.26 3.72-1.97 3.4 2.11 1.86-1.53 4.68 2.83 2.67 2.8.03 3.94 3.57.72-1.61 4.23-.55.38 4.78 3.05 2.67.39 3.59 5.49.45 2.64 2.02 5.39.6 1.98-1.3 3.1 1.45 3.3 5.26 2.23-2.76 3.51 2.96 4.89-.32.84 2.92-3.46 2.23.36 4 2.27 2.45 2.9 1.39 2.98-1.29-.62-1.98 2.17-1.84 6.87.12 2.42-4.02-1.13-4.68 2.83-.82 2.8 2.71.82-4.42 1.13 4.43 2.71.43 1.54-1.63 3.15-.4-.64-5.72.65-2.45-1.39-.98-2.71-7.38-2.12-1.72-.2-2.04-2.98-3.48 2.47-1.38-1.52-2.72.77-4.33 5.46-3.9 1.46-4.26-2.74-.98.22-2.32-4.14-2.72-5.33-2.52z" /><path d="m583.74 203.89l-6.27 4.18-3.07-1.23-1.56 1.61-3.96-1.01 0-3.13-1.61 2.81-3.44-3.6-2.88-1.07-2.86.86-4.43-.87.12 2.37-4.43 5.25-6.16 5.26-2.5-1.55-3.97 3.24 2.73 3.42 4.08 3.39 6.14.37 1.88 3.12 2.25-.92 2.21 1.73 3.87 6.17 4.86-1.94 5 2.83 2.51-2.57 2.55 2.44 3.87.13.67-2.03 2.62.37 2.04 2.11 1.26 3.65 4.64 4.06.83 2.23 3.05 2.13-.86-4.88 3.47.79 1.16-2.06 1.71 1.36 3.94-3.92 3.67.5-.32-2.45 4.35-.35-.28-1.99 2.13.66 1.06-1.53-4.81-11.19-3.03-4.33 1.65-3.89-.83-2.3-2.87-.66-3.55-4.94-5.58 1.65-2.76-2.19-4.93 1.35-3.36-3.44z" /><path d="m768.75 287.53l1.7-3.03 3.65-1.44.07-3.89 1.57-3.21-.36-2.59 5.87-8.6 1.16-3.45 3.2-1.62 2.74.66 3.3-1.86-.82-3.14 1.83-1.77.6-10.16 1.74-1.71-3.52-1.49-4.31.55-1.11 1.11-5.81-3.87-3.77.97-1.95-.8-3.04-5.32-3.12-4.13-4.28-.05-1.97 2.18-5.2-1.51-4.43-2.41-3.08 0 1.19-2.9-.34-2.89-2.61-1.09-2.82 2.32-4.88-3.21-2.25 2.73-1.48 3.53-.16 3.56-3.48 1.95.13 6.35 2.94 1.38.78 4.1-5.29 3.19-.03 4.39 1.57 2.31-4.13 3.77-3.4-.19-.89 5.68-4.62 3.22 1.07 2.95 2.45-.5 3.39 2.57 3.34-.57.89 1.98 2.3.38 3.83-4.57 1.71 1.78-.95 1.58 3.13.18 2.43 1.89 5.07.52.58 4.31 2.64 5.82.21 2.75 6.08-.31 2.91-1.32 2.35 1.39 4.77-.1.91 1.65z" /><path d="m583.47 188.15l-2.21-.79-5.29 2.38-2.64-2.04-1.71-4.03-2.07 1.12.17-2.81-2.12-3.09-1.5-.03-2.32 2.58-1.66-.13-1.99-2.89-1.88.71 1.3-3.14-3.07-.57.99-2.04-3.34-.03-.13-2.71-1.78-1.86 1.51-1.46-1.5-2.49-3.03-1.82-4.19-.25-3.64 2.59-3.13.92-4.13-2.59-1.65 4.74-3.57 2.48-8.48-4.04-.7-2.09-3.72-2.44-5.53-1.12-.31 4.19 2.09 2.18-2.54 1.19-2.02 8.05-2.9 4.57-.16 2.93 3.5 2.45 8.82-5.36 1.28 7.3 1.09.84-1.95 4 3.17 4.89 5.75 4.41.01 1.4 3.42.88 2.9 6.05-.26 4.14 2.99 2.23 1.38-.54 3.97-3.24 2.5 1.55 6.16-5.26 4.43-5.25-.12-2.37 4.43.87 2.86-.86 2.88 1.07 3.44 3.6 1.61-2.81 0 3.13 3.96 1.01 1.56-1.61 3.07 1.23 6.27-4.18 1.59-5.06-1.7-4.56 2.94-.19-3.1-5.93z" /><path d="m689.72 181.26l-.93-4.23-4.92-3.44-.21-2.41-3.19-1.73-2.04 1.39-3.52-1.44-3.39-6.26-4.05 2.31-3.49-.17-1.51-1.28-1.92 1.58-2.33-.59-2.44 3.51-2.6-2.49-2.36 2.75-4.63.53-1.04 2.86-3.18 2.59-.78 2.64-5.16.49-.51 1.07 7.23 4.18-1.89 2.88-2.26 1.21 3.78 2.04 1.54 1.89 1.48-.83.74 4.69 3.28 1.63 2.8 3.28-1.43 3.23 2.63 3.02-.1 2.9 1.35 1.48-2.87 2.16-1.71-.38-1.68 2.23-.07 3.21 2.24 1.62 1.48-.78-.82 3.34 3.47 1.57-1.36 3.23-3.39 1.32.08-1.49-3.61-4.2-1.97.4-1.53 3.13-2.09 1.36-5.14.04-1.77 2.55 5.33 2.52 4.14 2.72-.22 2.32 2.74.98 2.87-.32 4.7 3.41 4.53-2.18 1.8-1.79.57-5.08-1.21-3.5 2.19 2.77 2.06-1.72.46-3.16-3.17-4.64 4.11-6.9-.14-7.9 3.75-3.45.23-5.16 2.18-1.4-.63-3.32 4.45-.11.98-1.97 2.87-1.76-1.18-2.25 3.03-2.24 1.55 1.49 3.12 6.92-.19 1.41 3.5.06-.15-2.85-1.65-3.66-.26-3.58 3.43-4.25z" /><path d="m688 277.67l-1.32-6.59 1.04-2.7 1.94-.75.82-4.72-3.46-4.19.6-2.5-1.77-1.51 1.4-2.87-3.22-2.58 1.67-4.29 2.15-1.71-.82-3.2-2.79-4.75.63-4.21-.94-2.41-3.52 1.69.84 6.12-3.14 3.17-5.08 2.39 1.52 2.51-3.6 1.99-4.21-5.3-1.42-.33.08-4.57-4.03-4.66-2.19-2.77 1.21 3.5-.57 5.08-1.8 1.79-4.53 2.18-4.7-3.41-2.87.32-1.46 4.26-5.46 3.9-.77 4.33 1.52 2.72-2.47 1.38 2.98 3.48.2 2.04 2.12 1.72 2.71 7.38 1.39.98-.65 2.45.64 5.72-.07 2.77 1.57.25-.3 4.41 4.39 4.73-.52 2.42 1.98 3.94 4.89.99 5.03 3.66 3.07-1.19 2.96.13 1.93 3.05 3.8.65 2.43-.62 1.41-2.84 3.59 1.37-.01-1.25 4.9-2.13 1.48.37.76-3.17-1.84-3.33.85-2.98-1.37-4.98 1.02-.81-1.25-3.53.63-2.99z" /><path d="m589.05 271.24l-5.49-.45-.39-3.59-3.05-2.67-.38-4.78-4.23.55-.72 1.61-3.94-3.57-2.8-.03-2.01 1.71 1.04 3.86-2.2 2.1 2.67.06 2.89 3.97-3.51 3.65-3.15 5.82-4.71 1.96-8.66 1.39-3.91 1.18-5.23-5.01-5.49-1.59-1.52 2.14.35-8.97-2.3-.93-4.61 1.44-3.13 2-.98 5-2.24 3.62-2.01 1.38-.15 2.37-2.94.98.27 4.01.05 1.94 2.54 2.12-.22 2.87 2.79 3.66 5.82-1.91 4.56 3.59-1.15 2.51.97 7.89 3.07.3 4.59 3.43 3.27.41 2.18-5.86-.18-3.06 2.31-1.93 8.22-2.37 2.8-3.13.09-2.8 2.5-2.23 1.73 1.84 3.27.18 2.9 1.64 3.91-2.16 3-.59 4.59 1.95 3.89-1.47-.35-5.43 2.96-.79-.54-1.78 2.92-.73-1.44-2.08 2.78-.9-1.38-4.56-2.6-1 .17-2.61 1.63-1.35 1.3 1.54-.42-6.34z" /><path d="m620.68 297.5l-3.24-3.29-2.1 3.06-5.07 2.12-.43-3.08-6.29-4.08-2.81-3.61-2.84 3.09 1.68 4.01-2.52.89-.2 3.77 5.31 7.19 1.21.4 1.34-.18 4.11 2.37 3.03-.79 1.07 2.42 4.01-1.81-.48-3.22 3.04-5.25 1.18-4.01z" /><path d="m612.93 311.79l-1.07-2.42-3.03.79-4.11-2.37-1.34.18-.83.44 3.64 7.14-2.85-.57 0 7.49-.8 1.09-3.56-.72.3-2.11-4.11 2.55.92 3.59-1.3 3.66 6.01.31.61 5.33 1.35 2.78 5.08 2.51 2.78-1.38-1.29-5.75.39-2.99-2.59-3.54 3.35-2.56 1.94.94-.79-3.23-4.04-2.34 5.34-8.82z" /><path d="m622.7 312.78l.96-4.87-3.04-6.2.06-4.21-1.18 4.01-3.04 5.25.48 3.22 2.68.67-.43 1.71 3.51.42z" /><path d="m646.67 278.75l-3.15.4-1.54 1.63-2.71-.43-1.13-4.43-.82 4.42-2.8-2.71-2.83.82 1.13 4.68-2.42 4.02-6.87-.12-2.17 1.84.62 1.98-2.98 1.29-2.9-1.39-2.27-2.45-.36-4 3.46-2.23-.84-2.92-4.89.32-3.51-2.96-2.23 2.76-3.3-5.26-3.1-1.45-1.98 1.3-5.39-.6-2.64-2.02.42 6.34-1.3-1.54-1.63 1.35-.17 2.61 2.6 1 1.38 4.56-2.78.9 1.44 2.08-2.92.73.54 1.78-2.96.79.35 5.43-3.89 1.47-4.59-1.95-3 .59-3.91 2.16-2.9-1.64-3.27-.18-1.73-1.84-2.5 2.23-.09 2.8-2.8 3.13-8.22 2.37-2.31 1.93.18 3.06-2.18 5.86 3.23 1.62 5.14.81 1.61 4.51 2.33 2.04-1.05 1.4-3.68-.26 1.72 5.05-2.36-.7.12 5.76 5.58-1.28 1.91.35-.9 3.06 1.35.01 2.87 3.48 5.39-1.65 1.75 1.44.6 3.17 2.86 1.05-.09 2.54 8.17-1.79 2.53 1.2 4.41.47 4.19 3.39-.61 2.01 3.07 2.12 2.3-.79 3.98-5.21 2.51.81 4.12-1.69 1.73-2.01 2.46-.33 3.6 2.95 4.14 1.12 2.76-2.28.52-5.39 8.41.66 2.22-.99 2.84.99 1.02-3.98 2.44-1.22 6.33 5.77 2.68.8 1.16 2.37 1.02-1.26-1.54-2.65 4.04-5.21-3.42-1.61 5.28-3.59 2.03 1.54 1.65-1.61-6.25-8.25 1.75-5.46-.67-4.59 2.54-6.39-1.64-6.77.76-5.52-1.98-3.94.52-2.42-4.39-4.73.3-4.41-1.57-.25.07-2.77zm-43.29 29.22l-1.21-.4-5.31-7.19.2-3.77 2.52-.89-1.68-4.01 2.84-3.09 2.81 3.61 6.29 4.08.43 3.08 5.07-2.12 2.1-3.06 3.24 3.29-.06 4.21 3.04 6.2-.96 4.87 1.43 1.19-.36 3.54 2.74 3.31-.21 3.09 1.03 3.65-4.02-2.19-5.93-.24-2.21 1.28-2.75-.23-1.94-.94-3.35 2.56 2.59 3.54-.39 2.99 1.29 5.75-2.78 1.38-5.08-2.51-1.35-2.78-.61-5.33-6.01-.31 1.3-3.66-.92-3.59 4.11-2.55-.3 2.11 3.56.72.8-1.09 0-7.49 2.85.57-3.64-7.14.83-.44z" /><path d="m738.19 280.03l-4 .77.25 9.17-8.14-.76-4.68 1.25-6.34-.15.08-1.6-5.2-.49-.95-4.32-7.96-4.39-5.15-1.08-1.92 1.41-1.55-2.66-2.89-.58-1.74 1.07-.63 2.99 1.25 3.53-1.02.81 1.37 4.98-.85 2.98 1.84 3.33-.76 3.17-1.48-.37-4.9 2.13.01 1.25 1.26 2.12-1.08 4.73-6.21 1.45 2.65 4.86-.5 1.7 3.52 1.9.14 2.59 3.88 8.12.49-1.78.54 8.69 1.23 3.02-1.74-.06 1.16 11.65 3.5 1.86-3.71 4.34 2.15 3.79-2.55 4.71 4.34-.33 1.72-3.88 7.43-2.97 2.18.38 7.98-.61 7.69-1.32 3.14 4.31 1.24.3 3.28 3.95 2.8-.29 3.43 6.12 2.91-15.78.74-8.73.77-2.01-1.74.6-.77-4.3-2.18.11-.75-2.67.54-5.55-7.19-6.21 1.64-2.22-1.23-2.19 1.94-1.38-3.83-12.28 4.83-1.21-1.76-1.1-.24-3.09 2.14-2.55-1.08-.78 3.96-3.74 4.56.32.58-3.98 2.62-7.08.19-3.47-1.25-2.5z" /><path d="m516.52 290.45l-2.93-.96-.95-1.7-2.51-.15-2.91-3.05-.23-2.58-2.25-1.4-8.78-2.6 3.19-4.49-.63-3.88-1.38-1.54 4.61-2.07-5.31-.81-4.39-2.93-2.67 4.02-2.38-.96-1.62 1.58-1.16 4.81-2.93.16-2.65.57-1.27 5.24-6.31 5.04.16 4.58-.9 1.16 1.6 3.61-3.7 3.19-.32 5.94 1.07 1.74 2.59-.24 4.46 4.71 2.51 1.76 3.26 6.51 1.61.96-1.38 2.76 1.15 4.36-1.15 2.5 3.31 1.45 1.75-.66 2.92 2.2-3.95 9.73-.04 2.55-2.03 2.85-2.23.91-.66 3.61 1.32 1.37-.63 3.12 4.74 1.71-1.1 1.89 4.79.7 1.51-1.34 2.08 2.54 3.46-2.7 2.31.74 2.56-1.09 1.03 2.04 3.54-2.25 2.35-2.82.76-9.11 1.76-.54 2.4 2.13 1.42-3.31 5.39 2.06 4.1-1.38 1.11-1.43 2.83-.1 1.45-1.87 3.48.58 4.08-1.83 12.04-.55-.12-5.76 2.36.7-1.72-5.05 3.68.26 1.05-1.4-2.33-2.04-1.61-4.51-5.14-.81-3.23-1.62-3.27-.41-4.59-3.43-3.07-.3-.97-7.89 1.15-2.51-4.56-3.59-5.82 1.91-2.79-3.66.22-2.87-2.54-2.12-.05-1.94z" /><path d="m768.75 287.53l-.91-1.65-4.77.1-2.35-1.39-2.91 1.32-6.08.31-.21-2.75-2.64-5.82-.58-4.31-5.07-.52-4.46 4.89-.58 2.32 1.25 2.5-.19 3.47-2.62 7.08-.58 3.98-4.56-.32-3.96 3.74 1.08.78-2.14 2.55.24 3.09 1.76 1.1-4.83 1.21 3.83 12.28-1.94 1.38 1.23 2.19-1.64 2.22 7.19 6.21-.54 5.55.75 2.67 2.18-.11.77 4.3 1.74-.6 3.38-6.64 3.72-2.23 1.95.22 2.82-3.81.14-1.63 5.04-3.32 2.3-2.42 5.11-1.38.96-4.51 2.12-4.11.38-2.85-2.51-2.55.44-2.88 3.87-3.27 1.97-3.35-.7-8.26.55-4.78z" /><path d="m565.22 255.64l-4.88.9-3.14-2.4.53-1.29-6.23-2.55-1.46 6.47-1.61-2.42-2.7 1.95-2.22-3.17-5.3 1.55-.63 3.1-5.84.86-1.59-2.73-.06-2.86-5.73 1.35-1.45-2.82-5.02-3.43.94-3.99-1.94-.01-1.71 3.26-3.29-.35 3.67 1.83-4.69 4.09.35-2.37-1.42-1.89-1.57 1.06-1.65-2.24-2.11-.86-1.66 2.82-1.72-.83-3.66 2.12-6.33 2.59-4.42 4.17-.71 1.59 3.66.46 2.42 2.69 4.39 2.93 5.31.81-4.61 2.07 1.38 1.54.63 3.88-3.19 4.49 8.78 2.6 2.25 1.4.23 2.58 2.91 3.05 2.51.15.95 1.7 2.93.96-.27-4.01 2.94-.98.15-2.37 2.01-1.38 2.24-3.62.98-5 3.13-2 4.61-1.44 2.3.93-.35 8.97 1.52-2.14 5.49 1.59 5.23 5.01 3.91-1.18 8.66-1.39 4.71-1.96 3.15-5.82 3.51-3.65-2.89-3.97-2.67-.06 2.2-2.1-1.04-3.86 2.01-1.71-2.83-2.67z" /><path d="m682.83 302.47l-3.59-1.37-1.41 2.84-2.43.62-3.8-.65-1.93-3.05-2.96-.13-3.07 1.19-5.03-3.66-4.89-.99-.76 5.52 1.64 6.77-2.54 6.39.67 4.59-1.75 5.46 6.25 8.25-1.65 1.61-2.03-1.54-5.28 3.59 3.42 1.61-4.04 5.21 1.54 2.65-1.02 1.26.91 4.47 2.18 3.03 2.65-.53 2.24 1.57 2.35-1.73 2.61.9 1.86 12.51 2.74 2.83 1.69 5.1-.36 4.01 5.13 2.73.26 2.88 2.33 3.39 2.97.41 2.76 2.11 4.52-.53 4.99 1.81.38-5.82 2.44-.6 1 2.26 3.66-.53 3.36-2.07 2.15 1.7 3.48-3.56 5.74.66 4.77-2.9 3.49 3.16 3.08-1.9 1.29 3.29.95-1.41 5.87-.2-.62-2.17 2.71-.76-1.65-4.95.69-5.98-3.43-6.12-2.8.29-3.28-3.95-1.24-.3-3.14-4.31-7.69 1.32-7.98.61-2.18-.38-7.43 2.97-1.72 3.88-4.34.33 2.55-4.71-2.15-3.79 3.71-4.34-3.5-1.86-1.16-11.65 1.74.06-1.23-3.02-.54-8.69-.49 1.78-3.88-8.12-.14-2.59-3.52-1.9.5-1.7-2.65-4.86 6.21-1.45 1.08-4.73-1.26-2.12z" /></g></g></svg>