<?xml version="1.0" encoding="utf-8"?><svg xmlns="http://www.w3.org/2000/svg" version="1.1" baseProfile="tiny" width="800" height="600" viewBox="0 0 800 600"><g><g stroke="#000000" stroke-width=".98" fill="#FFFFFF"><path d="m40.23 385l-5.26-2.39-1.46-2.11.46 1.55-1.07 5.04 2.86 1.08 3.03.38 1.67-.24-.23-3.31z" /><path d="m46.67 406.85l1.17-1.97 1.01.56.01-1.84 1.65-1.58-.53-1.46 1.72-1.88.06-1.57 2.79-1.45 1.31-.01 3.97 2.91 1.48-3.28-.47-1.45-2.06-.29-.63-2.52-2.24-.89-.57-4.86-1.85-4.28 1.1-1.94-6.93.28-1.33 1.94-2.41 2.12-3.69 1.61.23 3.31-1.67.24 2.95 1.08.58 3.06-1.31 2.28 1.96 7.64 1.95 3.11 1.75 1.13z" /><path d="m55.22 376.56l-2.16-3.21-2.21-2.42-3.03-2.35-.35-1.19-1.56 1.08-2.64-1.15-3.76.71.13 2.01-.91 1.03-3.91-.55-1.79 2.8-.44 3.58.72 1.49-.95 1.15 1.15.96 1.46 2.11 5.26 2.39 3.69-1.61 2.41-2.12 1.33-1.94 6.93-.28 1.12-1.29-.49-1.2z" /><path d="m43.78 366.41l-2.36.4-2.79-1.32-2.47-.34-.92 2.79-1.15-1.41-2.7-.97-.27-1.39-3.62.46-4.18-1.3-1.93-2.41-1.94-.32-.94 1.32-1.17 4.19 1.75 2.96.02 1.85 1.37 5.63-.36 3.06 5.28 5.46 1.23 1.77 3.99.14 2.28.11 1.07-5.04-.46-1.55-1.15-.96.95-1.15-.72-1.49.44-3.58 1.79-2.8 3.91.55.91-1.03-.13-2.01 3.76-.71.51-.91z" /><path d="m30.62 386.98l1.21 3.79-.91.09 1.17 2.81 2.51 2.46-.58 1.48-2.21 1.08.44 1.64-1.08 1.5 1.9 1.25-2.76 1.79 2.48 2.26-3.1 2.64 2.85 2.71 3.02-2.07 2.08 2.35 2.34.38 2.05 3.02 5.68-2.16 3.59 1.1 2.21-1.07-2.3-3.85-4.54-3.33-1.75-1.13-1.95-3.11-1.96-7.64 1.31-2.28-.58-3.06-2.95-1.08-3.03-.38-2.86-1.08-2.28-.11z" /><path d="m78.86 316.19l-1.88-.68-.66-1.45-1.23.08-1.54-1.82-.32-2.01-3.9-2.71 3.61-2.61 2.03-.63 1.11-1.44.08-1.79 1.27.55 5.6-5.04.91-1.81-.6-4.23-2.16-3.35-.79.56-2.29-2.26-5.22 9.13-1.85-.38-2.16 1.67-.5 2-4.44 1.37-.09 2.76-2.01-.4-3.41 1.18-3.71.45-6.36 1.5-2.23-3.53-2.22.65-5.13-1.64.71 1.79-2.82-.33-7.59.09-2.33.66.39 2.02-2.92.08-1.5 1.8.24 1.07-2.96-.05-1.17 1.57.06 3.43-2.29-.78-1.39 1 .66 1.37-1.07 1.94-1.25-.35-1.14 1.95-2.13 1.45.36 1.35-1.84.55-.12 2.97 1.31 3.34-2 1.79.44 2.9-.99 2.54-2.43.24.88 2.04-.42 1.43.51 3.14 3.77.58-.42 2.22 4.8 2.93-2.24 3.17.52 2.42 2.18 4.49 0 .84 3.94 1.57.93 1.07 1.94.32 1.93 2.41 4.18 1.3 3.62-.46.27 1.39 2.7.97 1.15 1.41.92-2.79 2.47.34 2.79 1.32 2.36-.4 1.11-.62 1.72-3.46 1.56-2.04-1.46-4.06 1.68-3.15 1.69.84 2.28-2.53-.69-2.14 2.28-1.3-.93-2.37 1.54-1.96-.09-1.75 1.97-1.45 3.78-.15.92.94-.03-2.8 2.52-2.89-1-1.47.99-.42.61-2.73 2.35.66 2.18-2.2 2.02-3.07 1.5-.26-1.46-2.21 1.94-2.94 2 .37 2.04-2.3-.63-1.18 2.69-1.58z" /><path d="m89.15 358.8l.21-1.38-1.36-1.59 3.68-4.14.84-2.25-3.04-4.84-2.12.71-1.39-1.14.76-1.16-1.32-1.32-.1-3.82-2.2-.47.7-2.24-1.96-.57-1.15-2.14 1.98-.62-.07-1.19-4.23-.4-1.79-2.94-4.05-.32-.26-.95-1.5.26-2.02 3.07-2.18 2.2-2.35-.66-.61 2.73-.99.42 1 1.47-2.52 2.89.03 2.8-.92-.94-3.78.15-1.97 1.45.09 1.75-1.54 1.96.93 2.37-2.28 1.3.69 2.14-2.28 2.53-1.69-.84-1.68 3.15 1.46 4.06-1.56 2.04-1.72 3.46-1.11.62-.51.91 2.64 1.15 1.56-1.08.35 1.19 3.03 2.35 2.21 2.42 2.16 3.21 2.26-.61-2.81-3.21 1.49-1.68.93.91 3.06-2.74.46.78 3.64-.44.84 1.06 3.26.01 4.3-2.76.77-4.96 2.85 1.26 2.83-2.28.09-1.13 2.39-.54 2.36 2.08 5.21-3.51z" /><path d="m96.03 365l-1.62-2.36-.85.25-2.88-2.85-.75-2.14-.78.9-5.21 3.51-2.36-2.08-2.39.54-.09 1.13-2.83 2.28-2.85-1.26-.77 4.96-4.3 2.76-3.26-.01-.84-1.06-3.64.44-.46-.78-3.06 2.74-.93-.91-1.49 1.68 2.81 3.21-2.26.61.49 1.2-1.12 1.29-1.1 1.94 1.85 4.28.57 4.86 2.24.89.63 2.52 2.06.29.47 1.45-1.48 3.28-3.97-2.91-1.31.01-2.79 1.45-.06 1.57-1.72 1.88.53 1.46-1.65 1.58-.01 1.84-1.01-.56-1.17 1.97 4.54 3.33 2.3 3.85.57 2.22 2.22-2.69 1.12-.42 2-2.74 3.55-1.09-1.04-3.5.88-.39 1.4 1.9 1.6-2.1 1.02.45.79-2.35 2.02-.67.69-1.41-1.34-.93-2.46 1.25-1.36-2.16-1.1-.27 1.19-3.18-1.09-1.74 4.87 1.46 3.01-1.49.91-1.28 1.62.81 1.87-2.37-1.29-.53-.72-2.17 1.08-3.03 2.18.59.69-1.15 1.15 1.98-1.9 1.69.43.83 2.69.15 1.81 1.98 1.57-.16 1.71-1.56 1.31.46 2.89-3.85 1.93.99 1.11-1.58.96.41 1.6-5.65-1.14.71-1.73-1.47 3.12-3.9-6.29-2.58 1.64-3.53 4.78-4.97z" /><path d="m87.16 390.42l-1.31-.46-1.71 1.56-1.57.16-1.81-1.98-2.69-.15-.43-.83 1.9-1.69-1.15-1.98-.69 1.15-2.18-.59-1.08 3.03.72 2.17 1.29.53-1.87 2.37-1.62-.81-.91 1.28-3.01 1.49-4.87-1.46 1.09 1.74-1.19 3.18 1.1.27 1.36 2.16 2.46-1.25 1.34.93-.69 1.41-2.02.67-.79 2.35-1.02-.45-1.6 2.1-1.4-1.9-.88.39 1.04 3.5-3.55 1.09-2 2.74-1.12.42-2.22 2.69.39 2.33 3.8 1.84 3.59-.09 3.9 1.04 5.51 8.06 2.7 1.72 1.34 3.36 2.45 2.98.37 2.41 1.77 5.03 2.74 1.61 3.03 2.74 3.23.31 2.75 3.37.52 4.28 2.76 4.05 2.26-1.18 2.85-.02 2.82 4.13 7.61 6.81 1.85 3.28 3.73-3.13-.6-1.82 1.56-1.31-1.12-.63.99-2.33 3.17.15 1.01.96 1.35-2.39 3.18-1.03 1.13-1.76-.2-4.51 1.86-3.55 3.76-.86 2.19-3.28 4.14-1.84 1.9-1.57.2-1.7-2.1-1.98 2.29-2.85-.08-2.91-1.02-.9-1.11-.06-1.54-3.56-1.06.18-1.76-1.9-2.12-4.81-1.31-.03-1.1-2.56-1.68-.56-1.13-2.6-1.56-.95 1.17-.98-1.26-2.79-5.61-2.15-2.17.16-1.61-1.57-1.18.11.35-1.86-1.82-.8.07-2.2-1.68.56-2.14-1.89-3.34-.38.76-1.6-.65-2.11-1.23.43-1.67 3.44-.77-3.04-1.88.51-.31-2.46-1.42 1.08-2.17.31-.6-1.1 1.23-.81-.29-1.44-1.47-.13-1.24 1.61-1.45-1.91-1.51-.01-1.77-1.38-.29-3.41-2.02.24-.16-2.23z" /><path d="m144.37 355.42l-1.98 1.22-.27-1.53-2.3-1.75-2.85 1.32 1.13 4.01-3.58 1.01-1.84-1.8-.76-1.81-1.24-.61-1.22 2.2-.36 2.58-2.69-1.43-.13.64-3.37.41-2.53 2.2 1.91 2.03-1.12.05-.87 2.1-4.86.55-.56 2.01-4.39-.23-1.88-.59-1.55.99-2.07 2.71-3.19 2-3.96-6.58-1.81-2.12-4.78 4.97-1.64 3.53 6.29 2.58-3.12 3.9 1.73 1.47 1.14-.71-1.6 5.65-.96-.41-1.11 1.58-1.93-.99-2.89 3.85.16 2.23 2.02-.24.29 3.41 1.77 1.38 1.51.01 1.45 1.91 1.24-1.61 1.47.13.29 1.44-1.23.81.6 1.1 2.17-.31 1.42-1.08.31 2.46 1.88-.51.77 3.04 1.67-3.44 1.23-.43.65 2.11-.76 1.6 3.34.38 2.14 1.89 1.68-.56-.07 2.2 1.82.8-.35 1.86 1.18-.11 1.61 1.57 2.17-.16 5.61 2.15 1.26 2.79-1.17.98 1.56.95 1.13 2.6 1.68.56 1.1 2.56 1.31.03 2.12 4.81 1.76 1.9 1.06-.18 1.54 3.56 1.11.06.16-2.84.97-2.38-1.11-4.08.86-2.59-.68-.91 2.41-2.23-.33-2.52-1.12-1.51-2.38-.48-1.96-2.05 1.91-1.04-.96-1.65-4.2 1.98-1.45-2.36.84-2.45 2.13-3.41-.81-1.72-4.39-5.76-2.98-2.09 3.42-1.71 2.28.41.55 1.85 2.35-1.23.78-1.93 1.17-.33-3.55-4.16.17-1.16 2.86-1.74 2.01 3.98.97-1.27 4.76-1.97.97-2.82-1.58-2.52-2.18-1.55-.56-2.8 1.91-1.46-1.02-1.59 1.4-1.14 1.01-2.65-.69-1.43-2.94-.72-.49-1.55 2.07-1.86.79-5.2 1.62-.88-.28-2.13z" /><path d="m146.07 319.46l-1.48-.22-2.43 1.07.34 2.53-2.74 1.27-1.34-1.23.07-1.91-2.73-2.07-.71 2.07 1.03.33-1.15 1.68-.42 2.43-1.91.14-1.03 2.77-4.88-1.54-3.57-3.99-.24.23 1.34 2.85-1.3 2.19.65 3.35-1.13 1.97 1.67 3.63 3.33.22.99 1.77-1.82 2.55.42 1.56-.9 3.45.65 1.02-2.05 1.79-1.17-.08-.27 2.24 4.3 1.74 3.09 2.21 1.24.61.76 1.81 1.84 1.8 3.58-1.01-1.13-4.01 2.85-1.32 2.3 1.75.27 1.53 1.98-1.22-.18-.68 2.21-1.26 1.85-3.53 3.55-4.05.73-2.31 2.04-4.1 1.67-1.08.2-1.56 1.71.41-.18-1.11 2.16-2.98.71.41.44-.98-4.09-3.62-2.11-2.83-3.3-2.73-5.72-2.4.01-1.56z" /><path d="m131.08 285.76l-1.55-1.17-1.99.67-1.64 1.64-1.99.72-1.98-.66-.41 1.11-3.56-1.97-.57 2.03 1.04 3.3-2.88.63-3.73.14-.52 2.36 1 1.68-2.17 2.06.69 2.67-1.54.02-1.4 2.46.14 1.48 2.74.27 1.49 1.67.68 2.19 4.66 6.32-.53.84 2.99 3.33.83-.69 2 4.16.24-.23 3.57 3.99 4.88 1.54 1.03-2.77 1.91-.14.42-2.43 1.15-1.68-1.03-.33.71-2.07 2.73 2.07-.07 1.91 1.34 1.23 2.74-1.27-.34-2.53 2.43-1.07 1.48.22 2.88-2.05-.14-1.35 1.55-4.48 2.22-1.91 1.77-4.19 2.54 1.34.38 1.12 4.58.23-.27-1.59 3.36.2 1.53-1.68-.49-2.67-2.12.04-.5-2.06-3.68-.43-1.12-.92-2.32-.26-1.07-1.43-2.35.74-.05-1.39-1.82-1.09-1.32 1.23-2.21-2.49.25-1.57-2.14-.67-.65 2.82-5.29-.74-4.81-2.66-1.76-2.31-.08-1.36-1.86-2.12z" /><path d="m105.51 293.9l-3.32-4.75.5-1.1-.76-2.57-3.22-3.93.78-2.17-1.64-1.41 1.18-1.98.82-3.09 1.38.4.91-2.03-.35-1.89-1.38-.66-.44-3.17-2.26-.35-3.7-1.93-.77-3.67-1.14-.41-1.53 2.02-2.07 1.1-1.79-.16-.92-1.39-1.74-.22-1.3 1.31-.39 2.53-3.79 3.98-3.74.1-5.23.74.55 2.77-.49 1.83-1.96.25-3.48-1.31-2.02-.16-.27 1.02-2.37.57-1.15 2.61-3.39.41.62-1.67-1-2.5-4.23 1.98-2.05-1.1-3.13.32-2.23 1.44-2.56-.48-2.05 1.91-3.69-.66-1.67 1.08-1.88-1.81-1.75 2.16-.15 4.43-2.31 4.46-2.32 1.17.05 2.06-1.28 1.11.38 3.67-.73 2.36.98 2.43-.42 1.56 1.35 1.74-.74 1.77 2.92-.08-.39-2.02 2.33-.66 7.59-.09 2.82.33-.71-1.79 5.13 1.64 2.22-.65 2.23 3.53 6.36-1.5 3.71-.45 3.41-1.18 2.01.4.09-2.76 4.44-1.37.5-2 2.16-1.67 1.85.38 5.22-9.13 2.29 2.26.79-.56 2.16 3.35.6 4.23-.91 1.81-5.6 5.04-1.27-.55-.08 1.79-1.11 1.44-2.03.63-3.61 2.61 3.9 2.71.32 2.01 1.54 1.82 1.23-.08.66 1.45 1.88.68.87-.83-2.9-.9 1.91-.55.91-3.82 2.32-2.87 2.78-2.13 4.66 1.47 3.43-1.3.88 1.4 2.42-2.75-.09-1.56 3.67-1.32.29-1.56 4.1-5.3 1.4-.27z" /><path d="m90.64 253.79l-2.31-1.46-2.37.92-.86-1.83-2.99-2.3-.95-2.91-2.15.14-3.07-2.51-.39-1.29-2.45-.28-1.77-1.67-3.69-.99-2.02-1.75-1.38.57-2.87 3.16-1.67.81-1.38 1.72-5.95 2.08-.98 1.5-.58 3.92-1.9 1.45-.65 2.35-2.58.83-3.56 2.44-1.01 2.47-1.77 1.51-2.28 3.3-.35 1.87-2.3 1.95-.43 3.5-2.83 2.41 1.88 1.81 1.67-1.08 3.69.66 2.05-1.91 2.56.48 2.23-1.44 3.13-.32 2.05 1.1 4.23-1.98 1 2.5-.62 1.67 3.39-.41 1.15-2.61 2.37-.57.27-1.02 2.02.16 3.48 1.31 1.96-.25.49-1.83-.55-2.77 5.23-.74 3.74-.1 3.79-3.98.39-2.53 1.3-1.31 2.16-1.75 3.24-1.08 1.19-3.92z" /><path d="m231.99 161.91l-2.34-.35-4.25.96-.3-.4-2.98.8.2.87-4.27.43-3.32 1.23-.34 4.36 1.69 2.21-.33 2.13 1.03 4.19 1.08.34 1.21 2.7-.19 1.37 1.5-.73 4.04 1.05-.77 1.1-.28 5.49 2.05 1.81 1.93.74-.4 1.79 1.32 1.6-.19 2.55 1.18.73.48 4.11 1.83-.16.34 1.52-2.44 2.29 1.79.93-1.13.94.41 4.89.51.88-1.72 1.21-.68 2.38 1.24 2.37-.13 1.47 1.24 1.87-.53 3.18 2.34 1.61-.13 1.66 2.13 1.83 1.4-.05 1.62 1.59-.32 2.51.57 1.58 4.48-1.12 1.35-1.44.64-2.29 3.25-1.7.87.27 4.28-1.13 4.46-5.01.72-3.46-.89-1.53 1.06-.85-.13-4.18-2.96-3.27-2.46-.24.68-1.33 2.82-1.98 1.46-1.75-.37-1.48-1.58-.81.35-3.88-2.85-.98.38-1.64-2.72-2.16-2.18-.62-1.08-2.06-1.51-.41-2.06-2.23-1.61-.58-.24-3.18-2.07-1.48.49-1.47-1.1-1.51-.55-3.52-1.02-1.37.61-1.15-1.02-2.31-2.87-3.96-.65-2.91-1.84-1.61-.23-3.25z" /><path d="m111.82 292.2l-2.14-1.67-2.09.95-.63 1.9-1.45.52-1.4.27-4.1 5.3-.29 1.56-3.67 1.32.09 1.56-2.42 2.75-.88-1.4-3.43 1.3-4.66-1.47-2.78 2.13-2.32 2.87-.91 3.82-1.91.55 2.9.9-.87.83-2.69 1.58.63 1.18-2.04 2.3-2-.37-1.94 2.94 1.46 2.21.26.95 4.05.32 1.79 2.94 4.23.4.07 1.19-1.98.62 1.15 2.14 1.96.57-.7 2.24 2.2.47.1 3.82 1.32 1.32-.76 1.16 1.39 1.14 2.12-.71 3.04 4.84-.84 2.25-3.68 4.14 1.36 1.59-.21 1.38.78-.9.75 2.14 2.88 2.85.85-.25 1.62 2.36 1.81 2.12 3.96 6.58 3.19-2 2.07-2.71 1.55-.99 1.88.59 4.39.23.56-2.01 4.86-.55.87-2.1 1.12-.05-1.91-2.03 2.53-2.2 3.37-.41.13-.64 2.69 1.43.36-2.58 1.22-2.2-3.09-2.21-4.3-1.74.27-2.24 1.17.08 2.05-1.79-.65-1.02.9-3.45-.42-1.56 1.82-2.55-.99-1.77-3.33-.22-1.67-3.63 1.13-1.97-.65-3.35 1.3-2.19-1.34-2.85-2-4.16-.83.69-2.99-3.33.53-.84-4.66-6.32-.68-2.19-1.49-1.67-2.74-.27-.14-1.48 1.4-2.46 1.54-.02-.69-2.67 2.17-2.06-1-1.68.52-2.36z" /><path d="m219.08 248.53l-1.86 1.21-.83 1.69-1.73.21-2.82-1.78-7.29 2.25.05 2.05-1.47 1.31-1.48 3.2-.52 6.6 1.37 3.02-.31 2.96-1.44.27-1.58 1.56-2.03-.88-.94-1.58-.6 1.59-2.45-1.09-.97.45.84 1.8-1.81 1.02-1.53-.32-1.27 3.08-4.32 1.07-2.26-3.34-3.93-1.77-1.17-1.57-1.28 2.16-3.66 1.2-.99 2.52-.19 2.59.82 2 2.59.19.01 2.11 2.2-.23 2.12 1.9 2.92.42 2.13 1.29 1.29-1.07 4.52 6.23.63 2.37 1.96 3.21 2.77-.48 1.75 2.98 1.38.55.83-2.84-.64-1.36 2.41-.95 4.27 1.94 2.15-.93 1.44-2.46 1.88 1.17 2.12-.51-.42 1.6 1.14-.01 1.48 2.7 2.05-2.4.56-4.77-.51-2.34 1.98-.09 1.51-2.03 1.82.19-1.56-3.84.88-2.55 3.8-1.13 1.61.66 3.58-2.36.15-1.99 1.12-1.19-.69-1.26.83-1.99-1.3-.84-.56-3.05-1.14-.43-.64-2.98 2.1-4.62-1.2-3.13-1.64-.37-.65-1.39-3.5-.74-.06-2.58-1.23-1.14-.11-1.99-2.48-.95z" /><path d="m234.81 231.86l-2.25 2.01-2.94-.09-1.17-1.28-2.37-1.01.77-1.25-3.3-6.05-1.97-.18-4.27-5.89.62-.76-2.65-1.7-2.32.96-.17 2.77-2.5-2.55-1.09-3.11-1.26.34-1.31-1.07-.23-2.6-3.14-6.2-2.43-3.6-1.75-.29.02-3.45-1.78-1.58-2.77-.26-1.73 1.77 1.79 3.5-1.69.78.37 4.46-3.02 4.88-.48.78.93 2.45-1.33 2.82.41 3.72 1.91 4.47.62 4.21 1.46 1.61 1.61.39-2.09 2.09 1.26 2-2.65 2.69 1.72 1.99 1.98-.33 1.76 2.68 1.85 1.44 3.34-1.65 5.58 2.24 4.13-2.19 6.55.9 1.29-1.65 2.66 1.55 2.46-2.54 3.96 2.4.18 2.19 3.8 1.46.34 2.43 1.22 1.14 2.1-2.25 3.26-.3 1.23-1.2.33-1.91 1.73-1.36-.27-1.42-4.11-.57-1.14-1.91.21-1.29-.57-1.58.32-2.51-1.62-1.59-1.4.05z" /><path d="m263.49 157.7l-.5-2.12-3.4 1.46-2.08-1.37-1.79 0-2.83 2.01-1.48-1.52-1.49 1.79-5.04 1.12-2.24 1.07-1.08-.71-1.62.87-1.68-.21-.9-1.47-1.38.5-1.62 1.89-2.37.9.23 3.25 1.84 1.61.65 2.91 2.87 3.96 1.02 2.31-.61 1.15 1.02 1.37.55 3.52 1.1 1.51-.49 1.47 2.07 1.48.24 3.18 1.61.58 2.06 2.23 1.51.41 1.08 2.06 2.18.62 2.72 2.16-.38 1.64 2.85.98-.35 3.88 1.58.81.37 1.48 2.8-2.58 1.85.37-.77-2.94-.87-1.09.78-3.53.03-4.65-1.14-1.75 1.79-2.84-.34-1.43-2.08-2.07 1.85-1.5 4.89-2.06.55-2.39-1.99-1.27-2.37-5.16.09-2.45-.84-3.77.56-1.38-1.3-2.09.07-3.05 2.22-1.15z" /><path d="m121.65 250.8l-2.61-.01-1.24 2.53-2.91.57-2.44-1.8-.07 1.84-1.21 1.16-1.13-.59-1.5 1.24-1.61-1.55.66-2.09-1.44 1.87-3.95-4.88-3.1-1.41-2.56 1.02-1.48 2.81-1.1-.73-3.32 3.01-1.19 3.92-3.24 1.08-2.16 1.75 1.74.22.92 1.39 1.79.16 2.07-1.1 1.53-2.02 1.14.41.77 3.67 3.7 1.93 2.26.35.44 3.17 1.38.66.35 1.89-.91 2.03-1.38-.4-.82 3.09-1.18 1.98 1.64 1.41-.78 2.17 3.22 3.93.76 2.57-.5 1.1 3.32 4.75 1.45-.52.63-1.9 2.09-.95 2.14 1.67 3.73-.14 2.88-.63-1.04-3.3.57-2.03 3.56 1.97.41-1.11 1.98.66 1.99-.72 1.64-1.64 1.99-.67 1.55 1.17 1.11-2.55-1.72-1.63.72-1.03-1.09-2.68.65-2.17 1.6-2.43-1.57-3.3-.92-.12-1.87-2.4-1.5.8-3.41-.09-.69-1.47 1.92.32-2.47-3.04.41-1.48-1.19-2.45.01-4.75-.66-1.32 1.24-3.17z" /><path d="m153.51 236.29l-8.53-.55.02 1.78-4.01 2.58-2.9 4.2-2.36 1.13-2.61 2.7-1.63-.59-3.15 1.36-4.8-.59-1.85 1.52-.04.97-1.24 3.17.66 1.32-.01 4.75 1.19 2.45-.41 1.48 2.47 3.04-1.92-.32.69 1.47 3.41.09 1.5-.8 1.87 2.4.92.12 1.57 3.3-1.6 2.43-.65 2.17 1.09 2.68-.72 1.03 1.72 1.63-1.11 2.55 1.86 2.12.08 1.36 1.76 2.31 4.81 2.66 5.29.74.65-2.82 2.14.67-.25 1.57 2.21 2.49 1.32-1.23 1.82 1.09.05 1.39 2.35-.74 1.07 1.43 2.32.26 1.12.92 3.68.43.5 2.06 2.12-.04 1.61-1.53.76.72 1.69-1.51 1.14.59.02-1.93 1.09-.96-.24-3.52-1.5-1.18-.22-3.64-1.04-1.11.49-1.51-.48-3.42 2.13-1.42-.82-2 .19-2.59.99-2.52-1.23-1.38-1.42.65-1.87-5.51.37-3.99-3.61.06-1.31-1.08.31-2.4-5.24-1.34-2.6 2.12-.79-1.68 1.79-3.91-.94-2.32-3.27-6.01-.97-4.26 1.21-2.7 1.03-.04.26-4.82z" /><path d="m221.77 288.39l-1.82-.19-1.51 2.03-1.98.09.51 2.34-.56 4.77-2.05 2.4-1.48-2.7-1.14.01.42-1.6-2.12.51-1.88-1.17-1.44 2.46-2.15.93-4.27-1.94-2.41.95.64 1.36-.83 2.84 2.37.48 3.59 4.44-3.4 3.83-2.87 2.37 1.1 2.16 1.58.03-1.38 2.46 3.56.07 4.23 3.5.93 2.92 1.59 2.84.22 3.58 3.44 1.75 1.42-.67 2.52.17 3.03-1.16 4.08-3.85 4.04-1.39 2.95-1.93.78-1.33 1.48-.29 1.19-.05 1.77-3.84-.77-2.09-2.38-2.27-.64-4 1.38-1.77-3.51-3.13-.94-1.63 2.74-1.03 1.19-1.8-.95-1.23.22-4.13-.74-1.11-4.74.78-1.62-3.9-2.11.66-1.28-2.53z" /><path d="m235.65 366.31l1.51.37.22-1.95 1.62-.58-.36-1.15 3.16-1.5.22-2.45 1.34-.99-1.42-8.87-3.16-.59 1.43-3.24-1.4-.83-.13-2.6-1.61.06 1.66-3.06 2.28-1.98-2.17.41 1.49-5.04-2.11-2.13-3.6.04-.18 1.47-1.81.01.01-.99 3.43-3.91-1.81-4.25-1.3-1.1-1.48.29-.78 1.33-2.95 1.93-4.04 1.39-4.08 3.85-3.03 1.16-2.52-.17-1.42.67-3.44-1.75-2.59.41-1.72 1.14-2.62.05-3.56 4.07-2.07.92-.32 1.24-4.46 2.85.17 1.38 2.64 3.36 1.55.91-.38 1.3 2.53 1.28-.27 2.26 2.62 3.68-1.04 2.23 1.03 2.04-1.07-.03-2.5 2.9 2.27 2.13.49 2.65 1.53-1.34 1.26.78.62 1.78 1.84-.48.55 1.36-.58 1.93 5.79.98 1.2.94-1.25 1.07.04 1.67 2.75 1.63 4.43 1.41-.94-3.42 2.24-.53 1.28-1.21 1.68.24 4 4.07 2.17.04-.76-1.55-1.65-.9-.01-1.49 2.09-.8.72-1.69-1.21-2.07 1.49-1.65-1.19-1.75 2.9-.3 2.5.81 2.24-.15z" /><path d="m261.02 237.63l-4.11-.12-1.45 1.26-1-3.05-3.53 3.06.01 1.1-3.07.41-2.21 1.82-2.54-.85.27 1.42-1.73 1.36-.33 1.91-1.23 1.2-3.26.3-2.1 2.25-1.22-1.14-.34-2.43-3.8-1.46-.18-2.19-3.96-2.4-2.46 2.54-2.66-1.55-1.29 1.65.16 2.32-.79.82.88 2.67 2.48.95.11 1.99 1.23 1.14.06 2.58 3.5.74.65 1.39 1.64.37 1.2 3.13-2.1 4.62.64 2.98 1.14.43.56 3.05 1.3.84-.83 1.99.69 1.26-1.12 1.19-.15 1.99-3.58 2.36-1.61-.66-3.8 1.13-.88 2.55 1.56 3.84 1.28 2.53 2.11-.66 1.62 3.9 4.74-.78.74 1.11-.22 4.13.95 1.23-1.19 1.8-2.74 1.03.94 1.63 3.51 3.13-1.38 1.77.64 4 2.38 2.27.77 2.09.22.99 4.14.87 4.85-1.41 1.79-1.38 2.73.68.44-2.8 3.32-3.56 2.09-3.34 1.62-1.69 1.63-1.25 1.36 1.11 3.14 1.03 1.16-.25 2.27 1.53.59-1.36-.53-3.15 2.87-1.35 1.93-2.49 1.41-4.67 1.21-1.02 2.37.89 2.23-1.23 2.48-4.14 2.22-2.89.12-1.58-.1-1.95-1.66-1.92-.04-1.47-2.03-2.9-2.19-2.18.73-2.44-1.41-.62 1.23-1.17-1.74-.36-1.86-1.46.37-1.36-3.08-1.3-.74-1.31-3.22-2.26.67-4.98-.4-2.04 1.79-2.77-1.61-2.98.64-1.62-.23-2.14 2.19-.08 1.44-1.61-.85-2.18-2.27-2.56-4.01.31-2.98-1.11-1.2-1.02z" /><path d="m214.73 165.45l-3.5-.44-5.26 1.28-.27 3.54-3.09 1.63-.42 1.27-1.77.95-.81 4.02 1.6.08-1.35 2.89-.02 2.06-2.79 3.12-.49 4.17.78 1.61-2.57 1.48-.22 1.91 2.77.26 1.78 1.58-.02 3.45 1.75.29 2.43 3.6 3.14 6.2.23 2.6 1.31 1.07 1.26-.34 1.09 3.11 2.5 2.55.17-2.77 2.32-.96 2.65 1.7-.62.76 4.27 5.89 1.97.18 3.3 6.05-.77 1.25 2.37 1.01 1.17 1.28 2.94.09 2.25-2.01-2.13-1.83.13-1.66-2.34-1.61.53-3.18-1.24-1.87.13-1.47-1.24-2.37.68-2.38 1.72-1.21-.51-.88-.41-4.89 1.13-.94-1.79-.93 2.44-2.29-.34-1.52-1.83.16-.48-4.11-1.18-.73.19-2.55-1.32-1.6.4-1.79-1.93-.74-2.05-1.81.28-5.49.77-1.1-4.04-1.05-1.5.73.19-1.37-1.21-2.7-1.08-.34-1.03-4.19.33-2.13-1.69-2.21.34-4.36z" /><path d="m218.83 242.72l-6.55-.9-4.13 2.19-5.58-2.24-3.34 1.65-1.85-1.44-1.76-2.68-1.98.33-1.72-1.99 2.65-2.69-1.26-2 2.09-2.09-1.61-.39-1.46-1.61-.62-4.21-1.91-4.47-.41-3.72 1.33-2.82-.93-2.45.48-.78-.88.46.47 1.29-1.61 1.12-2.04 2.89-6.56 2.84-2.32-.23-2.08-1.67-2.16 1.02-3.26-.78-3.74.7-1.57 1.73-.45 3.75-1.37 1.55-.89 3.1.37 1.07-2.29 3.96-.79 3.32-2.32.85-3.27-1.09-.26 4.82-1.03.04-1.21 2.7.97 4.26 3.27 6.01.94 2.32-1.79 3.91.79 1.68 2.6-2.12 5.24 1.34-.31 2.4 1.31 1.08 3.61-.06-.37 3.99 1.87 5.51 1.42-.65 1.23 1.38 3.66-1.2 1.28-2.16 1.17 1.57 3.93 1.77 2.26 3.34 4.32-1.07 1.27-3.08 1.53.32 1.81-1.02-.84-1.8.97-.45 2.45 1.09.6-1.59.94 1.58 2.03.88 1.58-1.56 1.44-.27.31-2.96-1.37-3.02.52-6.6 1.48-3.2 1.47-1.31-.05-2.05 7.29-2.25 2.82 1.78 1.73-.21.83-1.69 1.86-1.21-.88-2.67.79-.82-.16-2.32z" /><path d="m140.79 429.85l-.97 2.38-.16 2.84 1.02.9.08 2.91-2.29 2.85 2.1 1.98-.2 1.7-1.9 1.57-4.14 1.84-2.19 3.28-3.76.86-1.86 3.55.2 4.51-1.13 1.76-3.18 1.03-1.35 2.39-1.01-.96-3.17-.15-.99 2.33 1.12.63-1.56 1.31.6 1.82-3.73 3.13.95.88 7.01 1.93 2.16 2.21 3.64-.72 2.79 1.17 4.85-.7 4.46 1.68 2.68-.61 4.29.16 3.02-2.03 1.91.11 2.88 2.07 5.02-1.47 7.51.71 7.86 2.53 3.38 1.59 2.55.46 3.45-.16 5.47 1.13 4.63 2.02 6.4-.77 5.39-1.05 2.62-1.06 5.4-.53 3.16-1.64 2.83.92 2.35 2.04 3.07-.24-.28-7.76 3.86 2.14-.86-3.4.54-3.16-3.59-.68-2.99-3.56-.13-1-3.46-1.95-4.59-4.78-.25.34-6.29-2.06-.92-1.24-.15-2.53-1.53-1.96 2.24-4-3.79-4.12-2.97 2.87-3.14-3.12-1.8-.8-4.51-4.28-2.35-.64-1.23 1.97-.92-1.13-5.35 1.99-1.9-2.1-.11-2.39-2.03-1.9-.9.54-2.16-.88-.6 1.34-2.07.47.08 1.58-1.59 1.41-.98-1.14-1.05 1.15-1.83-1.22-.59 1.15-5.78.39.18-2.15 2.01-1.42-1.77-4.49-.15.97-5.56 2.38-4.81-2.63-1.7-1.59-2.73.19-2.76-1.89z" /><path d="m267.83 352.74l-.62-1.16-1.92-.2-2.61 3.27-2.31 1.23.54.74-2.1 1.49-.01 1.47-1.36.05-.19 2.99-3.91 2.59.05-1.18-2.35-.79-3.23 1.83-5.06-1.26-2.42 1.53-.35 2.34-1.93 1.12-1.12 2.41.05-3.39-1.33-1.51-2.24.15-2.5-.81-2.9.3 1.19 1.75-1.49 1.65 1.21 2.07-.72 1.69-2.09.8.01 1.49 1.65.9.76 1.55-2.17-.04-4-4.07-1.68-.24-1.28 1.21-2.24.53.94 3.42 3.16 3.15.9 2.88-1.46.1-2.5 3.18-1.92-.25-2.01 1.22-4.92-1.46-.51 2.48 1.55 1.87-.39 1.2-1.82 1.17.21 2.11.25 3.07 4.11 2.35.21 2.08 7.26 2.69 1.25 1.44 1.49 5.5-1.11.41-.49 3.42-4.26-1.62.89 3.86 1.89 2.35.09 1.99-1.09 1.72 1.11 3.16 2.44 1.77-2.18 2.36 1.46 1.92-2.1 2.37-.42 1.45.5 3.79 1.28 2.26.55-.63 1.87 2.17 2.38.31 4.81 2.38 2.72-2.82.8.77 2.91.47 2.06 1.31 3.91-2.72 3.33 1.62.01.77 2.26.66 3.01-2.34 3.44 1.4 7.14.09 1.09.81.69-2.31-2.7-4.12 2.07-1.93 4.16.35 2.53-1.6.94-2.53-.56-3.09 1.64-1.83-.72-1.96 1.3-.28 2.44-2.09 3.93 1.49 2.44-1.32 2.34.8 2.73-1.03 2.21-.19 3.57.52 1.48.97 1.51-.83.85-2.03 1.73-.24.87-1.53.1-3.22 1.8-.67.75-2.35 2.82-1.79 2.62-3.24-.61-3.14-1.34-2.26 1.39-.76.06-2.66 1.81-1.21-1.07-.94 1.43-1.1-2.85-2.38-2.62 2.3-1.79.5-4.59.08-2.77 1.17-1.11-.44-1.63 1.79-2.02-.35-.49 3.14-3.48-.75-.85.48-6.03-2.29-.97-1.46-2.59-.98-1.15 2.27-1.73.17-.78-1.79-.29-2.97 1.39-1.68 1.41.25.45-1.46 1.64-.64-2.78-5.1 1.77-1.03-1.94-2.16 1.39-2.63 1.82-1.32 1.95-.36.6-1.45-.42-2.14 2.07-4.05-.75-3.11-1.68-.25-1.03-2.45-.55-6.34-.88-1.66-1.23-.25-3.04-3.28-3.09-5.42z" /><path d="m171.43 282.01l-2.13 1.42.48 3.42-.49 1.51 1.04 1.11.22 3.64 1.5 1.18.24 3.52-1.09.96-.02 1.93-1.14-.59-1.69 1.51-.76-.72-1.61 1.53.49 2.67-1.53 1.68-3.36-.2.27 1.59-4.58-.23-.38-1.12-2.54-1.34-1.77 4.19-2.22 1.91-1.55 4.48.14 1.35-2.88 2.05-.01 1.56 5.72 2.4 3.3 2.73 2.11 2.83 4.09 3.62-.44.98 1.9.92 3.7.46.01-1.57 2.05-.13 2.92 1.23.73 1.84 1.77.46-1.42 2.75 1.7 1.3 6.42 2.65.24-1.6 2.46-2.35.43-1.39 4.34 1.74 3.79.95 4.46-2.85.32-1.24 2.07-.92 3.56-4.07 2.62-.05 1.72-1.14 2.59-.41-.22-3.58-1.59-2.84-.93-2.92-4.23-3.5-3.56-.07 1.38-2.46-1.58-.03-1.1-2.16 2.87-2.37 3.4-3.83-3.59-4.44-2.37-.48-1.38-.55-1.75-2.98-2.77.48-1.96-3.21-.63-2.37-4.52-6.23-1.29 1.07-2.13-1.29-2.92-.42-2.12-1.9-2.2.23-.01-2.11-2.59-.19z" /><path d="m191.88 340.84l-3.79-.95-4.34-1.74-.43 1.39-2.46 2.35-.24 1.6-6.42-2.65-1.7-1.3 1.42-2.75-1.77-.46-.73-1.84-2.92-1.23-2.05.13-.01 1.57-3.7-.46-1.9-.92-.71-.41-2.16 2.98.18 1.11-1.71-.41-.2 1.56-1.67 1.08-2.04 4.1-.73 2.31-3.55 4.05-1.85 3.53-2.21 1.26.18.68.28 2.13-1.62.88-.79 5.2-2.07 1.86.49 1.55 2.94.72.69 1.43 2.19-.6.51 1.48 1.59-1 .09 1.86 1.16.42 4.77 4.08 4.24 1.45.76-.45 1 3.33-1.42-.3 1.12 5.93-3.34 4.09 1.14.85 2.67 4.12 2.16 2.83 1.14-.1 1.4 2.79 6.45-4.59 7.52-4.22-.27-.75 2.69-.78-.04.89 5.55-2.15.76 2.19-2.38 2.88.57 1.84 1.98.97 3.51-1.57 2.16-.24.98-2.85-.8-2.16.75-.45 2.24 2.1 4.4 1.27-.5 2.27 5.11 1.57 2.24.12-.21-2.11 1.82-1.17.39-1.2-1.55-1.87.51-2.48 4.92 1.46 2.01-1.22 1.92.25 2.5-3.18 1.46-.1-.9-2.88-3.16-3.15-4.43-1.41-2.75-1.63-.04-1.67 1.25-1.07-1.2-.94-5.79-.98.58-1.93-.55-1.36-1.84.48-.62-1.78-1.26-.78-1.53 1.34-.49-2.65-2.27-2.13 2.5-2.9 1.07.03-1.03-2.04 1.04-2.23-2.62-3.68.27-2.26-2.53-1.28.38-1.3-1.55-.91-2.64-3.36-.17-1.38z" /><path d="m208.39 396.31l-2.24-.12-5.11-1.57.5-2.27-4.4-1.27-2.24-2.1-.75.45.8 2.16-.98 2.85-2.16.24-3.51 1.57-1.98-.97-.57-1.84 2.38-2.88-.76-2.19-5.55 2.15.04-.89-2.69.78.27.75-7.52 4.22-6.45 4.59-1.4-2.79-1.14.1-2.16-2.83-6.16 6.58 2.4 1.23 3.22 2.92-2.96 4.67-1.46 3.6.62 2.75 2.42 3.59-.18 1.81 1.86 3.2-2.08 2.06-2.72.56.44.56-1.7 2.12.56 1.08-2.29 2.14.05 2.45 5.56-2.38.15-.97 1.77 4.49-2.01 1.42-.18 2.15 5.78-.39.59-1.15 1.83 1.22 1.05-1.15.98 1.14 1.59-1.41-.08-1.58 2.07-.47.6-1.34 2.16.88.9-.54 2.03 1.9.11 2.39 1.9 2.1 5.35-1.99.92 1.13 1.23-1.97 2.35.64 4.51 4.28 1.8.8 3.14 3.12 2.97-2.87 3.79 4.12-2.24 4 1.53 1.96.15 2.53.92 1.24 6.29 2.06.25-.34 4.59 4.78 3.46 1.95.13 1 2.99 3.56 3.59.68-.54 3.16.86 3.4-3.86-2.14.28 7.76 3.69-1.59 3.94-.04 7.3 2.41 5.75-.25 6.4-2.84 2.95-2.16 1.48-3.96.95-.93 5.92-1.15 2.56-.11 1.93.85 4.65 1.02 1.28-2.07-3.57-1.73-.79-3.59-1.05-1.13-2.45-.88-.23-1.33-3.94-1.59-.02-4.93.42-1.76-.4-3.44 2.4-2.29.04-2.55-1.09-.81-7.14-.09-3.44-1.4-3.01 2.34-2.26-.66-.01-.77-3.33-1.62-3.91 2.72-2.06-1.31-2.91-.47-.8-.77-2.72 2.82-4.81-2.38-2.38-.31-1.87-2.17-.55.63-1.28-2.26-.5-3.79.42-1.45 2.1-2.37-1.46-1.92 2.18-2.36-2.44-1.77-1.11-3.16 1.09-1.72-.09-1.99-1.89-2.35-.89-3.86 4.26 1.62.49-3.42 1.11-.41-1.49-5.5-1.25-1.44-7.26-2.69-.21-2.08-4.11-2.35-.25-3.07z" /><path d="m160.77 394.45l-2.67-4.12-1.14-.85 3.34-4.09-1.12-5.93 1.42.3-1-3.33-.76.45-4.24-1.45-4.77-4.08-1.16-.42-.09-1.86-1.59 1-.51-1.48-2.19.6-1.01 2.65-1.4 1.14 1.02 1.59-1.91 1.46.56 2.8 2.18 1.55 1.58 2.52-.97 2.82-4.76 1.97-.97 1.27-2.01-3.98-2.86 1.74-.17 1.16 3.55 4.16-1.17.33-.78 1.93-2.35 1.23-.55-1.85-2.28-.41-3.42 1.71 2.98 2.09 4.39 5.76.81 1.72-2.13 3.41-.84 2.45 1.45 2.36 4.2-1.98.96 1.65-1.91 1.04 1.96 2.05 2.38.48 1.12 1.51.33 2.52-2.41 2.23.68.91-.86 2.59 1.11 4.08 2.76 1.89 2.73-.19 1.7 1.59 4.81 2.63-.05-2.45 2.29-2.14-.56-1.08 1.7-2.12-.44-.56 2.72-.56 2.08-2.06-1.86-3.2.18-1.81-2.42-3.59-.62-2.75 1.46-3.6 2.96-4.67-3.22-2.92-2.4-1.23 6.16-6.58z" /><path d="m333.85 152.7l-1.9-.35-1.93-2.69-2.48-.6-.43 1.13-2.14-.74-1.47 2.93-2.62 1.14-4.8-1.27-1.37.55-1.05-1.5-.15-2.34 2.41-1.58.59-1.86-1.36-2.07-.35-2.32-1.71-.77 1.61-4.45-1.21-1.32 1.97-3.96-3.28-3.3-2.06-.7-4.6.79-2.88-.52-1.04-.8-3.7.62-3.71-.59-1.8 1.32-2.83.67-3.56 3.15-2.61-.62-1.78-2.15-4.34-.48-1.24-1.53-1.89.95-2.98.08-2.87.8-2.48-.47-.52-2.77-2.26.64-1.59-.42-3.21 1.22-1.81 2.99 1.55 3.74-3.3 2.09-.37 1.47-2.47 1.1-.71 1.41-1.51.42.43 1.15-1.37.38-1.34 3.31-2.75 1-1.02 1.87-2.08.01-2.92-1.58-1.16.4.59 1.45.51 4.67-2.52 2.01.7 1.42-1.35.29-2.4 3.47-1.88 1.11-5.09.77-.86.65.3.4 4.25-.96 2.34.35 2.37-.9 1.62-1.89 1.38-.5.9 1.47 1.68.21 1.62-.87 1.08.71 2.24-1.07 5.04-1.12 1.49-1.79 1.48 1.52 2.83-2.01 1.79 0 2.08 1.37 3.4-1.46.5 2.12 2.32.71 1.86-2.84 4.68 2.76.99 2.6-.52-2.97 1.12-1.19 1.67.28 2.3-1.93 3.05 1 .19-2.08 2.45-2.32 3.34 1.91 1.19 2.5 1.45.51 1.33 2.8 2.82-.81.56.93 1.63-.8 3.31 1.87-.26.97 3.36 2.23-.47 3.47 1.42 1.12.97 2.7 2.36 1.14 1.48-2.18 3.11-1.1 2.56.4.25 1.36 2.6.31 1.32-.91 1.08 1.71 2.24-.88 1.23 1.77.78-.6 2.43.82 3.05-.68.51-1.12 3.33 1.08.94.05 4.44-3.98-.42-.18-1.42-.92.28-1.91 1.15-1.6-.21-1.28-2.97-2.71-1.74.34-.65-1.04 1.66-1.54.79-2.38-.58-2.39z" /><path d="m372.74 172.81l-4.07 4.3-3.49-1.71-1.09.6-2.41-1.63-4.78.58 0-1.09-4.75 1.46-3.43 3.94.39-2.15-.98-1.9.53-3.64-.39-.72-3.15-1.06-2.33 1.26-4.28-.78-.02-2.52-.95.38.42.18-4.44 3.98-.94-.05-3.12 3.79-.41 2.53.83 3.9-1.11 6.66-1.57 2.57-1.34-1.4-.96 2.39.69 5.23-1.15 2.16 2.22 4.31.6 2.36 2.49-.32 2.76 1.23.97-2.97-1.04-.51-.4-3.02 2.11-.71 2.02 1.85 3.25.2 1.27 1.84-.39 3.35 1.31.3 5.92-4.88 2.67.87.49 1.59 4.68.97.75-.54 1.9 1.1 1.98.22.73-2.5 1.43-2.04 2.17-1.17 2.5 1.09 2.72-.39 1.85 1.05 3.31.69 1.47-1.34 2.3-.01.36-3.17 4.34-2.68 1.83-2.28 1.17-3.64 3.99-1.03-1.7-.65-.32-5.16-3.31-2.03-1.62.35-1.7-3.82-3.5.09-2.86-2.64-2.42-3.22z" /><path d="m303.28 168.42l-1.42-1.12.47-3.47-3.36-2.23.26-.97-3.31-1.87-1.63.8-.56-.93-2.82.81-1.33-2.8-1.45-.51-1.19-2.5-3.34-1.91-2.45 2.32-.19 2.08-3.05-1-2.3 1.93-1.67-.28-1.12 1.19.52 2.97 1.5 1.76 1.24 5.22.97 1.71 1.08 5.81.79 1.36 2.87.21 1.58-2.31 2.39 1.98-1.02.66 2.86 3.79 2.46-2.21.21-1.69 1.89.32 1.33 1.43 1.68-.28.82 2.03 1.57 1.31 1.47-.97 2.17.79 2.88-2.16 1.42-.32.86-4.92-1.61-2.29-2.2-.67.73-3.07z" /><path d="m417.35 198.94l-.8 1.43-2.6.67-2.13-.94-1.77.37-.28-2.04-2.55-1.15-.88-2.67-1.75-.4-3.5 2.92-5.04-1.49-2.42-2.05.01-2.07-1.55-1.37-1.92-.26-3.99 1.03-1.17 3.64-1.83 2.28-4.34 2.68-.36 3.17-2.3.01-1.47 1.34-3.31-.69-.34 4.91.77 1.66 1.89 1.73 1.71.61-.23 4.24-1.43.76-1.87 3.78-1.1-.35-.27 1.66-2.46.4.79 1.9.14 3.41-1.65 1.14-3.73 6.01-2.09 1.27-1.31 2.59-.25 4.92-1.19 2.6 2.09.52 1.49 1.87-.66 2.51.49 1.84 2.69.45 1.09-.51 4.9.19 2.39-1.46 4.35-.65 2.75.64 3.19-1.52.81 1.15 4.23.75 1.79-.7 5.25 1.23 2.38 1.51.15 1.29 2.54 1.75 2.88-.74 1.6.6 1.34 2.02 2.71 1.07 1.38 2.33 8.36-3.31 1.75-.06.64 1.7 2.06.99 3.43-.77 1.28.75 1.2-.71 7.01 1.05 3.67-.07 2.37-1.45 1.97 1.87 4.71-.51 4.06-2.66.81-1.36-2.8-.2-2.5-3.8.69-3.38-1.66-1.25-2.63-5.2-3.14-2.21.76-2.07 1.67.99 2.65-.73 1.92.24-.07-4.15 1.21-1.57 1.01-3.49-.89-2.06 1.01-.19.48-3.14 1.48-4.22-2.31-.44-2.23 1.12-2.1-.48.27-.85-2.1.08-.44-1.96-2.6 1.44-.28-3.61 2.22-2.24 2.31-.17.83-2.48 2.05-1.95-2.93 1.11-3 2.43-4.2.11-1.84 2.57-.3 1.6-2.35-2.23 4.2-5.67-.78-4.57-2.34-.89.57-3.02-2.16-.96-2.07 1.6-2.46-.25-1.42.66-1.44-1.97-1.32.36-1.58-1.37-1.78 1.39-4.19-2.18z" /><path d="m332.51 207.65l-2.76-1.23-2.49.32-.6-2.36-2.22-4.31 1.15-2.16-.69-5.23.96-2.39-2.8 1.25.29 1.12-.98 2.94-1.25.58-1.97-1-3.8-.66-2.15 2.25-2.76-.26-2.52 2.77-1.58.6-1.6-1.11-3.29 1.88-1.61-.69-1.31 2.02-1.95.45-2.5-.4-1.02.72-.53 2.25-2.69 1.97-1.88 4.93-.33 3.12-4.52 3.66-2.14.53-2.51 1.53-1.94-.05.52 4.51-3.02 2.21.26 3-1.18-.41-1.97 2.82-2.33.07-2.56-1.72-3.9 3.06.04 1.62-1.36 1.78 1.2 1.02 2.98 1.11 4.01-.31 2.27 2.56.85 2.18 3.09-2.4 3.24-1.81.23-1.3 1.69.67 2.61 2.21 3 1.74 2.01-.77.72 1.34 3.01 1.79 3.71.67 2.25 2.6 2.77 1 2.28 3.74-.05 1.61 1.06.5 1.91 3.63 3.52.09 2.94-1.54.95 1.73 2.5-.98 1.69 1.4 2.5.34.79-2.05-.33-3.34 1.34-1.31.82-2.3 4.16-1.62 2.18-2.05.26-2.07-2.36-1.15-.86-2.34-1.54-1.72 1.1-2.42-.69-1.97 1.43-1.45.78-6.52-.28-1.56.78-2.1 1.27-.81-.42-1.69.68-3.25-.72-2.17.98-2.03.08-2.05 2.92-2.21.18-2.62z" /><path d="m396.36 146.28l-.04-1.21-1.69-2.17-.04-1.94-1.47-2.05-.02-3.66-1.13-3.31-.82-.69-.55-3.42.45-6.24-1.49-.19-.95-1.72-1.74-.15-2.15-1.25-1.49-2.09.94-1.37-.76-2.09-3.39.61-.29 2.18-4.38 1.01-.48 2.31-1.12 1.3-3.93 1.11.14 1.99-.98.79-.46 3.26-6.28.93-.35-1.16-2.17.46-2.41-.53-2.85.64-.01.81-3.97 3.19.08 3.07-1.09.69-1.39 4.58.92.56-.43 2.58-.94 1.11-1.45-.76-1.59.9-1.68 2.59.84 1.4.42 2.83-1.36.74-1.53-.96-3.14 1.83-2.03-1.43-2.26 1.34.58 2.39-.79 2.38-1.66 1.54.65 1.04 1.74-.34 2.97 2.71.21 1.28-1.15 1.6-.28 1.91 1.42.92.95-.38.02 2.52 4.28.78 2.33-1.26 3.15 1.06.39.72-.53 3.64.98 1.9-.39 2.15 3.43-3.94 4.75-1.46 0 1.09 4.78-.58 2.41 1.63 1.09-.6 3.49 1.71 4.07-4.3 2.8-2.99-.76-.33 1.72-2.11 2.63-.92 1.38-1.35 1.61-.15 1.9-1.78.85-2.51 3.54-1.94-.29-1.09 2.89-1.45 3.25-2.27.99-1.41 2.92-2.3-1.81-3.93z" /><path d="m371.4 203.35l-1.85-1.05-2.72.39-2.5-1.09-2.17 1.17-1.43 2.04-.73 2.5-1.98-.22-1.9-1.1-.75.54-4.68-.97-.49-1.59-2.67-.87-5.92 4.88-1.31-.3.39-3.35-1.27-1.84-3.25-.2-2.02-1.85-2.11.71.4 3.02 1.04.51-.97 2.97-.18 2.62-2.92 2.21-.08 2.05-.98 2.03.72 2.17-.68 3.25.42 1.69-1.27.81-.78 2.1.28 1.56-.78 6.52-1.43 1.45.69 1.97-1.1 2.42 1.54 1.72.86 2.34 2.36 1.15-.26 2.07-2.18 2.05-4.16 1.62-.82 2.3-1.34 1.31.33 3.34-.79 2.05 8.92-.42 1.26.95 1.89-1.14 2.14.95.55-.92 2.47-.22 1.18-.87 2.42.76.16-.99 1.78-.2 1.19 2.21 1.46.3-.12 3.91-.94 1.07 4.81.3 2.51-1.27 1.41-3.51 1.39-1.98 2.69-.5 5.06-5.55-.49-1.84.66-2.51-1.49-1.87-2.09-.52 1.19-2.6.25-4.92 1.31-2.59 2.09-1.27 3.73-6.01 1.65-1.14-.14-3.41-.79-1.9 2.46-.4.27-1.66 1.1.35 1.87-3.78 1.43-.76.23-4.24-1.71-.61-1.89-1.73-.77-1.66.34-4.91z" /><path d="m313.27 259.69l-.95-1.73-2.94 1.54-3.52-.09-1.91-3.63-1.06-.5.05-1.61-2.28-3.74-2.77-1-2.25-2.6-3.71-.67-3.01-1.79-.72-1.34-2.01.77-3-1.74-2.61-2.21-1.69-.67-.23 1.3-3.24 1.81-3.09 2.4-1.44 1.61-2.19.08.23 2.14-.64 1.62 1.61 2.98-1.79 2.77.4 2.04-.67 4.98 3.22 2.26.74 1.31 3.08 1.3-.37 1.36 1.86 1.46 1.74.36-1.23 1.17 1.41.62-.73 2.44 2.19 2.18 2.03 2.9.04 1.47 1.66 1.92.1 1.95 2.28-1.09 1.86-2.6 2.68-1.02 1.47.31.86 3.79 2.05.21.79 1.48 2.09.41 1.84-1.35 2.73.92 2.93.32 1.88-.58 2.18-3.72.88-4.67-2.98-2.6.51-2.74 1.01-.34.37-3.24-.93-2.95 1.98-.4 2.54-3.29-.24-1.78.91-.49z" /><path d="m417.35 198.94l-.51-1.78 1.24-1.28.16-2.88 2.6-1.91 1.29-4.32 1.96-1.22 2.25-.33-1.5-3.95-2.05-.26.3-2.3 1.44-2.92-1.05-4.76 1.15-1.71.34-2.65-1.32-2.68-.18-4.66.35-1.96-3.06-.68-2.93.85-2.46 3.19-1.33.83-1.75-1.95-3.14-1.83-4.15-1.53-2.58-.06 2.67-5.17-1.38-1.17.69-3.47-2.22 1.49-1.92.44-1.72-2.55-2.18.52 1.81 3.93-2.92 2.3-.99 1.41-3.25 2.27-2.89 1.45.29 1.09-3.54 1.94-.85 2.51-1.9 1.78-1.61.15-1.38 1.35-2.63.92-1.72 2.11.76.33-2.8 2.99 2.42 3.22 2.86 2.64 3.5-.09 1.7 3.82 1.62-.35 3.31 2.03.32 5.16 1.7.65 1.92.26 1.55 1.37-.01 2.07 2.42 2.05 5.04 1.49 3.5-2.92 1.75.4.88 2.67 2.55 1.15.28 2.04 1.77-.37 2.13.94 2.6-.67.8-1.43z" /><path d="m690.78 215.33l-.44-1.88 2.6-.59 1.64.4.13-1.99 1.03-.46.27-3.72 1.08-1.74-.92-1.17 1.1-2.32 1.11.39 4.07-5.58-1.74-2.45-1.32-.6-.62-1.74-2.2-2.25-1.28-3.21-2.2.34-1.05-3.83-1.5-.17-.82-1.5-3.43 4.25.26 3.58 1.65 3.66.15 2.85-3.5-.06.19-1.41-3.12-6.92-1.55-1.49-3.03 2.24 1.18 2.25-2.87 1.76-.98 1.97-2.08.4-1.3-.93-1.07.64.63 3.32-2.18 1.4-.53 2.04.3 3.12-2.31 1.19-1.44 2.26.52 4.77-.38 3.13-1.09.66-.79 3.17-1.29.86-.94 2.21 1.74 3.33 1.43 1.31-.46 3.16-2.06 1.72 1.85 1.6 2.18 3.06-.08 4.57 1.42.33 1.65 2.78 2.56 2.52 2.39-.77 1.21-1.22-1.52-2.51 1.7-.43 2.45-1.94.93-.02 3.14-3.17.05-2.34-.89-3.78 2.52-.62 1-1.07.23-1.5 1.36-.34 0-1.34 1.57.09.63-1.22-.66-1.57-.06-3.19 1.61-3.21 1.95-.09.22-.99z" /><path d="m273.34 160.93l-.99-2.6-4.68-2.76-1.86 2.84-2.32-.71-2.22 1.15-.07 3.05 1.3 2.09-.56 1.38.84 3.77-.09 2.45 2.37 5.16 1.99 1.27-.55 2.39-4.89 2.06-1.85 1.5 2.08 2.07.34 1.43-1.79 2.84 1.14 1.75-.03 4.65-.78 3.53.87 1.09.77 2.94-1.85-.37-2.8 2.58-1.46 1.75-2.82 1.98-.68 1.33 2.46.24 2.96 3.27.13 4.18-1.06.85.89 1.53-.72 3.46-4.46 5.01-4.28 1.13-.87-.27-3.25 1.7-.64 2.29-1.35 1.44-4.48 1.12-.21 1.29 1.14 1.91 4.11.57 2.54.85 2.21-1.82 3.07-.41-.01-1.1 3.53-3.06 1 3.05 1.45-1.26 4.11.12 1.36-1.78-.04-1.62 3.9-3.06 2.56 1.72 2.33-.07 1.97-2.82 1.18.41-.26-3 3.02-2.21-.52-4.51 1.94.05 2.51-1.53 2.14-.53 4.52-3.66.33-3.12 1.88-4.93 2.69-1.97.53-2.25 1.02-.72 2.5.4 1.95-.45 1.31-2.02 1.61.69 3.29-1.88 1.6 1.11 1.58-.6 2.52-2.77 2.76.26 2.15-2.25 3.8.66 1.97 1 1.25-.58.98-2.94-.29-1.12 2.8-1.25 1.34 1.4 1.57-2.57 1.11-6.66-.83-3.9.41-2.53 3.12-3.79-3.33-1.08-.51 1.12-3.05.68-2.43-.82-.78.6-1.23-1.77-2.24.88-1.08-1.71-1.32.91-2.6-.31-.25-1.36-2.56-.4-3.11 1.1-1.48 2.18-2.36-1.14-.97-2.7-.73 3.07 2.2.67 1.61 2.29-.86 4.92-1.42.32-2.88 2.16-2.17-.79-1.47.97-1.57-1.31-.82-2.03-1.68.28-1.33-1.43-1.89-.32-.21 1.69-2.46 2.21-2.86-3.79 1.02-.66-2.39-1.98-1.58 2.31-2.87-.21-.79-1.36-1.08-5.81-.97-1.71-1.24-5.22-1.5-1.76z" /><path d="m357.13 258.88l-2.69.5-1.39 1.98-1.41 3.51-2.51 1.27-4.81-.3.94-1.07.12-3.91-1.46-.3-1.19-2.21-1.78.2-.16.99-2.42-.76-1.18.87-2.47.22-.55.92-2.14-.95-1.89 1.14-1.26-.95-8.92.42-2.5-.34-1.69-1.4-2.5.98-.91.49.24 1.78-2.54 3.29-1.98.4.93 2.95-.37 3.24-1.01.34-.51 2.74 2.98 2.6-.88 4.67-2.18 3.72.86 9.33 2.79.64-1.65.41 1.78 3.19 4.44 3.49 1.16 2.23.81-.11 1.8 2.78 2.23.3 1.91 2.45.31-2.62 1.04-.03.43 3.09.91-1.21 3.68.08 1.24-1.72 3.06-1.86 3.26 2.91-1.34 3.61 1.01 2.17.6-1.62 2.89-.01 3.94-3.09 2.43 1.94 3.48-2.45 3.57-.34 3.46-1.23 3.98 1.81 3.2.13 1.13-1.57 3.58.34 2.3-1.9-1.94-3.58.6-.89 2.55-.78 2.08-2.65-.37-.87 1.25-2.93-1.81-1.29-.04-1.16-2.09-3.51-2.17.1.37-3.59-3.18-.34-1.32-3.09-1.75-.69-.34-1.68-2.55-.44 1.04-1.05-1.15-2.93-.06-2.99 3.07-3.48-.41-3.19-1.61-2.38.08-1.22-3.5-1.43-.95-2.11z" /><path d="m300.6 324.63l-2.88.12-1.33-1.77-2.78 2.48-1.36 2.4-1.62.68-.49 2.66-1.62 2.57-3.72-.55-.93 2.78-2.24.75-2.29-.1-1.58.69.1 1.61 2.34.15 3.42 2.61 1.87.39.08 2.25-1.81 2.62-1.6.18-1.19 1.44-3.61-.84 1.59 2.4-2.82 1.11-.69-1.07-1.56.25-1.03-1.87-2.36-1.14-1.39 3.89-1.27 1.42 3.09 5.42 3.04 3.28 1.23.25.88 1.66.55 6.34 1.03 2.45 1.68.25.75 3.11 1.49.14 1.22-1.2 1.23.81.69-1.37 1.99.02.75 1.25 1.93-.77-.67-1.38 3.93-3.01 1.89.15-2.05-3.99.48-1.65 1.46-.66.84-1.85-1.5-2.08 2.13 1.02-.38-1.47.93-2.72 3.51-1.52 1.59-2.26 2.39-2.38.04-2.92-1.02-2.6 1.84-3.02-1.61-1.39-.49-1.92.96-.62 1.46-3.49.87-6.23-2.48.44-1.32 1.49-1.58-5.69z" /><path d="m444.35 262.72l-1.97-1.87-2.37 1.45-3.67.07-7.01-1.05-1.2.71-1.28-.75-3.43.77-2.06-.99-.64-1.7-1.75.06-8.36 3.31-1.38-2.33-2.71-1.07-1.34-2.02-1.6-.6-2.88.74-2.54-1.75-.15-1.29-2.38-1.51-5.25-1.23-1.79.7-4.23-.75-.81-1.15-3.19 1.52-2.75-.64-4.35.65-2.39 1.46-4.9-.19-1.09.51-2.69-.45-5.06 5.55.95 2.11 3.5 1.43-.08 1.22 1.61 2.38.41 3.19-3.07 3.48.06 2.99 1.15 2.93-1.04 1.05 2.55.44.34 1.68 1.75.69 1.32 3.09 3.18.34-.37 3.59 2.17-.1 2.09 3.51.04 1.16 1.81 1.29-1.25 2.93.37.87-2.08 2.65-2.55.78-.6.89 1.94 3.58 1.75 1.56.07 1.71 3.78-1.16 2.39.11 2.3 1.45 5 .68 2.04 1.87 2.76.88 2.02-.1.25 1.36-1.38 2.31 3.1.43 1.52 1.07 4.27-3.19 6.52-2.21-2.61-2.6.93-2.04 4.28-1.11.06-1.65 1.4-1.22 1.81.4 2.4-.82 1.54-3.5 1.88.28.52-3.25 4.53-4.32 2.07.68.61-2.49 1.25-1.98.62-2.85 3.12 1.06 3.4-1.31.44 1.14 3.88.33.31-.89 2.08.04 3.57-1.83.45-1.3 2.42-.77 2.86.84-.81 1 2.9-.92 2.85.39-.04 2.62 3.26 1.38 2.26-1.12 1.86 1.87 3.02-2.74 1.13 1.55 2.35-.2.9-1.16-.16-4.58 2.68-1.96.43-1 3.2-2.08.44-3.24.83-2 2.65-.57-2.67-2.38-1.36-.11-3.2-2.27-3.42-1.27-1.39-1.7-2.62 3.72-11.67-2.66-2.09.19-1.56-.85-3.39-.24-3.57-1.61z" /><path d="m396.93 319.22l-1.52-1.07-3.1-.43 1.38-2.31-.25-1.36-2.02.1-2.76-.88-2.04-1.87-5-.68-2.3-1.45-2.39-.11-3.78 1.16-1.04-.28-2.14 1.12-3.29 2.57-3.4 5.4-1.41-.03-1.22-2.06-3.31-.85-1.28 1.51-1.15-.09-1.54 1.46-3.46-.49.2 1.24-1.88 1.81 5.83 3.65.57.69-1.14 1.71 3.35 3.49-2.1-.27-1.01-2.32-2.72-.85-1.47.42-1.02-3.64-3.62-.5-1.49 4.23-1.24.45.72 3-1.37 1.32 1.69 3.06-1.62 3.42-2.39-1.24.35 1.79-3.14-.86-.78 3.32 1.18.92 1.04 2.3 2.25-.01.88.87-.71 2.24-.07 2.65 4.51 1.86 1.72-.19 1.4 1.42 1.42 4.06.82 4.7.59 1.46 1.83.2 3.29-2.95-.65-2.21.44-2.38-1.25-3.56-1.76-2.47.34-1.6 3.95-.01-1.65-2.12 1.77-1.42-3.12-1.62-.96-1.39 4.05.71 1.99.98 1.88-.99 1.42 1.01 2.07-4.21 1.43 1.24.24 1.8 1.13-.25 1.69-2.04 2.59-.47.79-3.2 2.82-1.17 1.01.21 2.17-2.64 3.47-.67.04 1.72 1.57-.03 3.4-.29 1.67 1.18.85 3.26 1.48-4.13 1.17-.25 1.18-2.37.83-.02-1.11-2.34 1.06.44 3.27-2.39 4.75-.46-.28-1.96 1.8-1.64-2.19-1.37-1.87-2.52-2.33-1.17z" /><path d="m333.04 368.38l-1.39-2.2-2.65-.81-.53-2.11-3.18-1.92-1.88 1.45-.53-.97-1.63.41-2.37-.62.28-1.14-1.21-1.75-.08-3.06-2.25-.95-1.66 1.58-2.48-.81-2.81-2.09-1.18-3.68-2.86.77-3.09 2.48-1.59 2.26-3.51 1.52-.93 2.72.38 1.47-2.13-1.02 1.5 2.08-.84 1.85-1.46.66-.48 1.65 2.05 3.99-1.89-.15-3.93 3.01.67 1.38-1.93.77-.75-1.25-1.99-.02-.69 1.37-1.23-.81-1.22 1.2-1.49-.14-2.07 4.05.42 2.14-.6 1.45-1.95.36-1.82 1.32-1.39 2.63 1.94 2.16-1.77 1.03 2.78 5.1-1.64.64-.45 1.46-1.41-.25-1.39 1.68.29 2.97.78 1.79 1.73-.17 1.15-2.27 2.59.98.97 1.46 6.03 2.29.85-.48 3.48.75.49-3.14 2.02.35 1.63-1.79 1.11.44 2.77-1.17 4.59-.08 1.79-.5 2.62-2.3 2.51-2.28.97-2.09 4.44 3.28 1.1-.06 2.41-3.71 2.72 1.51 1.19 1.79.79-.62.72-3.02.82-.86 1.69 1.9.55-1.58 2.65-1.6 1.78-.39.39-1.7 1.38-.37-2.27-2.69-.66-4.41-1.04-.72.63-3.23 1.29-1.71-.12-3.3 3.18-1.6.3-2.56z" /><path d="m383.25 335.25l-1.57.03-.04-1.72-3.47.67-2.17 2.64-1.01-.21-2.82 1.17-.79 3.2-2.59.47-1.69 2.04-1.13.25-.24-1.8-1.43-1.24-2.07 4.21-1.42-1.01-1.88.99-1.99-.98-4.05-.71.96 1.39 3.12 1.62-1.77 1.42 1.65 2.12-3.95.01-.34 1.6 1.76 2.47 1.25 3.56-.44 2.38.65 2.21 1.74 5.04 3.91 2.2-1.36 1.96-.01 2.61 3.43-.99.87 1.75.47 3.09.99 1.63 2.97 2.92-.09 2.09.72 3.51 2.54.62.32-1.5 2.28.03 2.63 3.44-3.05.56.5 3.22-.94 2.31.86 2.27-1.31 3.54.59.84 3.02-1.84 1.44-.03 4.26-4.03 3.55-2.48 2.78 2.71.99-.66 1.57.77.26 3.83 2.06 3.41 4.08.78 2.13-2.73 3.49.56.72 1.72 1.94 1.09.69 1.8 1.48-.38.89 2.36-2.42 1.99-.98 1.65 1.55 2.48 1.61-.02.13-1.63 2.12-1.31.76 1.17 2.45.35 1.13-2.98 1.01 1.74 2.63-.04.36 1.32.92.07-.75-.67 1.86-3.44-.46-2.88 2.23.84 2.09-2.09 1.86-6.06 1.5-.07-.87-2.85-2.43-.48-1.06-1.38.68-2.37-1.11-2.47.34-.96-3.29-2.46.21-2.96-.87-.16-.26-2.51-2.08-3.58.06-1.51 1.62-1.67-.29-2.91-2.34-1.15-1.28-3.34-2.05-.36-1.59.93-.89-1.25-2.14 1-.77 1.4-2.67-.72-1.66.22.31 2.06-1.52 1.15-2.06-.92-1.81.85-2.86-.54-.9 1.09-1.63-.5-2.24-3.65-1.32.09.01-3.72 1.39-2.21 2.38 1.73 1.03-2.13-1.03-1.72-4.54-3.35-.55.27-1.83-2.73.39-1.82-2.7-1.66 2.07-1.54-1.41-3.73 1.42-2.58-.07-1.66-1.71-1.73-.23-2.59-1.39-2.14z" /><path d="m415.82 367.71l1.02-1.99 2.54.15 3.75 1.69 4.15-1.64.21-5.34 1.52-.71.38-1.32-2.32.04-2.57-3.72 1.86-2.62-.84-2.65-1.41-.81-.13-1.56-3.01-2.71-2.33-4.35-1.05.69-1.25-.98.32-2.29 1.51-2.18 3.03.64 2.04-2.77 1.09 0 .62-4.05-2.27-2.88-2.88-.76-2.35-4.35-1.76-1.59-2.46-.79-.5-2.05-3.42-1.27-1.59-1.72-6.52 2.21-4.27 3.19 2.33 1.17 1.87 2.52 2.19 1.37-1.8 1.64.28 1.96-4.75.46-3.27 2.39-1.06-.44 1.11 2.34-.83.02-1.18 2.37-1.17.25-1.48 4.13-.85-3.26-1.67-1.18-3.4.29 1.39 2.14.23 2.59 1.71 1.73.07 1.66-1.42 2.58 1.41 3.73-2.07 1.54 2.7 1.66-.39 1.82 1.83 2.73.55-.27 4.54 3.35 1.03 1.72-1.03 2.13-2.38-1.73-1.39 2.21-.01 3.72 1.32-.09 2.24 3.65 1.63.5.9-1.09 2.86.54 1.81-.85 2.06.92 1.52-1.15-.31-2.06 1.66-.22 2.67.72.77-1.4 2.14-1 .89 1.25 1.59-.93 2.05.36z" /><path d="m470.32 288.49l-2.35.2-1.13-1.55-3.02 2.74-1.86-1.87-2.26 1.12-3.26-1.38.04-2.62-2.85-.39-2.9.92.81-1-2.86-.84-2.42.77-.45 1.3-3.57 1.83-2.08-.04-.31.89-3.88-.33-.44-1.14-3.4 1.31-3.12-1.06-.62 2.85 3.34 2.99 3.76.45 2.64 1.17.92 2.8.22 3.69-1.7 1.93.32 1.4 1.73-.76 1.85 2.39 1.71 1.21-.79 1.89.42 1.6-.8 2.09 1.96 1.37-.32 3.35 1.91 1.21 1.19 2.63-2.29.99.57.98 1.87.05.39 1.54 1.83.3 1.02 3.99 2.27.46.29 1.53 2.07.85 1.14 3.63-1.96 1.48-1.86-1.17-.1 4.28-.99.54 2.07 2.13 1.87.13 2.14-3.85 2.19-.74 2.86 2.38-1.93 2.69.35 2.73-.54 1.86 3.72 1.65 4.82 3.02.2 3.99 1.62 1.48.26 1.31 2.48.85-.14 2.78 2.38 1.97 2.64-.12.36 3.1-.6.62 2.4.88 3.39.39 4.5-.26 1.94-1.82-.09-1.28 3.9-1.5 1.09 1.19 1.46-.06 2.38-1.92 2.59-3.67 2.53-.66-.68-2.42-1.03-2.04-2.56 1.09-2.31-.74-1.07 1.94-2.39.76-2.08-2.54-1.51 1.34-4.79-.7 1.1-1.89-2.88-.44-1.86-1.27.63-3.12-1.32-1.37.66-3.61 2.23-.91.86-2.33 1.17-.52.04-2.55 1.4-3.48 1.52-1.34-.27-1.94 1.3-2.97-1.82-.37-1.1-1.83-1.75.66-3.31-1.45 1.15-2.5-1.15-4.36 1.38-2.76-1.61-.96-1.69-4.22-1.57-2.29-2.51-1.76-4.46-4.71-2.59.24-1.07-1.74.32-5.94 3.7-3.19-1.6-3.61z" /><path d="m496.34 366.58l-1.46.06-1.09-1.19-3.9 1.5.09 1.28-1.94 1.82-4.5.26-3.39-.39-2.4-.88.6-.62-.36-3.1-2.64.12-2.38-1.97.14-2.78-2.48-.85-.26-1.31-1.62-1.48-.2-3.99-4.82-3.02-3.72-1.65.54-1.86-.35-2.73 1.93-2.69-2.86-2.38-2.19.74-2.14 3.85-1.87-.13-2.07-2.13.99-.54.1-4.28 1.86 1.17 1.96-1.48-1.14-3.63-2.07-.85-.29-1.53-2.27-.46-1.02-3.99-1.83-.3-.39-1.54-1.87-.05-.57-.98 2.29-.99-1.19-2.63-1.91-1.21.32-3.35-1.96-1.37.8-2.09-.42-1.6.79-1.89-1.71-1.21-1.85-2.39-1.73.76-.32-1.4 1.7-1.93-.22-3.69-.92-2.8-2.64-1.17-3.76-.45-3.34-2.99-1.25 1.98-.61 2.49-2.07-.68-4.53 4.32-.52 3.25-1.88-.28-1.54 3.5-2.4.82-1.81-.4-1.4 1.22-.06 1.65-4.28 1.11-.93 2.04 2.61 2.6 1.59 1.72 3.42 1.27.5 2.05 2.46.79 1.76 1.59 2.35 4.35 2.88.76 2.27 2.88-.62 4.05-1.09 0-2.04 2.77-3.03-.64-1.51 2.18-.32 2.29 1.25.98 1.05-.69 2.33 4.35 3.01 2.71.13 1.56 1.41.81.84 2.65-1.86 2.62 2.57 3.72 2.32-.04-.38 1.32-1.52.71-.21 5.34-4.15 1.64-3.75-1.69-2.54-.15-1.02 1.99 1.28 3.34 2.34 1.15.29 2.91-1.62 1.67-.06 1.51 2.08 3.58.26 2.51.87.16-.21 2.96 3.29 2.46-.34.96 1.11 2.47-.68 2.37 1.06 1.38 2.43.48.87 2.85-1.5.07-1.86 6.06-2.09 2.09-2.23-.84.46 2.88-1.86 3.44.75.67 1.36-.37.79 3.15 1.13.99-2.51 3.44 4.96-.21 2.83-3.83 1.54-.03 1.68-2.78 1.92.92.63-1.22 5.12-1.63 3.02 2.25 1.44-2.11 2.41-.86-1.43-1.17 1.31-1.38 2-.18 1.7-2.46 4.62-2.97.98-3.59-.74-2.35 1.42-.21 1.37 1.16 4.25.73 2.95-.45-.18-2.26 1.44.7 1.95-.68 1.06-1.7-.94-1.28 1.87-.56 2.53 1.32 3.19 2.84 3.46-.41-.15-1.68 2.47.2.51-3.11 1.06.13.4-2.87 2.91-1.5 2.45-3.41-.85-1.13 2.77-3.03-.28-.75 2.11-.97 1.88-2.92-1.09-2.42 1.52-1.11 1.2-3.13-.75-1.47.59-1.9z" /><path d="m355.78 362.03l-3.29 2.95-1.83-.2-.59-1.46.28 2.6 2.78 2.7-.85 2.55-2.67.73-.91 2.96-1.86 1.57.01 5.27.81 2.1 1.24.87-2.09.76-2.15-.23-2.87-1.23-.96-1.12-1.65.19-2.34-2.76.23-6.48-1.6-1.9-.13-1.55-2.3-1.97-.3 2.56-3.18 1.6.12 3.3-1.29 1.71-.63 3.23 1.04.72.66 4.41 2.27 2.69-1.38.37-.39 1.7-1.78.39-2.65 1.6-.55 1.58-1.69-1.9-.82.86-.72 3.02-.79.62-1.19-1.79-2.72-1.51-2.41 3.71-1.1.06-4.44-3.28-.97 2.09-2.51 2.28 2.85 2.38-1.43 1.1 1.07.94-1.81 1.21-.06 2.66-1.39.76 1.34 2.26.61 3.14-2.62 3.24-2.82 1.79-.75 2.35-1.8.67-.1 3.22 2.4 2.94 1.82-.28 1.55 2 1.07-1.43 3.37-1.4 2.33 1.63 1.57-.01 1.44-1.44 2.04.4.83 1.1 5.56 1.89 2.99-.62 2.22 1.79 1.86.7 1.87-3.29 3.19-.5 1.1-1.6 2.45-1.11 3.44-.16 3.58.58 4.84-.32 1.51 2.1 1.55-1.27 2.22.19 1.55-2.12 2.64-.18-.49 1.96 2.04 1.75.24-1.66 2.73-1.37-.35-1.03 1.4-.84-.14-1.87.84-3.99 2.59-3.46-.37-3.3.71-2.22 1.43-.27.99-1.42-.28-2.53 2.21-1.13 1.31-3.54-.86-2.27.94-2.31-.5-3.22 3.05-.56-2.63-3.44-2.28-.03-.32 1.5-2.54-.62-.72-3.51.09-2.09-2.97-2.92-.99-1.63-.47-3.09-.87-1.75-3.43.99.01-2.61 1.36-1.96-3.91-2.2-1.74-5.04z" /><path d="m310.82 299.48l-1.4 1.79-1.38-.17-2.54 2.34-1.36 3.06 1.11 1.7-1.23 2.23-.82 3.62.38 1.87 1.3 1.83 1.3.26.17 2.19-2.16 2.25-1.13-.55-1.96 1.25-.5 1.48 1.58 5.69 1.32-1.49 2.48-.44-.87 6.23-1.46 3.49-.96.62.49 1.92 1.61 1.39-1.84 3.02 1.02 2.6-.04 2.92-2.39 2.38 3.09-2.48 2.86-.77 1.18 3.68 2.81 2.09 2.48.81 1.66-1.58 2.25.95.08 3.06 1.21 1.75-.28 1.14 2.37.62 1.63-.41.53.97 1.88-1.45 3.18 1.92.53 2.11 2.65.81 1.39 2.2 2.3 1.97.13 1.55 1.6 1.9-.23 6.48 2.34 2.76 1.65-.19.96 1.12 2.87 1.23 2.15.23 2.09-.76-1.24-.87-.81-2.1-.01-5.27 1.86-1.57.91-2.96 2.67-.73.85-2.55-2.78-2.7-.28-2.6-.82-4.7-1.42-4.06-1.4-1.42-1.72.19-4.51-1.86.07-2.65.71-2.24-.88-.87-2.25.01-1.04-2.3-1.18-.92.78-3.32 3.14.86-.35-1.79 2.39 1.24 1.62-3.42-1.69-3.06 1.37-1.32-.72-3 1.24-.45 1.49-4.23 3.62.5 1.02 3.64 1.47-.42 2.72.85 1.01 2.32 2.1.27-3.35-3.49 1.14-1.71-.57-.69-5.83-3.65 1.88-1.81-.2-1.24 3.46.49 1.54-1.46 1.15.09 1.28-1.51 3.31.85 1.22 2.06 1.41.03 3.4-5.4 3.29-2.57 2.14-1.12 1.04.28-.07-1.71-1.75-1.56-2.3 1.9-3.58-.34-1.13 1.57-3.2-.13-3.98-1.81-3.46 1.23-3.57.34-3.48 2.45-2.43-1.94-3.94 3.09-2.89.01-.6 1.62-1.01-2.17 1.34-3.61-3.26-2.91-3.06 1.86-1.24 1.72-3.68-.08-.91 1.21-.43-3.09-1.04.03-.31 2.62-1.91-2.45-2.23-.3-1.8-2.78-.81.11-1.16-2.23-4.44-3.49z" /><path d="m277.86 338.95l-1.62-.59-.56 1.27-2.92-.91-2.83-2.27-3.32-.13-.13-3.51.92-2.51-2.48-2.27-2.52-.79 1.42-8.12-1.12-.92-1.72-5.17-.05-2.02-.9-1-1.72-3.82-1.19-.26-1.62 1.69-2.09 3.34-3.32 3.56-.44 2.8-2.73-.68-1.79 1.38-4.85 1.41-4.14-.87-.22-.99-1.77 3.84-1.19.05 1.3 1.1 1.81 4.25-3.43 3.91-.01.99 1.81-.01.18-1.47 3.6-.04 2.11 2.13-1.49 5.04 2.17-.41-2.28 1.98-1.66 3.06 1.61-.06.13 2.6 1.4.83-1.43 3.24 3.16.59 1.42 8.87-1.34.99-.22 2.45-3.16 1.5.36 1.15-1.62.58-.22 1.95-1.51-.37 1.33 1.51-.05 3.39 1.12-2.41 1.93-1.12.35-2.34 2.42-1.53 5.06 1.26 3.23-1.83 2.35.79-.05 1.18 3.91-2.59.19-2.99 1.36-.05.01-1.47 2.1-1.49-.54-.74 2.31-1.23 2.61-3.27 1.92.2.62 1.16 1.27-1.42 1.39-3.89 2.36 1.14 1.03 1.87 1.56-.25.69 1.07 2.82-1.11-1.59-2.4 3.61.84 1.19-1.44 1.6-.18 1.81-2.62-.08-2.25-1.87-.39-3.42-2.61-2.34-.15z" /><path d="m307.04 285.91l-1.88.58-2.93-.32-2.73-.92-1.84 1.35-2.09-.41-.79-1.48-2.05-.21-.86-3.79-1.47-.31-2.68 1.02-1.86 2.6-2.28 1.09-.12 1.58-2.22 2.89-2.48 4.14-2.23 1.23-2.37-.89-1.21 1.02-1.41 4.67-1.93 2.49-2.87 1.35.53 3.15-.59 1.36-2.27-1.53-1.16.25-3.14-1.03-1.36-1.11-1.63 1.25 1.19.26 1.72 3.82.9 1 .05 2.02 1.72 5.17 1.12.92-1.42 8.12 2.52.79 2.48 2.27-.92 2.51.13 3.51 3.32.13 2.83 2.27 2.92.91.56-1.27 1.62.59-.1-1.61 1.58-.69 2.29.1 2.24-.75.93-2.78 3.72.55 1.62-2.57.49-2.66 1.62-.68 1.36-2.4 2.78-2.48 1.33 1.77 2.88-.12.5-1.48 1.96-1.25 1.13.55 2.16-2.25-.17-2.19-1.3-.26-1.3-1.83-.38-1.87.82-3.62 1.23-2.23-1.11-1.7 1.36-3.06 2.54-2.34 1.38.17 1.4-1.79-1.78-3.19 1.65-.41-2.79-.64-.86-9.33z" /><path d="m646.19 169.29l-1.45-.07-3.31-2.91-.97-1.72-3.62.09-1.22-1.94-2.83-2.06-4.78.41-3.86-2.86-1.4.71-.29 2.1-1 .08-2.52 2.4-1.04-.54-1.32 2.08.39 1.92-2.1 1.76-2.78 1.31-1.61-.32-.02-1.42-3.47-3.87-3.7-2.16-1.51 2.53-2.28-1.25-6.51 1.76.6 3.17 1.72.52.03 1.36 4.67 4.18-1.46 2.27-2.05.14-.54.92-1.16-1.34-1.62.68-.82-.86-5.13 3.52-.57 2.59-2.63 1.2.52 3.28-1.08 1.2 3.1 5.93-2.94.19.79 3.48.91 1.08-.39 3.18-1.2 1.88 3.36 3.44 1.97-.8 1.39.5 1.57-1.05 2.76 2.19 5.58-1.65.94 1.93 1.78 1.07.83 1.94 2.87.66.83 2.3 1.19 1.53 2.11.64 1.05 2.31 5.66 2.92 2.1-.65 3.55 2.08.03 3.88 2.08 1.74.98-2.69 2.05 1.82 1.23-.02 1.76 2.5 2.52-.63 1.49-.98.28-1.57 5.14-.04 2.09-1.36-.36-1 1.63-.67.26-1.46 1.97-.4 3.61 4.2-.08 1.49 3.39-1.32.81 1.69.48.27 1.39-1.47-.98-.84-.74 2.12-.71-2.85 1.11-2.15-3.47-1.57-.18-1.5 1-1.84-1.48.78-2.24-1.62.07-3.21 1.68-2.23 1.71.38 2.87-2.16-1.35-1.48.1-2.9-2.63-3.02 1.06-1.14.37-2.09-2.8-3.28-1.98.04-1.3-1.67-.74-4.69-1.48.83-1.54-1.89-3.78-2.04 2.26-1.21 1.89-2.88-2.78-1.87-2.14-.65-2.31-1.66.51-1.07 2.9.23 2.26-.72.78-2.64 3.18-2.59 1.04-2.86z" /><path d="m690.78 215.33l-.22.99-1.95.09-1.61 3.21.06 3.19.66 1.57-.63 1.22-1.57-.09 0 1.34-1.36.34-.23 1.5.94 2.41-.63 4.21 2.79 4.75-.52.78 1.34 2.42-2.15 1.71-1.67 4.29 3.22 2.58-1.4 2.87 1.77 1.51-.6 2.5 3.46 4.19-1.11 3.11.29 1.61-1.94.75-1.04 2.7 1.32 6.59 1.74-1.07 2.89.58 1.55 2.66 1.92-1.41 5.15 1.08 3.84 1.86 2.31 2.08 1.81.45.16 3.53.79.79 5.2.49-.08 1.6 6.34.15 4.68-1.25.67.36 7.47.4.07-5.25-.91-1.22.59-2.7 4-.77.58-2.32 3.26-2.75 1.2-2.14-2.43-1.89-3.13-.18.95-1.58-1.71-1.78-1.86 3.08-1.51-.48-.46 1.97-2.3-.38-.89-1.98-1.86-.28-1.48.85-1.33-1.77-2.06-.8-2.45.5-1.07-2.95 4.62-3.22-.28-1.97 1.17-3.71 1.85-.64 1.55.83 4.13-3.77-1.57-2.31.03-4.39 2.08-1.85.9.29 2.31-1.63-.78-4.1-2.94-1.38.45-4.34-.58-2.01 1.71-1.94 1.77-.01.16-3.56.83-.47.65-3.06 1.43-.73.82-2-1.42-.91.15-1.6-3.54-.23-1.44-.68-1.02 1.64-.3 2.36-1.13.53-1.92 3.75.45 1.21-2.73 2.92-4.64 1.39-1.59 1.32-2.11-.73-3.98.19-.79 1.04.56 1.76-1.01 3.02-2.16.51-1.96-3.08-2.45.17-2.64 2.35-4.98-4.49-.74.5-2.91-3.69-1.81-.77-1.52-3.35.4-4.22-1.94-4.76z" /><path d="m622.7 312.78l-3.51-.42.43-1.71-2.68-.67-.95 1.16-3.06.65-2.51 4.61-2.1 1.88-.73 2.33 1.6 1.48 2.44.86.79 3.23 2.75.23 2.21-1.28 5.93.24.63 1.02 3.39 1.17-.25-3.25-.78-.4.21-3.09-1.03-.57-1.71-2.74.36-3.54-1.43-1.19z" /><path d="m510.15 165.4l-2.24-1.82-1.21 2.47-3.72-.01-.13-2.71-.8-.54-1.57 1.91-4.94-1.27-1.19 2.88 1.88-.44-1.54 2.81.53 1.29-.5 4-1.76 1.65-2.36-1.84-2.74-.09-.74 1.03-3.33-1.21-1.49.85-1.41-1.21-1.23 1.39-2.62.61-1.38 2.64-.38 3.59 1.99 2.04.03 1.95 3.06 2.26 2.47-1.87 3.56.16 2.32 1.3 4.06.21.7 2.05-.79 2.71.81.8-.21 2.01.83 2.5-.37 1.43 1.37 1.06 3.42.86.64.86-.4 3.67-3.73-.18 2.59 1.2-.22 2.05 2.42 3.02.16.93-2.51-1.44-1.12 1.95-1.32.49-1.32-1.27-1.46.94.86 1.05-1.17.88 1.35 1.08-1.6.96-.89-1.54-3.32-1.81-.82 1.9.8 1.51-1.74.86 4.66 4.89 2.9 3.89 5.01 1.94-2.45 2.48.81 2.12 3.6 4.72 1.52-.89.54 2.22 2.92.71 1.79-.41 1.81 1.3 2.59-1.04-.24-1.61 1.68-1.52 3.11 2.99.54-1.16 4.97-1.83-1.27-.84.48-1.97 1.96-2.51-1.02-1.47 4.23-2.65 3.02-2.31.32-.9 5.32-4.73.81-1.83-2.99-2.23.26-4.14-1.29-4.02-1.61-2.03-1.35.37-2.07-1.25-.01-1.4-3-2.24-1.37-1.87-1.38-.3-1.03-2.43-2.14-2.46 1.95-4-1.09-.84-1.28-7.3-1.08 1.41-1.02-.64-2 2-4.72 2.59-3.5-2.45.16-2.93 1.33-1.46 1.57-3.11 1.16-3.58.86-4.47 2.54-1.19-2.09-2.18z" /><path d="m536.72 217.01l-1.38.54-.81 1.83-5.32 4.73-.32.9-3.02 2.31-4.23 2.65 1.02 1.47-1.96 2.51-.48 1.97 1.27.84-4.97 1.83-.54 1.16-3.11-2.99-1.68 1.52.24 1.61-2.59 1.04-.67 3.46-1.7-2.13.2 1.97-.68 2.05.59 1.26 1.65 2.24 1.57-1.06 1.42 1.89-.35 2.37 1.06.04.04-3.12.77.99 2.88-1.11-.06-.89-3.67-1.83 3.29.35 1.71-3.26 1.94.01.25 1.54-1.24.92.05 1.53 1.63 1.78 1.86.28 1.53 1.37 1.45 2.82 5.73-1.35.06 2.86.75.15.84 2.58 1.6-.94 1.63.77 2.61-.69 1.06-1.53-.43-1.57 1.52-.84 3.78-.71 2.22 3.17 2.7-1.95 1.61 2.42 2.05-.93-1.26-.99.67-4.55 2.11-.05 1.11 1.61 3.01.99 2.59-.57-3.12 1.86 1.44 1.56 1.38-.38.32 1.22 3.91-1.1.97.2 1.34-.58-1.24-2.16 1.43-1.94-2.11-1.86 1.97-3.4.26-3.72 1.6-1.57 1.27-5.23-1.53-1.54-3.47-1.29-4.86 1.94-3.87-6.17-2.21-1.73-2.25.92-1.88-3.12-3.25.2-.31.81-2.58-1.38-4.08-3.39-2.73-3.42z" /><path d="m733.7 215.76l-5.23-1.86-4.34-2.28-.06-3.98 1.26-3.14-1.52-1.19.62-3.25-3.06-2.38-4.13-5.81-.02-1.78-2.09-4.94-3.66.47-2.09-1.74-1.95.79-1.54-1.84-.36-1.96-1.73-1.22-2.34.87-1.33-1.94-.86-2.75-2.01.02-1.19 1.29-1.95.37-2.16 2.9.08 2.52 1.05 3.83 2.2-.34 1.28 3.21 2.2 2.25.62 1.74 1.32.6 1.74 2.45-4.07 5.58-1.11-.39-1.1 2.32.92 1.17-1.08 1.74-.27 3.72-1.03.46-.13 1.99-1.64-.4-2.6.59.44 1.88 1.94 4.76-.4 4.22 1.52 3.35 1.81.77 2.91 3.69.74-.5 4.98 4.49 2.64-2.35 2.45-.17 1.96 3.08 2.16-.51 1.01-3.02-.56-1.76.79-1.04 3.98-.19 2.11.73 1.59-1.32 4.64-1.39 2.73-2.92-.45-1.21 1.92-3.75 1.13-.53.3-2.36 1.02-1.64z" /><path d="m508.84 240.93l-1.81-1.3-1.79.41-2.92-.71-.54-2.22-1.52.89-3.6-4.72-.81-2.12 2.45-2.48-5.01-1.94-2.9-3.89-4.66-4.89 1.74-.86-.8-1.51.82-1.9 3.32 1.81.89 1.54 1.6-.96-1.35-1.08 1.17-.88-.86-1.05 1.46-.94 1.32 1.27 1.32-.49 1.12-1.95 2.51 1.44-.16-.93-2.42-3.02.22-2.05-2.59-1.2 3.73.18.4-3.67-.64-.86-3.42-.86-1.37-1.06.37-1.43-.83-2.5.21-2.01-.81-.8.79-2.71-.7-2.05-4.06-.21-2.32-1.3-3.56-.16-2.47 1.87-3.06-2.26-.03-1.95-1.99-2.04.38-3.59-2.31.81 1.01 1.94-2.58 2.18-.9-3.45-2.92 4.62-.45 4.01-4.07 5.2-.59 3.18.36 2.48-2.14 2.99-.53 2.31.29 3.45-1.54.12-3.84-2.67-.87-1.5-2.58-1.03-1.75-2.52.38-1.4-3.49-2.65-1.43.29-6.92-1.65-2.22.87-.36 3.61-2.6 1.72 2.16.96-.57 3.02 2.34.89.78 4.57-4.2 5.67 2.35 2.23.3-1.6 1.84-2.57 4.2-.11 3-2.43 2.93-1.11-2.05 1.95-.83 2.48-2.31.17-2.22 2.24.28 3.61 2.6-1.44.44 1.96 2.1-.08-.27.85 2.1.48 2.23-1.12 2.31.44-1.48 4.22-.48 3.14-1.01.19.89 2.06-1.01 3.49-1.21 1.57.07 4.15-1.92-.24-2.65.73-1.67-.99-.76 2.07 3.14 2.21 2.63 5.2 1.66 1.25-.69 3.38 2.5 3.8 2.8.2-.81 1.36-4.06 2.66-4.71.51 3.57 1.61 3.39.24 1.56.85 2.09-.19 11.67 2.66 2.62-3.72 1.39 1.7 3.42 1.27 3.2 2.27 1.36.11 2.67 2.38 1.25.7 1.68-.86.15-2.02 1.27-1.22-.26-1.57 1.62-1.58 2.38.96 2.18-2.45.49-1.57-1.1-2.06-1.32-.63-1.74.83-1.92-1.29.71-1.59 4.42-4.17 1.32.15 1.9-1.96 3.11-.78 1.54-1.48 2.12-.64.06 1.38 1.66-.55 1.66-2.82.78 1.33 1.33-.47-.59-1.26.68-2.05-.2-1.97 1.7 2.13.67-3.46z" /><path d="m633.93 229.85l-2.52.63-1.76-2.5-1.23.02-2.05-1.82-.98 2.69-2.08-1.74-.03-3.88-3.55-2.08-2.1.65-5.66-2.92-1.05-2.31-2.11-.64-1.19-1.53-1.65 3.89 1.16 1.09.88 2.8.99.44 1.58 3.01 1.86 4.69 1.22 1.48-.87.45 1.02 1.56-1.06 1.53-2.13-.66.28 1.99-3.24.54-2.33-2.24 1.22 2.05-.76.51 1.08 1.94-3.67-.5-1.97 2.77-1.97 1.15-1.71-1.36-1.16 2.06-3.47-.79-.51 1.16 1.37 3.72-3.05-2.13-.83-2.23-1.79.33.24-1.28-3.09-3.11-1.26-3.65-2.25-.67.21-1.44-2.62-.37-.67 2.03-3.87-.13-2.55-2.44-1.09 1.88-1.42.69-1.27 5.23-1.6 1.57-.26 3.72-1.97 3.4 2.11 1.86-1.43 1.94 1.24 2.16-1.34.58 2.83 2.67 2.8.03 3.94 3.57.72-1.61 2.49-.87 1.74.32.61 2.01-.23 2.77 3.05 2.67.39 3.59 2.45.83 3.04-.38 2.64 2.02 1.43-.33 1.31 1 2.65-.07 1.98-1.3 3.1 1.45 1.13 2.82 2.17 2.44 2.23-2.76 3.51 2.96.36-1.61 1.36.62-.03 1.49 2.22.32.98-1.14.84 2.92-3.46 2.23.36 4 2.27 2.45 1.59.1 1.31 1.29 2.98-1.29-.62-1.98 2.17-1.84 1.22.81 1.88-1.08 3.77.39 2.42-4.02-.09-2.12-1.04-2.56 2.83-.82 2.8 2.71.82-4.42 1.13 4.43 2.71.43 2.03-.88-.49-.75 3.15-.4-.64-5.72.65-2.45-1.39-.98-.91-2.22.83-1.02-1.42-.91-1.21-3.23-2.12-1.72-.2-2.04-2.98-3.48 2.47-1.38-1.52-2.72.77-4.33.56.27 1.74-2.24 3.16-1.93 1.02-2.13-.85-.86 1.29-1.27-2.74-.98.22-2.32-2.14-.62-2-2.1-5.33-2.52z" /><path d="m583.74 203.89l-1.82.71-1.31 1.6-1.3-.01-1.84 1.88-3.07-1.23-1.56 1.61-3.96-1.01 0-3.13-.93.36-.68 2.45-1.74-2.44-.52.78-1.18-1.94-1.93.44-.95-1.51-2.86.86-4.43-.87.12 2.37-1.59 2.53-1.17.71-.81 2.23-.86-.22-6.16 5.26-2.5-1.55-1.9.71-2.07 2.53 2.73 3.42 4.08 3.39 2.58 1.38.31-.81 3.25-.2 1.88 3.12 2.25-.92 2.21 1.73 3.87 6.17 4.86-1.94 3.47 1.29 1.53 1.54 1.42-.69 1.09-1.88 2.55 2.44 3.87.13.67-2.03 2.62.37-.21 1.44 2.25.67 1.26 3.65 3.09 3.11-.24 1.28 1.79-.33.83 2.23 3.05 2.13-1.37-3.72.51-1.16 3.47.79 1.16-2.06 1.71 1.36 1.97-1.15 1.97-2.77 3.67.5-1.08-1.94.76-.51-1.22-2.05 2.33 2.24 3.24-.54-.28-1.99 2.13.66 1.06-1.53-1.02-1.56.87-.45-1.22-1.48-1.86-4.69-1.58-3.01-.99-.44-.88-2.8-1.16-1.09 1.65-3.89-.83-2.3-2.87-.66-.83-1.94-1.78-1.07-.94-1.93-5.58 1.65-2.76-2.19-1.57 1.05-1.39-.5-1.97.8-3.36-3.44z" /><path d="m768.75 287.53l1.7-3.03 3.65-1.44.07-3.89 1.57-3.21-.36-2.59 5.87-8.6.84-.38.32-3.07 3.2-1.62 2.74.66 3.3-1.86-.82-3.14 1.83-1.77.6-10.16 1.74-1.71-1.32.05-2.2-1.54-4.31.55-1.11 1.11-3.04-1.64-2.77-2.23-2.96.3-.81.67-1.95-.8-2.25-3.19-.79-2.13-1.55-.98-1.57-3.15-.55.48-3.73-.53-1.97 2.18-3.12-1.33-2.08-.18-4.43-2.41-3.08 0 .35-2.34.84-.56-.34-2.89-2.61-1.09-2.82 2.32-1.94-1.97-2.94-1.24-.82 2-1.43.73-.65 3.06-.83.47-.16 3.56-1.77.01-1.71 1.94.58 2.01-.45 4.34 2.94 1.38.78 4.1-2.31 1.63-.9-.29-2.08 1.85-.03 4.39 1.57 2.31-4.13 3.77-1.55-.83-1.85.64-1.17 3.71.28 1.97-4.62 3.22 1.07 2.95 2.45-.5 2.06.8 1.33 1.77 1.48-.85 1.86.28.89 1.98 2.3.38.46-1.97 1.51.48 1.86-3.08 1.71 1.78-.95 1.58 3.13.18 2.43 1.89 5.07.52.7 2.11-.12 2.2 2.64 5.82-.5 1.69.71 1.06 4.37-.76 1.71.45 2.91-1.32 2.35 1.39 4.77-.1.91 1.65z" /><path d="m583.47 188.15l-2.21-.79-5.29 2.38-2.64-2.04-.99-2.04.63-.7-1.35-1.29-2.07 1.12.17-2.81-2.12-3.09-1.5-.03-2.32 2.58-1.66-.13-1.99-2.89-1.88.71 1.3-3.14-.37-.66-2.7.09.99-2.04-1.13-.79-2.21.76-.75-.95.62-1.76-1.78-1.86 1.51-1.46-2.1-.91.6-1.58-3.03-1.82-4.19-.25-3.64 2.59-.04.57-3.09.35-.5-1.33-1.85-.75-.29-1.33-1.49.82.2 2.21-1.06.05-.79 2.48-1.25 1.18-1.3-.32-1.02 1.62-2.37-.54-1.42-1.62-4.69-1.88-.7-2.09-1.95-.76-1.77-1.68-5.53-1.12-.93 1.95 1.08.35-.46 1.89 2.09 2.18-2.54 1.19-.86 4.47-1.16 3.58-1.57 3.11-1.33 1.46-.16 2.93 3.5 2.45 4.72-2.59 2-2 1.02.64 1.08-1.41 1.28 7.3 1.09.84-1.95 4 2.14 2.46 1.03 2.43 1.38.3 1.37 1.87 3 2.24.01 1.4 2.07 1.25 1.35-.37 1.61 2.03 1.29 4.02-.26 4.14 2.99 2.23 1.38-.54 2.07-2.53 1.9-.71 2.5 1.55 6.16-5.26.86.22.81-2.23 1.17-.71 1.59-2.53-.12-2.37 4.43.87 2.86-.86.95 1.51 1.93-.44 1.18 1.94.52-.78 1.74 2.44.68-2.45.93-.36 0 3.13 3.96 1.01 1.56-1.61 3.07 1.23 1.84-1.88 1.3.01 1.31-1.6 1.82-.71 1.2-1.88.39-3.18-.91-1.08-.79-3.48 2.94-.19-3.1-5.93z" /><path d="m689.72 181.26l-.67-.86-.26-3.37-4.92-3.44-.21-2.41-3.19-1.73-2.04 1.39-3.52-1.44-.46-1.87-1.28-.88-1.65-3.51-2.2.42-1.85 1.89-3.49-.17-1.51-1.28-1.92 1.58-2.33-.59-1.98 2.02-.46 1.49-2.6-2.49-1.29.39-1.07 2.36-3.06-.24-1.57.77-1.04 2.86-3.18 2.59-.78 2.64-2.26.72-2.9-.23-.51 1.07 2.31 1.66 2.14.65 2.78 1.87-1.89 2.88-2.26 1.21 3.78 2.04 1.54 1.89 1.48-.83.74 4.69 1.3 1.67 1.98-.04 2.8 3.28-.37 2.09-1.06 1.14 2.63 3.02-.1 2.9 1.35 1.48-2.87 2.16-1.71-.38-1.68 2.23-.07 3.21 2.24 1.62 1.48-.78-1 1.84.18 1.5 3.47 1.57-1.11 2.15.71 2.85.74-2.12.98.84-1.39 1.47-.48-.27-.81-1.69-3.39 1.32.08-1.49-3.61-4.2-1.97.4-.26 1.46-1.63.67.36 1-2.09 1.36-5.14.04-.28 1.57-1.49.98 5.33 2.52 2 2.1 2.14.62-.22 2.32 2.74.98 2.87-.32 2.91 1.68 1.14-.1.65 1.83 4.53-2.18 1.8-1.79-.26-1.84.83-3.24-1.52-1.23.31-2.27 2.19 2.77 2.06-1.72.46-3.16-1.43-1.31-1.74-3.33.94-2.21 1.29-.86.79-3.17 1.09-.66.38-3.13-.52-4.77 1.44-2.26 2.31-1.19-.3-3.12.53-2.04 2.18-1.4-.63-3.32 1.07-.64 1.3.93 2.08-.4.98-1.97 2.87-1.76-1.18-2.25 3.03-2.24 1.55 1.49 3.12 6.92-.19 1.41 3.5.06-.15-2.85-1.65-3.66-.26-3.58 3.43-4.25z" /><path d="m688 277.67l-1.32-6.59 1.04-2.7 1.94-.75-.29-1.61 1.11-3.11-3.46-4.19.6-2.5-1.77-1.51 1.4-2.87-3.22-2.58 1.67-4.29 2.15-1.71-1.34-2.42.52-.78-2.79-4.75.63-4.21-.94-2.41-1 1.07-2.52.62.89 3.78-.05 2.34-3.14 3.17-.93.02-2.45 1.94-1.7.43 1.52 2.51-1.21 1.22-2.39.77-2.56-2.52-1.65-2.78-1.42-.33.08-4.57-2.18-3.06-1.85-1.6-2.19-2.77-.31 2.27 1.52 1.23-.83 3.24.26 1.84-1.8 1.79-4.53 2.18-.65-1.83-1.14.1-2.91-1.68-2.87.32-1.29 1.27.85.86-1.02 2.13-3.16 1.93-1.74 2.24-.56-.27-.77 4.33 1.52 2.72-2.47 1.38 2.98 3.48.2 2.04 2.12 1.72 1.21 3.23 1.42.91-.83 1.02.91 2.22 1.39.98-.65 2.45.64 5.72-.07 2.77 1.57.25-.3 4.41 1.67 2.28 1.55.32 1.17 2.13-.52 2.42 1.98 3.94 3.21.19 1.68.8.72 2.06 1.53-.37 2.78 1.97 3.07-1.19 2.96.13 1.93 3.05 3.8.65 2.43-.62 1.41-2.84 1.52.1-.18 1.2 2.25.07-.01-1.25 1.98-1.28 2.92-.85 1.48.37-.23-2.25.99-.92-1.84-3.33.85-2.98-1.37-4.98 1.02-.81-1.25-3.53.64-.18-.01-2.81z" /><path d="m589.05 271.24l-3.04.38-2.45-.83-.39-3.59-3.05-2.67.23-2.77-.61-2.01-1.74-.32-2.49.87-.72 1.61-3.94-3.57-2.8-.03-2.01 1.71 1.04 3.86-2.2 2.1 2.67.06 1.07 2.41 1.82 1.56-2.19 2.93-1.32.72-1.82 2.72-1.33 3.1-4.71 1.96-8.66 1.39-1.56 1.03-2.35.15-1.77-2.27-1.67-.56-1.79-2.18-1.84-.04-1.33-1.36-2.32-.19-1.52 2.14.51-4.92-.5-.42.34-3.63-1.9.1-.4-1.03-4.61 1.44-3.13 2-.9 2.22-.08 2.78-1.42 1.43-.82 2.19-2.01 1.38-.15 2.37-2.94.98.27 4.01.05 1.94 1.94.91.6 1.21-.22 2.87 1.29 3 1.5.66 4.22-.85 1.6-1.06 2.47 2.44 2.09 1.15-1.15 2.51.53 1.17-.24 4.51.68 2.21 1.74 1 1.33-.7 1.04 1.44 1.74.15 1.81 1.84 2.56 1.18.71-.77.96-1.16-.5-1.81 1.72-2.89-.18-3.06 2.31-1.93 3.58-.72 2.39-1.56 2.25-.09 2.8-3.13.09-2.8 2.5-2.23 1.73 1.84 3.27.18 2.9 1.64 2.52-.56 1.39-1.6 3-.59 4.59 1.95 2.19-.3 1.7-1.17-.89-2.05.78-.48-.24-2.9 2.96-.79-.54-1.78 2.16.11.76-.84-1.44-2.08 2.78-.9-.38-2.84-.89.26-.11-1.98-2.6-1 .17-2.61 1.63-1.35 1.3 1.54.33-2.92-1.14-2.79.39-.63z" /><path d="m620.68 297.5l-1.72-2.37-1.52.91 0-1.83-2.1 3.06-3.39 1.89-1.68.23-.43-3.08-2.19-2.03-1.81-.1-2.29-1.95-1.27-2.95-1.54-.66-2.84 3.09 1.68 4.01-.51 1.64-2.01-.75-.56.8.36 2.97-.84.57 1.49 1.67.93-.25 3.73 5.2 1.21.4 1.34-.18 4.11 2.37.33-1.04 2.7.25 1.07 2.42 3.06-.65.95-1.16-.48-3.22 1.79-4.04 1.25-1.21-.01-2.99 1.19-1.02z" /><path d="m612.93 311.79l-1.07-2.42-2.7-.25-.33 1.04-4.11-2.37-1.34.18-.83.44 2.04 2.48-.22.88 1.82 3.78-2.85-.57.4 1.65-.4 5.84-.8 1.09-3.56-.72.3-2.11-4.11 2.55.92 3.59-1.3 3.66 6.01.31.81.99-.2 4.34 1.35 2.78 5.08 2.51 2.78-1.38-1.29-5.75-.66-.99 1.05-2-2.59-3.54.93-1.28 2.42-1.28 1.94.94-.79-3.23-2.44-.86-1.6-1.48.73-2.33 2.1-1.88 2.51-4.61z" /><path d="m622.7 312.78l1.49-.84-1.3-.92.77-3.11-1.51-.68.56-1.22-2.09-4.3.72-2.34-.66-1.87-1.19 1.02.01 2.99-1.25 1.21-1.79 4.04.48 3.22 2.68.67-.43 1.71 3.51.42z" /><path d="m646.67 278.75l-3.15.4.49.75-2.03.88-2.71-.43-1.13-4.43-.82 4.42-2.8-2.71-2.83.82 1.04 2.56.09 2.12-2.42 4.02-3.77-.39-1.88 1.08-1.22-.81-2.17 1.84.62 1.98-2.98 1.29-1.31-1.29-1.59-.1-2.27-2.45-.36-4 3.46-2.23-.84-2.92-.98 1.14-2.22-.32.03-1.49-1.36-.62-.36 1.61-3.51-2.96-2.23 2.76-2.17-2.44-1.13-2.82-3.1-1.45-1.98 1.3-2.65.07-1.31-1-1.43.33-2.64-2.02-.39.63 1.14 2.79-.33 2.92-1.3-1.54-1.63 1.35-.17 2.61 2.6 1 .11 1.98.89-.26.38 2.84-2.78.9 1.44 2.08-.76.84-2.16-.11.54 1.78-2.96.79.24 2.9-.78.48.89 2.05-1.7 1.17-2.19.3-4.59-1.95-3 .59-1.39 1.6-2.52.56-2.9-1.64-3.27-.18-1.73-1.84-2.5 2.23-.09 2.8-2.8 3.13-2.25.09-2.39 1.56-3.58.72-2.31 1.93.18 3.06-1.72 2.89.5 1.81-.96 1.16 3.23 1.62 3.76-.04 1.38.85 1.61 4.51 2.33 2.04.15 2.29-1.2-.89-3.68-.26 1.7 2.75.02 2.3-2.36-.7.12 5.76 5.58-1.28.1 1.79 1.81-1.44-.9 3.06 1.35.01 1.66 3.2 1.21.28 5.39-1.65 1.75 1.44.6 3.17 2.86 1.05-.09 2.54 2.76-.45.68 1.42 1.32-1.71 3.41-1.05 2.53 1.2 4.41.47 3.15 1.85 1.04 1.54-.61 2.01.88 1.28 2.19.84 2.3-.79 2.8-4.31 1.18-.9 2.51.81 1.85-1.64 2.27-.05 1.73-2.01 1.65.76.81-1.09 3.6 2.95 4.14 1.12 2.76-2.28.83-2.83-1.03-.79.72-1.77 4.31-.01 4.1.67 2.22-.99 2.84.99.75-.83.27-3.15 2.44-1.22 1.36 2.19 1.02-.33 1.69 2.25 2.26 1.66 2.68.8 1.16 2.37 1.02-1.26-1.54-2.65 4.04-5.21-2.93-.65-.49-.96 5.28-3.59 2.03 1.54 1.65-1.61-3.8-5-.99-.34-1.46-2.91 1.75-5.46-.67-4.59 1.8-1.09-.84-1.54 1.58-3.76-1.35-4.1-.29-2.67 1.22-1.61-.82-1.11.36-2.8-1.98-3.94.52-2.42-1.17-2.13-1.55-.32-1.67-2.28.3-4.41-1.57-.25.07-2.77zm-43.29 29.22l-1.21-.4-3.73-5.2-.93.25-1.49-1.67.84-.57-.36-2.97.56-.8 2.01.75.51-1.64-1.68-4.01 2.84-3.09 1.54.66 1.27 2.95 2.29 1.95 1.81.1 2.19 2.03.43 3.08 1.68-.23 3.39-1.89 2.1-3.06 0 1.83 1.52-.91 1.72 2.37.66 1.87-.72 2.34 2.09 4.3-.56 1.22 1.51.68-.77 3.11 1.3.92-1.49.84 1.43 1.19-.36 3.54 1.71 2.74 1.03.57-.21 3.09.78.4.25 3.25-3.39-1.17-.63-1.02-5.93-.24-2.21 1.28-2.75-.23-1.94-.94-2.42 1.28-.93 1.28 2.59 3.54-1.05 2 .66.99 1.29 5.75-2.78 1.38-5.08-2.51-1.35-2.78.2-4.34-.81-.99-6.01-.31 1.3-3.66-.92-3.59 4.11-2.55-.3 2.11 3.56.72.8-1.09.4-5.84-.4-1.65 2.85.57-1.82-3.78.22-.88-2.04-2.48.83-.44z" /><path d="m738.19 280.03l-4 .77-.59 2.7.91 1.22-.07 5.25-7.47-.4-.67-.36-4.68 1.25-6.34-.15.08-1.6-5.2-.49-.79-.79-.16-3.53-1.81-.45-2.31-2.08-3.84-1.86-5.15-1.08-1.92 1.41-1.55-2.66-2.89-.58-1.74 1.07.01 2.81-.64.18 1.25 3.53-1.02.81 1.37 4.98-.85 2.98 1.84 3.33-.99.92.23 2.25-1.48-.37-2.92.85-1.98 1.28.01 1.25 1.26 2.12-1.08 4.73-2.22.91-3.99.54 2.65 4.86-.5 1.7 3.52 1.9.14 2.59 2.55 5.95.2 1.92 1.13.25.49-1.78.54 8.69 1.23 3.02-1.74-.06.3 6.09.53.34.33 5.22 3.5 1.86-2.14 2.69-1.1-.47-.47 2.12 2.15 3.79-1.52 2.94 1.32.81-2.35.96 2.45.07.69.82 1.2-1.22 1.72-3.88 1.96.1 1.29-1.76 1.78-.99 2.4-.32 1.88 1.44.3-1.06 7.98-.61 2.85.46.21-1.27 4.63-.51 3.14 4.31 1.24.3 3.28 3.95 2.8-.29 1.35 1.32 1.24 4.69.84.11 1.39-7.35.8-5.98.72-2.45.74-8.73.77-2.01-1.74.6-.77-4.3-2.18.11-.75-2.67.54-5.55-1.51.46-.1-2.09-3.48-3.33-2.1-1.25 1.64-2.22-1.23-2.19 1.94-1.38-1.55-5.72-2.28-6.56 4.83-1.21.46-1.49-2.22.39-.24-3.09 2.14-2.55-1.08-.78 3.96-3.74 4.56.32 1.24-2.06-.66-1.92 1.16-2.22.15-1.94 1.31-2.92.19-3.47-1.25-2.5z" /><path d="m516.52 290.45l-2.93-.96-.95-1.7-1.72-.34-1.82 2.73 1.03-2.54-.31-1.3-2.6-1.75-.23-2.58-2.25-1.4-2.46.4-.98-1.38-3.19-.42-2.15-1.2 1.18-.97.71-2.29 1.3-1.23-.87-.72.24-3.16-1.38-1.54 1.14-1.33.93.45 2.54-1.19-5.31-.81-1.7-1.75-2.69-1.18-.49 1.57-2.18 2.45-2.38-.96-1.62 1.58.26 1.57-1.27 1.22-.15 2.02-1.68.86-1.25-.7-2.65.57-.83 2-.44 3.24-3.2 2.08-.43 1-2.68 1.96.16 4.58-.9 1.16 1.6 3.61-3.7 3.19-.32 5.94 1.07 1.74 2.59-.24 4.46 4.71 2.51 1.76 1.57 2.29 1.69 4.22 1.61.96-1.38 2.76 1.15 4.36-1.15 2.5 3.31 1.45 1.75-.66 1.1 1.83 1.82.37-1.3 2.97.27 1.94-1.52 1.34-1.4 3.48-.04 2.55-1.17.52-.86 2.33-2.23.91-.66 3.61 1.32 1.37-.63 3.12 1.86 1.27 2.88.44-1.1 1.89 4.79.7 1.51-1.34 2.08 2.54 2.39-.76 1.07-1.94 2.31.74 2.56-1.09 1.03 2.04 3.54-2.25 1-2.39 1.35-.43.58-3.97-.54-2.17.72-2.97 1.76-.54.75 1.52 1.65.61 1.42-3.31 5.39 2.06 1.89-1.3 2.21-.08 1.11-1.43 2.83-.1 1.45-1.87 2.43-.1 1.05.68 4.08-1.83 3.48.06 8.56-.61-.12-5.76 2.36.7-.02-2.3-1.7-2.75 3.68.26 1.2.89-.15-2.29-2.33-2.04-1.61-4.51-1.38-.85-3.76.04-3.23-1.62-.71.77-2.56-1.18-1.81-1.84-1.74-.15-1.04-1.44-1.33.7-1.74-1-.68-2.21.24-4.51-.53-1.17 1.15-2.51-2.09-1.15-2.47-2.44-1.6 1.06-4.22.85-1.5-.66-1.29-3 .22-2.87-.6-1.21-1.94-.91-.05-1.94z" /><path d="m768.75 287.53l-.91-1.65-4.77.1-2.35-1.39-2.91 1.32-1.71-.45-4.37.76-.71-1.06.5-1.69-2.64-5.82.12-2.2-.7-2.11-5.07-.52-1.2 2.14-3.26 2.75-.58 2.32 1.25 2.5-.19 3.47-1.31 2.92-.15 1.94-1.16 2.22.66 1.92-1.24 2.06-4.56-.32-3.96 3.74 1.08.78-2.14 2.55.24 3.09 2.22-.39-.46 1.49-4.83 1.21 2.28 6.56 1.55 5.72-1.94 1.38 1.23 2.19-1.64 2.22 2.1 1.25 3.48 3.33.1 2.09 1.51-.46-.54 5.55.75 2.67 2.18-.11.77 4.3 1.74-.6 3.38-6.64 1.27.14 2.45-2.37 1.95.22 2.82-3.81.14-1.63 5.04-3.32 2.3-2.42 3.14-1.26 1.97-.12.96-4.51 2.12-4.11.38-2.85-2.51-2.55.44-2.88 2.62-2.71 1.25-.56.85-2.49 1.12-.86-.29-5.28-.99-2.34.58-.64.55-4.78z" /><path d="m565.22 255.64l-.97-.2-3.91 1.1-.32-1.22-1.38.38-1.44-1.56 3.12-1.86-2.59.57-3.01-.99-1.11-1.61-2.11.05-.67 4.55 1.26.99-2.05.93-1.61-2.42-2.7 1.95-2.22-3.17-3.78.71-1.52.84.43 1.57-1.06 1.53-2.61.69-1.63-.77-1.6.94-.84-2.58-.75-.15-.06-2.86-5.73 1.35-1.45-2.82-1.53-1.37-1.86-.28-1.63-1.78-.05-1.53 1.24-.92-.25-1.54-1.94-.01-1.71 3.26-3.29-.35 3.67 1.83.06.89-2.88 1.11-.77-.99-.04 3.12-1.06-.04.35-2.37-1.42-1.89-1.57 1.06-1.65-2.24-1.33.47-.78-1.33-1.66 2.82-1.66.55-.06-1.38-2.12.64-1.54 1.48-3.11.78-1.9 1.96-1.32-.15-4.42 4.17-.71 1.59 1.92 1.29 1.74-.83 1.32.63 1.1 2.06 2.69 1.18 1.7 1.75 5.31.81-2.54 1.19-.93-.45-1.14 1.33 1.38 1.54-.24 3.16.87.72-1.3 1.23-.71 2.29-1.18.97 2.15 1.2 3.19.42.98 1.38 2.46-.4 2.25 1.4.23 2.58 2.6 1.75.31 1.3-1.03 2.54 1.82-2.73 1.72.34.95 1.7 2.93.96-.27-4.01 2.94-.98.15-2.37 2.01-1.38.82-2.19 1.42-1.43.08-2.78.9-2.22 3.13-2 4.61-1.44.4 1.03 1.9-.1-.34 3.63.5.42-.51 4.92 1.52-2.14 2.32.19 1.33 1.36 1.84.04 1.79 2.18 1.67.56 1.77 2.27 2.35-.15 1.56-1.03 8.66-1.39 4.71-1.96 1.33-3.1 1.82-2.72 1.32-.72 2.19-2.93-1.82-1.56-1.07-2.41-2.67-.06 2.2-2.1-1.04-3.86 2.01-1.71-2.83-2.67z" /><path d="m682.83 302.47l-2.25-.07.18-1.2-1.52-.1-1.41 2.84-2.43.62-3.8-.65-1.93-3.05-2.96-.13-3.07 1.19-2.78-1.97-1.53.37-.72-2.06-1.68-.8-3.21-.19-.36 2.8.82 1.11-1.22 1.61.29 2.67 1.35 4.1-1.58 3.76.84 1.54-1.8 1.09.67 4.59-1.75 5.46 1.46 2.91.99.34 3.8 5-1.65 1.61-2.03-1.54-5.28 3.59.49.96 2.93.65-4.04 5.21 1.54 2.65-1.02 1.26.91 4.47 2.11 2 .07 1.03 2.65-.53.55 1.32 1.69.25 2.35-1.73 1.32 1.26 1.29-.36 1.12 7.56-.61.61 1.46 2.28-.11 2.06 1.13.38 1.61 2.45.97 3.99.72 1.11-.36 4.01 2.59.88 2.54 1.85.26 2.88 1.21 0-.39 1.78 1.51 1.61 2.97.41 2.76 2.11 2.38.11 2.14-.64 2.71 1.22-.18.88 2.46-.29.38-5.82 2.44-.6 1 2.26.5-.95 1.37.96 1.79-.54-.68-1.07 2.25.26 1.79-1.26 2.15 1.7.79-1.67 2.69-1.89 4.04.09 1.7.57 4.77-2.9 3.49 3.16 1-1.05 1.54.21.54-1.06 1.29 3.29.95-1.41 1.09.52 1.27-.98 1.46.64 2.05-.38-.62-2.17 2.71-.76.73-1.69-1.76-.45-.62-2.81.69-5.98-.84-.11-1.24-4.69-1.35-1.32-2.8.29-3.28-3.95-1.24-.3-3.14-4.31-4.63.51-.21 1.27-2.85-.46-7.98.61-.3 1.06-1.88-1.44-2.4.32-1.78.99-1.29 1.76-1.96-.1-1.72 3.88-1.2 1.22-.69-.82-2.45-.07 2.35-.96-1.32-.81 1.52-2.94-2.15-3.79.47-2.12 1.1.47 2.14-2.69-3.5-1.86-.33-5.22-.53-.34-.3-6.09 1.74.06-1.23-3.02-.54-8.69-.49 1.78-1.13-.25-.2-1.92-2.55-5.95-.14-2.59-3.52-1.9.5-1.7-2.65-4.86 3.99-.54 2.22-.91 1.08-4.73-1.26-2.12z" /></g></g></svg>