<?xml version="1.0" encoding="utf-8"?><svg xmlns="http://www.w3.org/2000/svg" version="1.1" baseProfile="tiny" width="800" height="600" viewBox="0 0 800 600"><g><g stroke="#000000" stroke-width=".98" fill="#FFFFFF"><path d="m39.37 385.29l-6.73-4.52-.62 6.62 5.91 1.46 1.44-3.56z" /><path d="m45.83 407.22l14.7-11.62-6.74-16.28-14.42 5.97-1.44 3.56 7.9 18.37z" /><path d="m54.41 376.82l-11.98-9.27-9.79 13.22 6.73 4.52 14.42-5.97.62-2.5z" /><path d="m42.93 366.64l-24.4-5.83.67 19.07 10.53 7.4 2.29.11.62-6.62 9.79-13.22.5-.91z" /><path d="m29.73 387.28l2.18 20.22 20.79 6.92-6.87-7.2-7.9-18.37-5.91-1.46-2.29-.11z" /><path d="m78.14 316.24l-3.78-2.05 7.96-17.56-4.94-11.13-14.31 16.6-39.77 2.54-15.47 16.35-2.83 20.46 13.53 19.36 24.4 5.83 28.6-40.52 6.61-9.88z" /><path d="m88.46 359l3.38-9.39-20.31-23.49-28.6 40.52-.5.91 11.98 9.27 34.05-17.82z" /><path d="m95.36 365.23l-6.9-6.23-34.05 17.82-.62 2.5 6.74 16.28-14.7 11.62 6.87 7.2.57 2.23 33.2-25.92 8.89-25.5z" /><path d="m86.47 390.73l-33.2 25.92 11.72 5.14 14.19 23.64 32.53 29.48 28.35-30.71-.91-8.66-14.52-20.7-38.16-24.11z" /><path d="m143.87 355.61l-13.73.06-28.99 18.29-5.79-8.73-8.89 25.5 38.16 24.11 14.52 20.7 1.13-5.24-8-34.44 12.54-12.67-1.03-13.76.08-13.82z" /><path d="m145.58 319.53l-23.27 3.57 7.83 32.57 13.73-.06 16.53-21.92-14.82-14.16z" /><path d="m130.54 285.71l-19.32 6.46-1.08 13.05 12.17 17.88 23.27-3.57 19.98-17.09-35.02-16.73z" /><path d="m104.89 293.88l-12.32-34.41-9.23.94-29.13 16.71-23.95-1.5-6.96 29.02 39.77-2.54 14.31-16.6 4.94 11.13-7.96 17.56 3.78 2.05 26.75-22.36z" /><path d="m89.96 253.63l-26.49-15.41-11.91 7.79-21.3 29.61 23.95 1.5 29.13-16.71 6.62-6.78z" /><path d="m231.8 161.43l-6.92.22-10.41 3.34 9.73 17.67 10.42 48.96 3.28 5.65 14.93-7.43 4.78-23.68-15.29-16.91-10.52-27.82z" /><path d="m111.22 292.17l-6.33 1.71-26.75 22.36-6.61 9.88 20.31 23.49-3.38 9.39 6.9 6.23 5.79 8.73 28.99-18.29-7.83-32.57-12.17-17.88 1.08-13.05z" /><path d="m218.84 248.36l-14.58 3.58-2.37 19.21-30.5 3.66-.36 7.14 26.36 19.54 24.15-13.14 8.34-9.25-1.33-21.55-9.71-9.19z" /><path d="m234.62 231.62l-22.09-12.51-18.3-24.45-4.3 15.44 1.66 27.33 27 5.09 15.97 7.01 8.4-8.47-5.06-3.79-3.28-5.65z" /><path d="m263.41 157.21l-31.61 4.22 10.52 27.82 15.29 16.91 8.82-26.16-3.02-22.79z" /><path d="m121.08 250.63l-31.12 3-6.62 6.78 9.23-.94 12.32 34.41 6.33-1.71 19.32-6.46-9.46-35.08z" /><path d="m153.05 236.07l-31.97 14.56 9.46 35.08 35.02 16.73 5.47-20.49.36-7.14-17.45-14.59-.89-24.15z" /><path d="m221.54 288.35l-24.15 13.14 11.56 28.78 23.82-8.74 2.97-3.9-3.68-23.16-10.52-6.12z" /><path d="m235.47 366.53l7.74-8.27-10.44-36.73-23.82 8.74-17.41 10.71 5.31 21.38 21.01 16.57 17.61-12.4z" /><path d="m260.92 237.41l-17.96 3.65-8.4 8.47-15.97-7.01.25 5.84 9.71 9.19 1.33 21.55-8.34 9.25 10.52 6.12 3.68 23.16 21.28-11.68 26.54-20.89-15.79-22.78 4.51-18.28-11.36-6.59z" /><path d="m214.47 164.99l-14.35 8.26-5.89 21.41 18.3 24.45 22.09 12.51-10.42-48.96-9.73-17.67z" /><path d="m218.59 242.52l-27-5.09-1.66-27.33-24.26 7.67-12.62 18.3.89 24.15 17.45 14.59 30.5-3.66 2.37-19.21 14.58-3.58-.25-5.84z" /><path d="m140.28 430.3l-1.13 5.24.91 8.66-28.35 30.71 10.16 5.04 43.2.37 27.43 7.6 31.33-2.34 3.27-12.22-21.37-13.74-.37-9.76-33.27-14.04-19.76.42-12.05-5.94z" /><path d="m267.76 352.92l-14.54 12.51-17.75 1.1-17.61 12.4-9.74 17.71 11.87 10.23-1.03 32.2 11.42 10.32 32.8.02 8.07-19.08 27.5-5.78 6.93-25.81-21.42 7.94-13.59-7.06 9.38-23.86-12.29-22.84z" /><path d="m171.03 281.95l-5.47 20.49-19.98 17.09 14.82 14.16 31.14 7.29 17.41-10.71-11.56-28.78-26.36-19.54z" /><path d="m191.54 340.98l-31.14-7.29-16.53 21.92-.08 13.82 14.61 7.71 1.93 17.63 4.72 5.54 21.97-11.63 21.1 7.96 9.74-17.71-21.01-16.57-5.31-21.38z" /><path d="m208.12 396.64l-21.1-7.96-21.97 11.63-4.72-5.54-8 41.47 19.76-.42 33.27 14.04.37 9.76 21.37 13.74-3.27 12.22 20.75.53 26.93-9.31-10.79-12.37 2.46-15.02-32.8-.02-11.42-10.32 1.03-32.2-11.87-10.23z" /><path d="m160.33 394.77l-1.93-17.63-14.61-7.71 1.03 13.76-12.54 12.67 8 34.44 12.05 5.94 8-41.47z" /><path d="m334 152.19l-19.2.1.75-22.24-57.43-4.13-.26 6.76-32.98 28.97 6.92-.22 31.61-4.22 9.88 3.24 10.29-9.24 19.75 16.75 29.41 3.84 4.98-4.13-3.72-15.48z" /><path d="m373.03 172.37l-20.66 2.52-14.65-7.22-4.98 4.13-6.75 18.11 6.67 17.43 39.02-4.32 18.85-13.51-17.5-17.14z" /><path d="m303.33 167.96l-19.75-16.75-10.29 9.24 5.6 15.92 26.67 2.59-2.23-11z" /><path d="m417.8 198.59l-27.27-9.08-18.85 13.51 3.82 13.19-15.03 22.65 1.97 14.31 21.44-2.87 27.15 12.3 33.86-.01 9.61-4.54-12.08-16.1 11.27-20.46-19.58-21.13-16.31-1.77z" /><path d="m332.66 207.34l-6.67-17.43-31.89 11.78-6.47 13.03-26.71 22.69 11.36 6.59 6.58-5.53 34.5 21.08 6.71.77 12.59-52.98z" /><path d="m396.73 145.75l-12.99-33.67-14.94 14.61-18.11 4.36-6.32 19.62-10.37 1.52 3.72 15.48 14.65 7.22 20.66-2.52 23.7-26.62z" /><path d="m371.68 203.02l-39.02 4.32-12.59 52.98 37.3-1.58 5.07-5.57-1.97-14.31 15.03-22.65-3.82-13.19z" /><path d="m313.36 259.55l-34.5-21.08-6.58 5.53-4.51 18.28 15.79 22.78 23.55.8 6.25-26.31z" /><path d="m417.8 198.59l6.49-41.71-9.82 4.2-17.74-15.33-23.7 26.62 17.5 17.14 27.27 9.08z" /><path d="m692.17 215.04l11.71-18.73-10.45-13.78-2.33-1.68-19.57 12.83-8.87 37.79 9.61 14.91 13.02-17.94 6.88-13.4z" /><path d="m273.29 160.45l-9.88-3.24 3.02 22.79-8.82 26.16-4.78 23.68-14.93 7.43 5.06 3.79 17.96-3.65 26.71-22.69 6.47-13.03 31.89-11.78 6.75-18.11-29.41-3.84 2.23 11-26.67-2.59-5.6-15.92z" /><path d="m357.37 258.74l-37.3 1.58-6.71-.77-6.25 26.31 3.78 13.61 25.04 13.44 35.68-5.84 4.19-11.73-13.88-16.8-4.55-19.8z" /><path d="m300.64 324.72l-22.82 14.37-10.06 13.83 12.29 22.84 21.53-22.62-.94-28.42z" /><path d="m444.89 262.59l-33.86.01-27.15-12.3-21.44 2.87-5.07 5.57 4.55 19.8 13.88 16.8-4.19 11.73 1.83 3.29 23.87 8.93 10.82-5.42 20.75-23.7 20.36-6.41 21.71 4.69 11.01-16.65-37.07-9.21z" /><path d="m397.31 319.29l-23.87-8.93-28.34 13.74-9.3 18.54 14.48 20.9 5.73-1.3-2.9-18.84 30.46-8.03 13.74-16.08z" /><path d="m333.2 368.62l-31.62-15.48-21.53 22.62-9.38 23.86 13.59 7.06 21.42-7.94 26.2-9.83 1.32-20.29z" /><path d="m383.57 335.37l-30.46 8.03 2.9 18.84 18.85 25.05-1.31 15.39 12.9-7.56 34.47 20.12 7.48-17.28-12.14-30.01-22.31 4.42-10.38-37z" /><path d="m416.26 367.95l11.5-1.8-9.15-30.62 6.81-6.2-17.29-15.46-10.82 5.42-13.74 16.08 10.38 37 22.31-4.42z" /><path d="m470.95 288.45l-21.71-4.69-20.36 6.41 9.76 4.62 16.88 48.68 25.3 26.69 16.24-3.35 6.84-8.7-21.45-4.5 8.25-24.23-22.18-28.15 2.43-12.78z" /><path d="m497.06 366.81l-16.24 3.35-25.3-26.69-16.88-48.68-9.76-4.62-20.75 23.7 17.29 15.46-6.81 6.2 9.15 30.62-11.5 1.8 12.14 30.01-7.48 17.28 5.74 7.02 44.38-28.04 5.73 4.18 20.29-31.59z" /><path d="m356.01 362.24l-5.73 1.3-3.27 22.19-13.81-17.11-1.32 20.29-26.2 9.83-6.93 25.81 31.16 7.29 35.62-8.9 8.02-20.26 1.31-15.39-18.85-25.05z" /><path d="m310.89 299.47l-10.25 25.25.94 28.42 31.62 15.48 13.81 17.11 3.27-22.19-14.48-20.9 9.3-18.54 28.34-13.74-1.83-3.29-35.68 5.84-25.04-13.44z" /><path d="m277.82 339.09l-11.29-2.65-9.51-30.49-21.28 11.68-2.97 3.9 10.44 36.73-7.74 8.27 17.75-1.1 14.54-12.51 10.06-13.83z" /><path d="m307.11 285.86l-23.55-.8-26.54 20.89 9.51 30.49 11.29 2.65 22.82-14.37 10.25-25.25-3.78-13.61z" /><path d="m647.42 168.84l-22.11-11.09-40.82 30.01.27 15.8 23.96 10.56 26.4 15.49 20.82-19.38-16.13-23.41 7.61-17.98z" /><path d="m692.17 215.04l-6.88 13.4 4.09 49.15 27.37 12.69 19.23-.34 3.76-9.98 5.06-7.23-23.68-7.7 16.86-22.44 3.52-23.69-6.27-3.43-6.66 12.46-22.85 7.96-13.55-20.85z" /><path d="m623.85 312.83l-5.77-2.81-4.03 1.81-.51 14.44 14.96 1.38-4.65-14.82z" /><path d="m510.91 164.94l-34.61 12.43 17.17 9.68 4.73 23.6-11.79 7.03 23.19 23.04 26.59-23.46-30.83-33.34 5.55-18.98z" /><path d="m537.57 216.72l-1.38.54-26.59 23.46-2.27 6.64 25.25 11.13 19.83-8.36 13.76 5.36 4.54-20.54-33.14-18.23z" /><path d="m735.23 215.47l-18.63-30.71-15.92-9.35-7.25 7.12 10.45 13.78-11.71 18.73 13.55 20.85 22.85-7.96 6.66-12.46z" /><path d="m509.6 240.72l-23.19-23.04 11.79-7.03-4.73-23.6-17.17-9.68-16.42 29.94-12.2-11.81-13.57 4.86 19.58 21.13-11.27 20.46 12.08 16.1-9.61 4.54 37.07 9.21 10.8-9.64 14.57-14.8 2.27-6.64z" /><path d="m635.12 229.61l-26.4-15.49 6.21 19.48-20.1 13.92-11.86-14.23-12.26 1.66-4.54 20.54 2.85 2.68 21.07 12.97 27.13 7.94 2.92 13.03 12.74-13.74 15.03.31-9.43-23.85 8.67-16.65-12.03-8.57z" /><path d="m584.76 203.56l-30.07.92-17.12 12.24 33.14 18.23 12.26-1.66 11.86 14.23 20.1-13.92-6.21-19.48-23.96-10.56z" /><path d="m770.4 287.49l24.6-44.26-24.97-14.74-28.53-9.59-3.52 23.69-16.86 22.44 23.68 7.7 8.53 13.44 17.07 1.32z" /><path d="m584.49 187.76l-19.76-6.73-14.63-18.49-20.38 7.92-18.81-5.52-5.55 18.98 30.83 33.34 1.38-.54 17.12-12.24 30.07-.92-.27-15.8z" /><path d="m691.1 180.85l-18.26-18.18-25.42 6.17-7.61 17.98 16.13 23.41-20.82 19.38 12.03 8.57 15.51-6.71 8.87-37.79 19.57-12.83z" /><path d="m689.38 277.59l-4.09-49.15-13.02 17.94-9.61-14.91-15.51 6.71-8.67 16.65 9.43 23.85 7.07 18.58 29.21 5.22 5.19-24.89z" /><path d="m590.09 271.14l-21.07-12.97-4.29 21.24-17.34 4.55-14.23-14.41-15.85 20.86 26.38 26.91 17.98-21.46 23.37 1.4 5.05-26.12z" /><path d="m621.83 297.49l-20.01-8.91 2.64 19.41 9.59 3.84 4.03-1.81 3.75-12.53z" /><path d="m614.05 311.83l-9.59-3.84-8.23 15.37 7.62 15.72 9.69-12.81.51-14.44z" /><path d="m623.85 312.83l-2.02-15.34-3.75 12.53 5.77 2.81z" /><path d="m647.91 278.68l-15.03-.31-12.74 13.74-2.92-13.03-27.13-7.94-5.05 26.12-23.37-1.4-17.98 21.46 7.08 20.3 45.54 18.84 42.89-16.62 10.21 8.97 5.57-51.55-7.07-18.58zm-43.45 29.31l-2.64-19.41 20.01 8.91 2.02 15.34 4.65 14.82-14.96-1.38-9.69 12.81-7.62-15.72 8.23-15.37z" /><path d="m739.74 279.96l-3.76 9.98-19.23.34-27.37-12.69-5.19 24.89-6.05 8.33 9.73 19.24 1.06 36.33 31.45-8.75 13.95 14.44 4.42-26.62-12.13-18.07-1.48-18.14 12.45-12.19 2.15-17.09z" /><path d="m517.31 290.41l-20.63-12.48-3.92-15.77-10.8 9.64-11.01 16.65-2.43 12.78 22.18 28.15-8.25 24.23 21.45 4.5 6.68-14.23 40.19-6.26-7.08-20.3-26.38-26.91z" /><path d="m770.4 287.49l-17.07-1.32-8.53-13.44-5.06 7.23-2.15 17.09-12.45 12.19 1.48 18.14 12.13 18.07 24.55-21.28 7.1-36.68z" /><path d="m566.17 255.49l-13.76-5.36-19.83 8.36-25.25-11.13-14.57 14.8 3.92 15.77 20.63 12.48 15.85-20.86 14.23 14.41 17.34-4.55 4.29-21.24-2.85-2.68z" /><path d="m684.19 302.48l-29.21-5.22-5.57 51.55 12.99 7.73 5.95 24.54 23.04 12.84 27.06-10.9 14.74 2.96 1.14-13.91-13.95-14.44-31.45 8.75-1.06-36.33-9.73-19.24 6.05-8.33z" /></g></g></svg>